<svg version="1.1" xmlns="http://www.w3.org/2000/svg" xmlns:xlink="http://www.w3.org/1999/xlink" width="534" height="422"><defs><clipPath id="DlTuzzHmRdOh"><path fill="none" stroke="none" d=" M 0 0 L 534 0 L 534 422 L 0 422 L 0 0 Z"/></clipPath></defs><g transform="scale(1,1)" clip-path="url(#DlTuzzHmRdOh)"><g><rect fill="rgb(255,255,255)" stroke="none" x="0" y="0" width="534" height="422" fill-opacity="1"/><path fill="none" stroke="rgb(0,0,0)" paint-order="fill stroke markers" d=" M 80.80062954991851 404.85371802594733 C 116.94135899727188 410.3221420252406 157.57723750012326 339.82232055196783 171.5634045223898 247.38795949610378 C 185.54957154465632 154.95359844023972 167.58975016342865 75.58770988970284 131.4490207160753 70.11928589040951 C 95.30829126872192 64.6508618911162 54.67241276587055 135.150683364389 40.68624574360402 227.58504442025307 C 26.70007872133749 320.01940547611713 44.65990010256515 399.38529402665404 80.80062954991851 404.85371802594733 Z" stroke-opacity="0.6980392156862745" stroke-linecap="round" stroke-linejoin="round" stroke-miterlimit="10" stroke-width="2.5"/><path fill="none" stroke="rgb(0,0,0)" paint-order="fill stroke markers" d=" M 354.84826079392207 386.46112959882765 C 413.1993210751449 397.05568112176684 473.35742127346356 334.84223757277675 489.2151383474181 247.50351418260598 C 505.0728554213726 160.16479079243518 470.6251945174695 80.77418532841295 412.27413423624665 70.17963380547377 C 353.92307395502377 59.58508228253456 293.76497375670516 121.79852583152467 277.90725668275064 209.13724922169544 C 262.0495396087961 296.4759726118662 296.4972005126992 375.86657807588847 354.84826079392207 386.46112959882765 Z" stroke-opacity="0.6980392156862745" stroke-linecap="round" stroke-linejoin="round" stroke-miterlimit="10" stroke-width="2.5"/><path fill="rgb(0,0,0)" stroke="none" paint-order="stroke fill markers" d=" M 101.49362904451824 126.78888252527501 L 100.95373313617289 131.7596483021098 L 113.87772415594333 133.16337766380772 L 114.41762006428868 128.1926118869729 L 101.49362904451824 126.78888252527501 Z M 122.37084530722434 129.05644534032547 L 121.83094939887899 134.02721111716028 L 134.75494041864945 135.43094047885822 L 135.29483632699478 130.4601747020234 L 122.37084530722434 129.05644534032547 Z M 143.24806156993043 131.32400815537596 L 142.7081656615851 136.29477393221077 L 155.63215668135555 137.6985032939087 L 156.17205258970088 132.72773751707388 L 143.24806156993043 131.32400815537596 Z M 164.12527783263653 133.59157097042643 L 163.5853819242912 138.56233674726124 L 176.50937294406168 139.96606610895918 L 177.049268852407 134.99530033212437 L 164.12527783263653 133.59157097042643 Z M 185.00249409534266 135.85913378547693 L 184.46259818699733 140.82989956231174 L 197.38658920676778 142.23362892400965 L 197.9264851151131 137.26286314717484 L 185.00249409534266 135.85913378547693 Z M 205.87971035804875 138.1266966005274 L 205.33981444970343 143.0974623773622 L 218.26380546947388 144.50119173906012 L 218.8037013778192 139.5304259622253 L 205.87971035804875 138.1266966005274 Z M 226.75692662075485 140.3942594155779 L 226.21703071240952 145.3650251924127 L 239.14102173217998 146.76875455411061 L 239.6809176405253 141.7979887772758 L 226.75692662075485 140.3942594155779 Z M 247.63414288346098 142.66182223062836 L 247.09424697511565 147.63258800746317 L 260.0182379948861 149.03631736916108 L 260.5581339032314 144.06555159232627 L 247.63414288346098 142.66182223062836 Z M 268.5113591461671 144.92938504567886 L 267.97146323782175 149.90015082251367 L 280.8954542575922 151.30388018421158 L 281.4353501659375 146.33311440737677 L 268.5113591461671 144.92938504567886 Z M 289.3885754088732 147.19694786072932 L 288.84867950052785 152.16771363756413 L 301.7726705202983 153.57144299926205 L 302.3125664286436 148.60067722242724 L 289.3885754088732 147.19694786072932 Z M 310.2657916715793 149.46451067577982 L 309.72589576323395 154.43527645261463 L 322.64988678300443 155.83900581431254 L 323.18978269134976 150.86824003747773 L 310.2657916715793 149.46451067577982 Z" fill-opacity="0.6980392156862745"/><path fill="rgb(0,0,0)" stroke="none" paint-order="stroke fill markers" d=" M 331.8844285244061 152.54914179790381 L 320.8631051540458 161.4108815348827 C 319.78708152820286 162.27606269349963 319.61615993750297 163.84972009752968 320.48134109611993 164.9257437233726 C 321.34652225473684 166.00176734921547 322.9201796587669 166.17268893991536 323.99620328460986 165.30750778129843 L 335.01752665497014 156.44576804431955 C 336.093550280813 155.58058688570262 336.2644718715129 154.00692948167256 335.399290712896 152.93090585582965 C 334.53410955427904 151.85488222998677 332.96045215024895 151.68396063928685 331.8844285244061 152.54914179790381 Z M 322.64092472950136 145.0426806160334 L 331.5026644664802 156.0640039863937 C 332.3678456250971 157.14002761223662 333.9415030291272 157.3109492029365 335.01752665497014 156.44576804431958 C 336.093550280813 155.58058688570267 336.2644718715129 154.0069294816726 335.399290712896 152.93090585582968 L 326.53755097591716 141.9095824854694 C 325.6723698173002 140.83355885962646 324.0987124132701 140.66263726892657 323.0226887874272 141.5278184275435 C 321.9466651615843 142.39299958616044 321.7757435708844 143.96665699019047 322.64092472950136 145.0426806160334 Z" fill-opacity="0.6980392156862745"/><path fill="rgb(0,0,0)" stroke="none" paint-order="stroke fill markers" d=" M 111.67144473974588 242.6131615880541 L 109.91075086036685 247.29290058324577 L 122.0780722478651 251.87070466963127 L 123.83876612724413 247.1909656744396 L 111.67144473974588 242.6131615880541 Z M 131.32634851955075 250.00807588144608 L 129.5656546401717 254.68781487663773 L 141.73297602766993 259.2656189630232 L 143.493669907049 254.58587996783154 L 131.32634851955075 250.00807588144608 Z M 150.98125229935562 257.402990174838 L 149.22055841997656 262.08272917002967 L 161.3878798074748 266.6605332564152 L 163.14857368685387 261.98079426122354 L 150.98125229935562 257.402990174838 Z M 170.6361560791605 264.79790446822994 L 168.87546219978142 269.4776434634216 L 181.04278358727967 274.0554475498071 L 182.80347746665873 269.37570855461547 L 170.6361560791605 264.79790446822994 Z M 190.29105985896533 272.19281876162194 L 188.53036597958626 276.8725577568136 L 200.6976873670845 281.45036184319906 L 202.45838124646357 276.7706228480074 L 190.29105985896533 272.19281876162194 Z M 209.9459636387702 279.58773305501387 L 208.18526975939113 284.2674720502055 L 220.35259114688938 288.845276136591 L 222.11328502626844 284.16553714139934 L 209.9459636387702 279.58773305501387 Z M 229.60086741857506 286.9826473484058 L 227.840173539196 291.66238634359746 L 240.00749492669425 296.240190429983 L 241.7681888060733 291.56045143479133 L 229.60086741857506 286.9826473484058 Z M 249.2557711983799 294.3775616417978 L 247.49507731900084 299.05730063698945 L 259.6623987064991 303.6351047233749 L 261.4230925858781 298.95536572818327 L 249.2557711983799 294.3775616417978 Z M 268.9106749781847 301.77247593518973 L 267.1499810988057 306.4522149303814 L 279.31730248630396 311.03001901676686 L 281.07799636568296 306.3502800215752 L 268.9106749781847 301.77247593518973 Z M 288.5655787579896 309.16739022858167 L 286.8048848786106 313.8471292237733 L 298.97220626610886 318.42493331015885 L 300.73290014548786 313.7451943149672 L 288.5655787579896 309.16739022858167 Z M 308.22048253779445 316.5623045219736 L 306.45978865841545 321.24204351716526 L 318.6271100459137 325.8198476035508 L 320.3878039252927 321.1401086083591 L 308.22048253779445 316.5623045219736 Z M 327.8753863175993 323.9572188153656 L 326.1146924382203 328.63695781055725 L 338.28201382571854 333.2147618969427 L 340.04270770509754 328.53502290175106 L 327.8753863175993 323.9572188153656 Z M 347.5302900974042 331.3521331087575 L 345.7695962180252 336.0318721039492 L 357.93691760552343 340.6096761903347 L 359.69761148490244 335.92993719514305 L 347.5302900974042 331.3521331087575 Z M 367.18519387720903 338.7470474021495 L 365.42449999783 343.4267863973412 L 367.8006482798471 344.32078278067434 L 367.80064827984734 344.32078278067434 L 371.0208647171326 342.86126022276807 L 371.0208647171327 342.86126022276807 L 369.5613421592264 339.64104378548274 L 369.5613421592263 339.64104378548274 L 367.18519387720903 338.7470474021495 Z" fill-opacity="0.6980392156862745"/><path fill="rgb(0,0,0)" stroke="none" paint-order="stroke fill markers" d=" M 373.2979015968255 341.82922192477776 L 360.4170358476842 347.66731215640294 C 359.1594631042276 348.23729116962437 358.60205825276023 349.7188145906295 359.17203726598166 350.9763873340861 C 359.74201627920297 352.2339600775427 361.2235397002081 352.79136492901006 362.48111244366476 352.2213859157887 L 375.3619781928061 346.3832956841635 C 376.6195509362627 345.81331667094213 377.17695578773 344.331793249937 376.60697677450867 343.07422050648034 C 376.03699776128735 341.8166477630237 374.5554743402821 341.25924291155644 373.2979015968255 341.82922192477776 Z M 366.2148127834978 332.2574313533196 L 372.052903015123 345.1382971024609 C 372.6228820283443 346.3958698459175 374.10440544934943 346.95327469738487 375.3619781928061 346.3832956841635 C 376.6195509362627 345.81331667094213 377.17695578773 344.331793249937 376.60697677450867 343.07422050648034 L 370.7688865428835 330.193354757339 C 370.19890752966216 328.9357820138824 368.7173841086569 328.3783771624151 367.4598113652003 328.94835617563643 C 366.20223862174373 329.51833518885775 365.64483377027636 330.999858609863 366.2148127834978 332.2574313533196 Z" fill-opacity="0.6980392156862745"/><path fill="rgb(0,0,0)" stroke="none" paint-order="stroke fill markers" d=" M 320.2696817609051 207.9298849459236 L 308.9496396130257 214.32180529666587 L 311.40807051715734 218.67566766123488 L 322.72811266503675 212.2837473104926 L 320.2696817609051 207.9298849459236 Z M 301.98345982971523 218.25529474327655 L 290.6634176818358 224.64721509401883 L 293.1218485859675 229.00107745858784 L 304.4418907338469 222.60915710784556 L 301.98345982971523 218.25529474327655 Z M 283.69723789852543 228.58070454062945 L 272.37719575064597 234.97262489137174 L 274.8356266547776 239.32648725594075 L 286.1556688026571 232.93456690519847 L 283.69723789852543 228.58070454062945 Z M 265.4110159673356 238.9061143379824 L 254.09097381945614 245.29803468872467 L 256.54940472358777 249.65189705329368 L 267.86944687146723 243.2599767025514 L 265.4110159673356 238.9061143379824 Z M 247.12479403614572 249.23152413533532 L 235.8047518882663 255.6234444860776 L 238.26318279239797 259.9773068506466 L 249.58322494027738 253.58538649990433 L 247.12479403614572 249.23152413533532 Z M 228.8385721049559 259.55693393268825 L 217.51852995707645 265.94885428343053 L 219.9769608612081 270.3027166479995 L 231.29700300908755 263.9107962972572 L 228.8385721049559 259.55693393268825 Z M 210.55235017376603 269.8823437300412 L 199.2323080258866 276.2742640807835 L 201.69073893001826 280.62812644535245 L 213.0107810778977 274.23620609461017 L 210.55235017376603 269.8823437300412 Z M 192.2661282425762 280.2077535273941 L 180.94608609469677 286.5996738781364 L 183.40451699882843 290.95353624270535 L 194.72455914670786 284.5616158919631 L 192.2661282425762 280.2077535273941 Z M 173.97990631138634 290.533163324747 L 162.65986416350694 296.9250836754893 L 165.1182950676386 301.27894604005826 L 176.438337215518 294.887025689316 L 173.97990631138634 290.533163324747 Z M 155.69368438019652 300.8585731221 L 144.37364223231708 307.25049347284227 L 146.83207313644874 311.6043558374112 L 158.15211528432818 305.21243548666894 L 155.69368438019652 300.8585731221 Z M 137.4074624490067 311.1839829194529 L 126.08742030112725 317.57590327019517 L 128.5458512052589 321.9297656347641 L 139.86589335313835 315.53784528402184 L 137.4074624490067 311.1839829194529 Z" fill-opacity="0.6980392156862745"/><path fill="rgb(0,0,0)" stroke="none" paint-order="stroke fill markers" d=" M 326.693642429682 205.14346287190384 L 322.90277950880727 218.76804940930515 C 322.53267349448214 220.09823241128578 323.3109696702168 221.4765889973196 324.6411526721974 221.84669501164475 C 325.97133567417796 222.21680102596994 327.3496922602118 221.43850485023532 327.719798274537 220.1083218482547 L 331.5106611954117 206.48373531085338 C 331.8807672097369 205.15355230887272 331.10247103400224 203.77519572283893 329.7722880320216 203.40508970851374 C 328.442105030041 203.03498369418858 327.06374844400716 203.8132798699232 326.693642429682 205.14346287190384 Z M 314.80742905567075 204.43124555336874 L 328.43201559307204 208.22210847424347 C 329.76219859505267 208.59221448856866 331.1405551810865 207.81391831283403 331.51066119541167 206.48373531085343 C 331.88076720973686 205.1535523088728 331.1024710340023 203.77519572283896 329.77228803202166 203.40508970851374 L 316.1477014946204 199.614226787639 C 314.8175184926397 199.24412077331382 313.4391619066059 200.02241694904845 313.0690558922807 201.35259995102905 C 312.69894987795556 202.68278295300968 313.4772460536901 204.06113953904352 314.80742905567075 204.43124555336874 Z" fill-opacity="0.6980392156862745"/><path fill="rgb(0,0,0)" stroke="none" paint-order="stroke fill markers" d=" M 123.04852721640125 165.29538055708565 L 122.88709273570228 169.79248394798532 L 135.37904659931252 170.240913061038 L 135.5404810800115 165.74380967013832 L 123.04852721640125 165.29538055708565 Z M 143.53533155272206 166.03080430249204 L 143.37389707202308 170.5279076933917 L 155.86585093563332 170.97633680644438 L 156.0272854163323 166.4792334155447 L 143.53533155272206 166.03080430249204 Z M 164.02213588904283 166.76622804789844 L 163.86070140834386 171.2633314387981 L 176.35265527195412 171.71176055185077 L 176.5140897526531 167.2146571609511 L 164.02213588904283 166.76622804789844 Z M 184.50894022536363 167.50165179330483 L 184.34750574466466 171.9987551842045 L 196.8394596082749 172.44718429725717 L 197.00089408897387 167.9500809063575 L 184.50894022536363 167.50165179330483 Z M 204.99574456168443 168.23707553871122 L 204.83431008098546 172.7341789296109 L 217.3262639445957 173.18260804266356 L 217.48769842529467 168.6855046517639 L 204.99574456168443 168.23707553871122 Z M 225.4825488980052 168.9724992841176 L 225.32111441730623 173.46960267501726 L 237.8130682809165 173.91803178806995 L 237.97450276161547 169.4209283971703 L 225.4825488980052 168.9724992841176 Z M 245.969353234326 169.70792302952398 L 245.80791875362704 174.20502642042365 L 258.29987261723727 174.65345553347635 L 258.46130709793624 170.15635214257668 L 245.969353234326 169.70792302952398 Z M 266.45615757064684 170.44334677493038 L 266.29472308994787 174.94045016583004 L 278.78667695355807 175.3888792788827 L 278.94811143425704 170.89177588798304 L 266.45615757064684 170.44334677493038 Z M 286.9429619069676 171.17877052033677 L 286.7815274262686 175.67587391123644 L 299.2734812898789 176.1243030242891 L 299.43491577057785 171.62719963338944 L 286.9429619069676 171.17877052033677 Z M 307.42976624328844 171.91419426574316 L 307.26833176258947 176.41129765664283 L 319.7602856261997 176.8597267696955 L 319.92172010689865 172.36262337879583 L 307.42976624328844 171.91419426574316 Z M 327.91657057960913 172.64961801114956 L 327.75513609891016 177.14672140204922 L 340.2470899625204 177.5951505151019 L 340.4085244432194 173.09804712420222 L 327.91657057960913 172.64961801114956 Z M 348.40337491592993 173.38504175655595 L 348.24194043523096 177.88214514745562 L 360.7338942988412 178.33057426050829 L 360.8953287795402 173.83347086960862 L 348.40337491592993 173.38504175655595 Z M 368.89017925225073 174.12046550196234 L 368.72874477155176 178.617568892862 L 381.2206986351621 179.06599800591468 L 381.38213311586105 174.568894615015 L 368.89017925225073 174.12046550196234 Z M 389.37698358857153 174.8558892473687 L 389.21554910787256 179.35299263826838 L 401.7075029714829 179.80142175132107 L 401.86893745218185 175.3043183604214 L 389.37698358857153 174.8558892473687 Z M 409.86378792489234 175.5913129927751 L 409.70235344419336 180.08841638367477 L 422.1943073078037 180.53684549672747 L 422.35574178850266 176.0397421058278 L 409.86378792489234 175.5913129927751 Z M 430.35059226121314 176.3267367381815 L 430.18915778051417 180.82384012908116 L 442.6811116441245 181.27226924213386 L 442.84254612482346 176.7751658512342 L 430.35059226121314 176.3267367381815 Z M 450.83739659753394 177.0621604835879 L 450.67596211683497 181.55926387448756 L 456.6670193538677 181.7743274676118 L 456.66701935386743 181.7743274676118 L 458.9962882896668 179.60649301251146 L 456.8284538345664 177.27722407671214 L 456.8284538345667 177.27722407671214 L 450.83739659753394 177.0621604835879 Z" fill-opacity="0.6980392156862745"/><path fill="rgb(0,0,0)" stroke="none" paint-order="stroke fill markers" d=" M 460.6433301493777 178.07360256882012 L 451.32625440618034 186.74494038922157 C 450.4166183047291 187.5915324044336 450.36551097494873 189.01523659117245 451.21210299016076 189.92487269262372 C 452.05869500537284 190.83450879407502 453.4823991921117 190.88561612385539 454.3920352935629 190.03902410864333 L 463.70911103676025 181.36768628824188 C 464.6187471382115 180.52109427302983 464.6698544679919 179.09739008629097 463.82326245277983 178.1877539848397 C 462.9766704375678 177.27811788338843 461.55296625082894 177.22701055360807 460.6433301493777 178.07360256882012 Z M 451.85784091295665 171.93645912902505 L 460.5291787333581 181.25353487222233 C 461.3757707485702 182.16317097367357 462.79947493530904 182.21427830345394 463.70911103676025 181.36768628824186 C 464.6187471382115 180.52109427302977 464.6698544679919 179.09739008629091 463.82326245277983 178.18775398483967 L 455.1519246323783 168.8706782416424 C 454.30533261716636 167.96104214019115 452.8816284304275 167.9099348104108 451.97199232897617 168.75652682562284 C 451.06235622752496 169.60311884083492 451.0112488977446 171.02682302757378 451.85784091295665 171.93645912902505 Z" fill-opacity="0.6980392156862745"/><path fill="none" stroke="rgb(77,77,255)" paint-order="fill stroke markers" d=" M 96.22368109034556 124.2742654136924 L 106.22368109034556 134.2742654136924" stroke-opacity="1" stroke-linecap="square" stroke-miterlimit="10" stroke-width="2.5"/><path fill="none" stroke="rgb(77,77,255)" paint-order="fill stroke markers" d=" M 96.22368109034556 134.2742654136924 L 106.22368109034556 124.2742654136924" stroke-opacity="1" stroke-linecap="square" stroke-miterlimit="10" stroke-width="2.5"/><path fill="none" stroke="rgb(77,77,255)" paint-order="fill stroke markers" d=" M 117.96780997605177 162.54393225253548 L 127.96780997605177 172.54393225253548" stroke-opacity="1" stroke-linecap="square" stroke-miterlimit="10" stroke-width="2.5"/><path fill="none" stroke="rgb(77,77,255)" paint-order="fill stroke markers" d=" M 117.96780997605177 172.54393225253548 L 127.96780997605177 162.54393225253548" stroke-opacity="1" stroke-linecap="square" stroke-miterlimit="10" stroke-width="2.5"/><path fill="none" stroke="rgb(77,77,255)" paint-order="fill stroke markers" d=" M 122.31663575319308 314.75283445247965 L 132.31663575319308 324.75283445247965" stroke-opacity="1" stroke-linecap="square" stroke-miterlimit="10" stroke-width="2.5"/><path fill="none" stroke="rgb(77,77,255)" paint-order="fill stroke markers" d=" M 122.31663575319308 324.75283445247965 L 132.31663575319308 314.75283445247965" stroke-opacity="1" stroke-linecap="square" stroke-miterlimit="10" stroke-width="2.5"/><path fill="none" stroke="rgb(77,77,255)" paint-order="fill stroke markers" d=" M 105.79109780005636 239.95303108564994 L 115.79109780005636 249.95303108564994" stroke-opacity="1" stroke-linecap="square" stroke-miterlimit="10" stroke-width="2.5"/><path fill="none" stroke="rgb(77,77,255)" paint-order="fill stroke markers" d=" M 105.79109780005636 249.95303108564994 L 115.79109780005636 239.95303108564994" stroke-opacity="1" stroke-linecap="square" stroke-miterlimit="10" stroke-width="2.5"/><path fill="none" stroke="rgb(77,77,255)" paint-order="fill stroke markers" d=" M 328.4509775896881 149.49745492111168 L 338.4509775896881 159.49745492111168" stroke-opacity="1" stroke-linecap="square" stroke-miterlimit="10" stroke-width="2.5"/><path fill="none" stroke="rgb(77,77,255)" paint-order="fill stroke markers" d=" M 328.4509775896881 159.49745492111168 L 338.4509775896881 149.49745492111168" stroke-opacity="1" stroke-linecap="square" stroke-miterlimit="10" stroke-width="2.5"/><path fill="none" stroke="rgb(77,77,255)" paint-order="fill stroke markers" d=" M 324.1021518125468 200.8135990913786 L 334.1021518125468 210.8135990913786" stroke-opacity="1" stroke-linecap="square" stroke-miterlimit="10" stroke-width="2.5"/><path fill="none" stroke="rgb(77,77,255)" paint-order="fill stroke markers" d=" M 324.1021518125468 210.8135990913786 L 334.1021518125468 200.8135990913786" stroke-opacity="1" stroke-linecap="square" stroke-miterlimit="10" stroke-width="2.5"/><path fill="none" stroke="rgb(77,77,255)" paint-order="fill stroke markers" d=" M 369.3299398948158 339.10625880447066 L 379.3299398948158 349.10625880447066" stroke-opacity="1" stroke-linecap="square" stroke-miterlimit="10" stroke-width="2.5"/><path fill="none" stroke="rgb(77,77,255)" paint-order="fill stroke markers" d=" M 369.3299398948158 349.10625880447066 L 379.3299398948158 339.10625880447066" stroke-opacity="1" stroke-linecap="square" stroke-miterlimit="10" stroke-width="2.5"/><path fill="none" stroke="rgb(77,77,255)" paint-order="fill stroke markers" d=" M 457.176220593069 174.72064442853102 L 467.176220593069 184.72064442853102" stroke-opacity="1" stroke-linecap="square" stroke-miterlimit="10" stroke-width="2.5"/><path fill="none" stroke="rgb(77,77,255)" paint-order="fill stroke markers" d=" M 457.176220593069 184.72064442853102 L 467.176220593069 174.72064442853102" stroke-opacity="1" stroke-linecap="square" stroke-miterlimit="10" stroke-width="2.5"/><g transform="scale(51,51)"><g transform="translate(2.5294117647058822,1.075156862745098)"><path fill="rgb(0,0,0)" stroke="none" paint-order="stroke fill markers" d=" M 0.708 -0.233 L 0.708 -0.233 L 0.616 -0.017 Q 0.61 -0.003 0.602 -0.001 L 0.602 -0.001 L 0.601 -0.001 Q 0.597 0 0.585 0 L 0.066 0 Q 0.041 0 0.039 -0.008 Q 0.038 -0.009000000000000001 0.038 -0.012 Q 0.038 -0.029 0.054 -0.031 L 0.066 -0.031 Q 0.131 -0.031 0.14400000000000002 -0.045 Q 0.15 -0.052000000000000005 0.156 -0.073 Q 0.156 -0.074 0.157 -0.078 L 0.289 -0.607 Q 0.294 -0.625 0.294 -0.631 Q 0.294 -0.648 0.248 -0.649 L 0.247 -0.649 L 0.229 -0.649 Q 0.203 -0.649 0.201 -0.66 Q 0.201 -0.678 0.217 -0.68 L 0.231 -0.68 L 0.736 -0.68 Q 0.76 -0.68 0.762 -0.673 L 0.763 -0.673 Q 0.765 -0.667 0.763 -0.653 L 0.743 -0.48 Q 0.736 -0.457 0.729 -0.455 Q 0.717 -0.455 0.717 -0.467 L 0.718 -0.484 L 0.718 -0.485 Q 0.722 -0.512 0.722 -0.538 Q 0.722 -0.608 0.683 -0.63 Q 0.65 -0.649 0.5700000000000001 -0.649 L 0.429 -0.649 Q 0.392 -0.649 0.385 -0.638 L 0.384 -0.638 L 0.384 -0.637 Q 0.381 -0.633 0.379 -0.625 L 0.379 -0.624 L 0.378 -0.623 Q 0.377 -0.619 0.375 -0.61 L 0.315 -0.369 L 0.40900000000000003 -0.369 Q 0.485 -0.369 0.51 -0.399 Q 0.526 -0.418 0.54 -0.468 Q 0.544 -0.485 0.554 -0.486 Q 0.5660000000000001 -0.486 0.5660000000000001 -0.47500000000000003 L 0.509 -0.241 Q 0.504 -0.222 0.494 -0.221 Q 0.481 -0.221 0.481 -0.232 Q 0.481 -0.23600000000000002 0.484 -0.243 Q 0.491 -0.273 0.491 -0.292 Q 0.491 -0.319 0.47600000000000003 -0.327 Q 0.457 -0.338 0.406 -0.338 L 0.307 -0.338 L 0.23900000000000002 -0.065 Q 0.234 -0.047 0.234 -0.042 Q 0.234 -0.034 0.243 -0.032 L 0.243 -0.032 L 0.243 -0.032 L 0.247 -0.032 Q 0.253 -0.031 0.269 -0.031 L 0.41500000000000004 -0.031 Q 0.537 -0.031 0.595 -0.08700000000000001 Q 0.633 -0.123 0.678 -0.222 Q 0.682 -0.233 0.6880000000000001 -0.246 Q 0.6920000000000001 -0.258 0.7010000000000001 -0.258 Q 0.713 -0.258 0.713 -0.247 Q 0.713 -0.246 0.708 -0.233 Z"/></g></g><g transform="scale(51,51)"><g transform="translate(7.901960784313726,1.1535882352941176)"><path fill="rgb(0,0,0)" stroke="none" paint-order="stroke fill markers" d=" M 0.303 -0.325 L 0.241 -0.076 Q 0.23700000000000002 -0.061 0.23700000000000002 -0.053 Q 0.23700000000000002 -0.039 0.25 -0.036000000000000004 Q 0.257 -0.034 0.269 -0.033 Q 0.294 -0.031 0.321 -0.031 Q 0.34600000000000003 -0.031 0.34900000000000003 -0.03 L 0.354 -0.023 Q 0.355 -0.021 0.355 -0.019 Q 0.355 0 0.334 0 L 0.186 -0.003 L 0.185 -0.003 L 0.054 0 L 0.053 0 Q 0.038 0 0.038 -0.012 Q 0.038 -0.029 0.054 -0.031 L 0.066 -0.031 Q 0.131 -0.031 0.14400000000000002 -0.045 Q 0.15 -0.052000000000000005 0.156 -0.073 Q 0.156 -0.074 0.157 -0.078 L 0.289 -0.607 Q 0.294 -0.625 0.294 -0.631 Q 0.294 -0.648 0.248 -0.649 L 0.247 -0.649 L 0.229 -0.649 Q 0.203 -0.649 0.201 -0.66 Q 0.201 -0.678 0.217 -0.68 L 0.231 -0.68 L 0.721 -0.68 Q 0.745 -0.68 0.747 -0.673 L 0.748 -0.673 Q 0.75 -0.667 0.748 -0.653 L 0.728 -0.48 Q 0.721 -0.457 0.714 -0.455 Q 0.7020000000000001 -0.455 0.7020000000000001 -0.467 Q 0.7020000000000001 -0.47200000000000003 0.704 -0.485 Q 0.707 -0.512 0.707 -0.539 Q 0.707 -0.606 0.673 -0.628 L 0.672 -0.629 Q 0.64 -0.649 0.561 -0.649 L 0.429 -0.649 Q 0.392 -0.649 0.385 -0.638 L 0.384 -0.638 L 0.384 -0.637 Q 0.381 -0.633 0.379 -0.625 L 0.379 -0.624 L 0.378 -0.623 Q 0.377 -0.619 0.375 -0.61 L 0.311 -0.356 L 0.402 -0.356 Q 0.47500000000000003 -0.356 0.5 -0.383 L 0.501 -0.384 Q 0.518 -0.403 0.531 -0.452 Q 0.536 -0.47100000000000003 0.546 -0.47300000000000003 Q 0.557 -0.47300000000000003 0.558 -0.462 Q 0.558 -0.457 0.555 -0.446 L 0.5 -0.229 Q 0.49 -0.209 0.485 -0.20800000000000002 Q 0.47300000000000003 -0.20800000000000002 0.47300000000000003 -0.22 Q 0.47300000000000003 -0.224 0.47600000000000003 -0.231 Q 0.483 -0.261 0.483 -0.28 Q 0.483 -0.309 0.461 -0.318 L 0.461 -0.318 Q 0.442 -0.325 0.4 -0.325 L 0.303 -0.325 Z"/></g></g></g></g></svg>