<?xml version="1.0" encoding="UTF-8" standalone="no"?><svg width="400" height="300" viewBox="0,0 400,300" xmlns="http://www.w3.org/2000/svg"><rect x="0" y="0" width="400" height="300" style="fill:#ffffff" /><text x="200" y="18.5" font-size="14" fill="black" text-anchor="middle">A</text><text x="100" y="113.7" font-size="14" fill="black" text-anchor="middle">B</text><text x="300" y="113.7" font-size="14" fill="black" text-anchor="middle">B</text><text x="50" y="209" font-size="14" fill="black" text-anchor="middle">C</text><text x="150" y="209" font-size="14" fill="black" text-anchor="middle">C</text><text x="250" y="209" font-size="14" fill="black" text-anchor="middle">C</text><text x="350" y="209" font-size="14" fill="black" text-anchor="middle">C</text><line x1="187.5" y1="26.2" x2="151.9" y2="60.1" style="stroke:black; stroke-width:1" /><text x="142.5" y="71.7" font-size="9" fill="black" text-anchor="middle">Vrai</text><line x1="133.1" y1="78" x2="112.5" y2="97.6" style="stroke:black; stroke-width:1" /><line x1="212.5" y1="26.2" x2="248.1" y2="60.1" style="stroke:black; stroke-width:1" /><text x="257.5" y="71.7" font-size="9" fill="black" text-anchor="middle">Faux</text><line x1="266.9" y1="78" x2="287.5" y2="97.6" style="stroke:black; stroke-width:1" /><line x1="93.8" y1="121.4" x2="75.9" y2="155.4" style="stroke:black; stroke-width:1" /><text x="71.3" y="167" font-size="9" fill="black" text-anchor="middle">Vrai</text><line x1="66.6" y1="173.2" x2="56.3" y2="192.9" style="stroke:black; stroke-width:1" /><line x1="106.3" y1="121.4" x2="124.1" y2="155.4" style="stroke:black; stroke-width:1" /><text x="128.8" y="167" font-size="9" fill="black" text-anchor="middle">Faux</text><line x1="133.4" y1="173.2" x2="143.8" y2="192.9" style="stroke:black; stroke-width:1" /><line x1="293.8" y1="121.4" x2="275.9" y2="155.4" style="stroke:black; stroke-width:1" /><text x="271.3" y="167" font-size="9" fill="black" text-anchor="middle">Vrai</text><line x1="266.6" y1="173.2" x2="256.3" y2="192.9" style="stroke:black; stroke-width:1" /><line x1="306.3" y1="121.4" x2="324.1" y2="155.4" style="stroke:black; stroke-width:1" /><text x="328.8" y="167" font-size="9" fill="black" text-anchor="middle">Faux</text><line x1="333.4" y1="173.2" x2="343.8" y2="192.9" style="stroke:black; stroke-width:1" /><line x1="46.9" y1="216.7" x2="38" y2="250.6" style="stroke:black; stroke-width:1" /><text x="35.6" y="262.2" font-size="9" fill="black" text-anchor="middle">Vrai</text><line x1="33.3" y1="268.5" x2="28.1" y2="288.1" style="stroke:black; stroke-width:1" /><line x1="53.1" y1="216.7" x2="62" y2="250.6" style="stroke:black; stroke-width:1" /><text x="64.4" y="262.2" font-size="9" fill="black" text-anchor="middle">Faux</text><line x1="66.7" y1="268.5" x2="71.9" y2="288.1" style="stroke:black; stroke-width:1" /><line x1="146.9" y1="216.7" x2="138" y2="250.6" style="stroke:black; stroke-width:1" /><text x="135.6" y="262.2" font-size="9" fill="black" text-anchor="middle">Vrai</text><line x1="133.3" y1="268.5" x2="128.1" y2="288.1" style="stroke:black; stroke-width:1" /><line x1="153.1" y1="216.7" x2="162" y2="250.6" style="stroke:black; stroke-width:1" /><text x="164.4" y="262.2" font-size="9" fill="black" text-anchor="middle">Faux</text><line x1="166.7" y1="268.5" x2="171.9" y2="288.1" style="stroke:black; stroke-width:1" /><line x1="246.9" y1="216.7" x2="238" y2="250.6" style="stroke:black; stroke-width:1" /><text x="235.6" y="262.2" font-size="9" fill="black" text-anchor="middle">Vrai</text><line x1="233.3" y1="268.5" x2="228.1" y2="288.1" style="stroke:black; stroke-width:1" /><line x1="253.1" y1="216.7" x2="262" y2="250.6" style="stroke:black; stroke-width:1" /><text x="264.4" y="262.2" font-size="9" fill="black" text-anchor="middle">Faux</text><line x1="266.7" y1="268.5" x2="271.9" y2="288.1" style="stroke:black; stroke-width:1" /><line x1="346.9" y1="216.7" x2="338" y2="250.6" style="stroke:black; stroke-width:1" /><text x="335.6" y="262.2" font-size="9" fill="black" text-anchor="middle">Vrai</text><line x1="333.3" y1="268.5" x2="328.1" y2="288.1" style="stroke:black; stroke-width:1" /><line x1="353.1" y1="216.7" x2="362" y2="250.6" style="stroke:black; stroke-width:1" /><text x="364.4" y="262.2" font-size="9" fill="black" text-anchor="middle">Faux</text><line x1="366.7" y1="268.5" x2="371.9" y2="288.1" style="stroke:black; stroke-width:1" /></svg>