<svg version="1.1" xmlns="http://www.w3.org/2000/svg" xmlns:xlink="http://www.w3.org/1999/xlink" width="461" height="471"><defs><clipPath id="EHvkLXiiUTcf"><path fill="none" stroke="none" d=" M 0 0 L 461 0 L 461 471 L 0 471 L 0 0 Z"/></clipPath></defs><g transform="scale(1,1)" clip-path="url(#EHvkLXiiUTcf)"><g><rect fill="rgb(255,255,255)" stroke="none" x="0" y="0" width="461" height="471" fill-opacity="1"/><path fill="none" stroke="rgb(37,37,37)" paint-order="fill stroke markers" d=" M 222.5 2.5 L 222.5 471.5" stroke-opacity="1" stroke-miterlimit="10"/><path fill="none" stroke="rgb(37,37,37)" paint-order="fill stroke markers" d=" M 222.5 1.5 L 218.5 5.5" stroke-opacity="1" stroke-miterlimit="10"/><path fill="none" stroke="rgb(37,37,37)" paint-order="fill stroke markers" d=" M 222.5 1.5 L 226.5 5.5" stroke-opacity="1" stroke-miterlimit="10"/><path fill="none" stroke="rgb(37,37,37)" paint-order="fill stroke markers" d=" M 0.5 236.5 L 459.5 236.5" stroke-opacity="1" stroke-miterlimit="10"/><path fill="none" stroke="rgb(37,37,37)" paint-order="fill stroke markers" d=" M 460.5 236.5 L 456.5 232.5" stroke-opacity="1" stroke-miterlimit="10"/><path fill="none" stroke="rgb(37,37,37)" paint-order="fill stroke markers" d=" M 460.5 236.5 L 456.5 240.5" stroke-opacity="1" stroke-miterlimit="10"/><path fill="none" stroke="rgb(37,37,37)" paint-order="fill stroke markers" d=" M 11.5 236.5 L 11.5 239.5" stroke-opacity="1" stroke-miterlimit="10"/><path fill="none" stroke="rgb(37,37,37)" paint-order="fill stroke markers" d=" M 222.5 236.5 L 222.5 239.5" stroke-opacity="1" stroke-miterlimit="10"/><path fill="none" stroke="rgb(37,37,37)" paint-order="fill stroke markers" d=" M 434.5 236.5 L 434.5 239.5" stroke-opacity="1" stroke-miterlimit="10"/><path fill="none" stroke="rgb(37,37,37)" paint-order="fill stroke markers" d=" M 219.5 448.5 L 222.5 448.5" stroke-opacity="1" stroke-miterlimit="10"/><path fill="none" stroke="rgb(37,37,37)" paint-order="fill stroke markers" d=" M 219.5 25.5 L 222.5 25.5" stroke-opacity="1" stroke-miterlimit="10"/><path fill="none" stroke="rgb(0,0,0)" paint-order="fill stroke markers" d=" M 434.5144612192404 236.5773129281163 C 434.5144612192404 353.40358132939645 339.8080584086633 448.10998413997373 222.98179000738358 448.10998413997373 C 106.15552160610378 448.10998413997373 11.449118795526772 353.40358132939645 11.449118795526772 236.5773129281163 C 11.449118795526772 119.75104452683615 106.15552160610378 25.044641716258866 222.98179000738358 25.044641716258866 C 339.8080584086633 25.044641716258866 434.5144612192404 119.75104452683615 434.5144612192404 236.5773129281163 Z" stroke-opacity="0.6980392156862745" stroke-linecap="round" stroke-linejoin="round" stroke-miterlimit="10" stroke-width="2.5"/><path fill="none" stroke="rgb(255,0,0)" paint-order="fill stroke markers" d=" M 284.9999999999999 236.5773129281163 C 284.9999999999999 230.270036297032 284.03785337811945 223.99966470366851 282.1467599851908 217.9825637172928" stroke-opacity="0.6980392156862745" stroke-linecap="round" stroke-linejoin="round" stroke-miterlimit="10" stroke-width="2.5"/><text fill="rgb(255,0,0)" stroke="none" font-family="geogebra-sans-serif, sans-serif" font-size="16px" font-style="normal" font-weight="normal" text-decoration="normal" x="293" y="231" text-anchor="start" dominant-baseline="alphabetic" fill-opacity="1">a</text><text fill="none" stroke="rgb(255,255,255)" font-family="geogebra-sans-serif, sans-serif" font-size="16px" font-style="normal" font-weight="normal" text-decoration="normal" x="293" y="231" text-anchor="start" dominant-baseline="alphabetic" stroke-opacity="1" stroke-linejoin="bevel" stroke-miterlimit="10" stroke-width="3">a</text><text fill="rgb(255,0,0)" stroke="none" font-family="geogebra-sans-serif, sans-serif" font-size="16px" font-style="normal" font-weight="normal" text-decoration="normal" x="293" y="231" text-anchor="start" dominant-baseline="alphabetic" fill-opacity="1">a</text><path fill="none" stroke="rgb(0,0,255)" paint-order="fill stroke markers" d=" M 292.82544154464904 214.62639864909696 C 287.44330310308 197.50145355295732 275.95718126893706 182.9506649144732 260.5499557893008 173.73933700967802" stroke-opacity="0.6980392156862745" stroke-linecap="round" stroke-linejoin="round" stroke-miterlimit="10" stroke-width="2.5"/><text fill="rgb(0,0,255)" stroke="none" font-family="geogebra-sans-serif, sans-serif" font-size="16px" font-style="normal" font-weight="normal" text-decoration="normal" x="280" y="173" text-anchor="start" dominant-baseline="alphabetic" fill-opacity="1">b</text><text fill="none" stroke="rgb(255,255,255)" font-family="geogebra-sans-serif, sans-serif" font-size="16px" font-style="normal" font-weight="normal" text-decoration="normal" x="280" y="173" text-anchor="start" dominant-baseline="alphabetic" stroke-opacity="1" stroke-linejoin="bevel" stroke-miterlimit="10" stroke-width="3">b</text><text fill="rgb(0,0,255)" stroke="none" font-family="geogebra-sans-serif, sans-serif" font-size="16px" font-style="normal" font-weight="normal" text-decoration="normal" x="280" y="173" text-anchor="start" dominant-baseline="alphabetic" fill-opacity="1">b</text><path fill="none" stroke="rgb(0,0,0)" paint-order="fill stroke markers" d=" M 222.98179000738358 236.5773129281163 L 424.78258598432194 173.1540543150676" stroke-opacity="0.6980392156862745" stroke-linecap="round" stroke-linejoin="round" stroke-miterlimit="10" stroke-width="2.5"/><path fill="none" stroke="rgb(0,0,0)" paint-order="fill stroke markers" d=" M 331.5283163031834 55.01816934361119 L 331.5283163031834 236.5773129281163" stroke-opacity="0.6980392156862745" stroke-linecap="round" stroke-linejoin="round" stroke-miterlimit="10" stroke-width="2.5"/><path fill="none" stroke="rgb(0,0,0)" paint-order="fill stroke markers" d=" M 373.70232844359396 189.20788784106097 L 373.70232844359396 236.5773129281163" stroke-opacity="0.6980392156862745" stroke-linecap="round" stroke-linejoin="round" stroke-miterlimit="10" stroke-width="2.5"/><path fill="none" stroke="rgb(0,0,0)" paint-order="fill stroke markers" d=" M 373.70232844359396 189.20788784106097 L 331.5283163031834 55.01816934361119" stroke-opacity="0.6980392156862745" stroke-linecap="round" stroke-linejoin="round" stroke-miterlimit="10" stroke-width="2.5"/><path fill="none" stroke="rgb(0,0,0)" paint-order="fill stroke markers" d=" M 222.98179000738358 236.5773129281163 L 331.5283163031834 55.01816934361119" stroke-opacity="0.6980392156862745" stroke-linecap="round" stroke-linejoin="round" stroke-miterlimit="10" stroke-width="2.5"/><path fill="none" stroke="rgb(0,0,0)" paint-order="fill stroke markers" d=" M 373.70232844359396 189.20788784106097 L 331.5283163031834 189.20788784106097" stroke-opacity="0.6980392156862745" stroke-linecap="round" stroke-linejoin="round" stroke-miterlimit="10" stroke-width="2.5"/><path fill="rgb(68,68,68)" stroke="none" paint-order="stroke fill markers" d=" M 226.98179000738358 236.5773129281163 C 226.98179000738358 238.7864519274395 225.19092900670677 240.5773129281163 222.98179000738358 240.5773129281163 C 220.7726510080604 240.5773129281163 218.98179000738358 238.7864519274395 218.98179000738358 236.5773129281163 C 218.98179000738358 234.3681739287931 220.7726510080604 232.5773129281163 222.98179000738358 232.5773129281163 C 225.19092900670677 232.5773129281163 226.98179000738358 234.3681739287931 226.98179000738358 236.5773129281163 Z" fill-opacity="1"/><path fill="none" stroke="rgb(0,0,0)" paint-order="fill stroke markers" d=" M 226.98179000738358 236.5773129281163 C 226.98179000738358 238.7864519274395 225.19092900670677 240.5773129281163 222.98179000738358 240.5773129281163 C 220.7726510080604 240.5773129281163 218.98179000738358 238.7864519274395 218.98179000738358 236.5773129281163 C 218.98179000738358 234.3681739287931 220.7726510080604 232.5773129281163 222.98179000738358 232.5773129281163 C 225.19092900670677 232.5773129281163 226.98179000738358 234.3681739287931 226.98179000738358 236.5773129281163 Z" stroke-opacity="1" stroke-linecap="round" stroke-linejoin="round" stroke-miterlimit="10"/><text fill="rgb(68,68,68)" stroke="none" font-family="geogebra-sans-serif, sans-serif" font-size="16px" font-style="normal" font-weight="normal" text-decoration="normal" x="197" y="254" text-anchor="start" dominant-baseline="alphabetic" fill-opacity="1">O</text><text fill="none" stroke="rgb(255,255,255)" font-family="geogebra-sans-serif, sans-serif" font-size="16px" font-style="normal" font-weight="normal" text-decoration="normal" x="197" y="254" text-anchor="start" dominant-baseline="alphabetic" stroke-opacity="1" stroke-linejoin="bevel" stroke-miterlimit="10" stroke-width="3">O</text><text fill="rgb(68,68,68)" stroke="none" font-family="geogebra-sans-serif, sans-serif" font-size="16px" font-style="normal" font-weight="normal" text-decoration="normal" x="197" y="254" text-anchor="start" dominant-baseline="alphabetic" fill-opacity="1">O</text><path fill="rgb(125,125,255)" stroke="none" paint-order="stroke fill markers" d=" M 429.78258598432194 173.1540543150676 C 429.78258598432194 175.9154780642216 427.5440097334759 178.1540543150676 424.78258598432194 178.1540543150676 C 422.021162235168 178.1540543150676 419.78258598432194 175.9154780642216 419.78258598432194 173.1540543150676 C 419.78258598432194 170.39263056591363 422.021162235168 168.1540543150676 424.78258598432194 168.1540543150676 C 427.5440097334759 168.1540543150676 429.78258598432194 170.39263056591363 429.78258598432194 173.1540543150676 Z" fill-opacity="1"/><path fill="none" stroke="rgb(0,0,0)" paint-order="fill stroke markers" d=" M 429.78258598432194 173.1540543150676 C 429.78258598432194 175.9154780642216 427.5440097334759 178.1540543150676 424.78258598432194 178.1540543150676 C 422.021162235168 178.1540543150676 419.78258598432194 175.9154780642216 419.78258598432194 173.1540543150676 C 419.78258598432194 170.39263056591363 422.021162235168 168.1540543150676 424.78258598432194 168.1540543150676 C 427.5440097334759 168.1540543150676 429.78258598432194 170.39263056591363 429.78258598432194 173.1540543150676 Z" stroke-opacity="1" stroke-linecap="round" stroke-linejoin="round" stroke-miterlimit="10"/><text fill="rgb(125,125,255)" stroke="none" font-family="geogebra-sans-serif, sans-serif" font-size="16px" font-style="normal" font-weight="normal" text-decoration="normal" x="429" y="163" text-anchor="start" dominant-baseline="alphabetic" fill-opacity="1">B</text><text fill="none" stroke="rgb(255,255,255)" font-family="geogebra-sans-serif, sans-serif" font-size="16px" font-style="normal" font-weight="normal" text-decoration="normal" x="429" y="163" text-anchor="start" dominant-baseline="alphabetic" stroke-opacity="1" stroke-linejoin="bevel" stroke-miterlimit="10" stroke-width="3">B</text><text fill="rgb(125,125,255)" stroke="none" font-family="geogebra-sans-serif, sans-serif" font-size="16px" font-style="normal" font-weight="normal" text-decoration="normal" x="429" y="163" text-anchor="start" dominant-baseline="alphabetic" fill-opacity="1">B</text><path fill="rgb(0,0,0)" stroke="none" paint-order="stroke fill markers" d=" M 336.5283163031834 55.01816934361119 C 336.5283163031834 57.779593092765154 334.2897400523373 60.01816934361119 331.5283163031834 60.01816934361119 C 328.7668925540294 60.01816934361119 326.5283163031834 57.779593092765154 326.5283163031834 55.01816934361119 C 326.5283163031834 52.25674559445722 328.7668925540294 50.01816934361119 331.5283163031834 50.01816934361119 C 334.2897400523373 50.01816934361119 336.5283163031834 52.25674559445722 336.5283163031834 55.01816934361119 Z" fill-opacity="1"/><path fill="none" stroke="rgb(0,0,0)" paint-order="fill stroke markers" d=" M 336.5283163031834 55.01816934361119 C 336.5283163031834 57.779593092765154 334.2897400523373 60.01816934361119 331.5283163031834 60.01816934361119 C 328.7668925540294 60.01816934361119 326.5283163031834 57.779593092765154 326.5283163031834 55.01816934361119 C 326.5283163031834 52.25674559445722 328.7668925540294 50.01816934361119 331.5283163031834 50.01816934361119 C 334.2897400523373 50.01816934361119 336.5283163031834 52.25674559445722 336.5283163031834 55.01816934361119 Z" stroke-opacity="1" stroke-linecap="round" stroke-linejoin="round" stroke-miterlimit="10"/><text fill="rgb(0,0,0)" stroke="none" font-family="geogebra-sans-serif, sans-serif" font-size="16px" font-style="normal" font-weight="normal" text-decoration="normal" x="336" y="45" text-anchor="start" dominant-baseline="alphabetic" fill-opacity="1">D</text><text fill="none" stroke="rgb(255,255,255)" font-family="geogebra-sans-serif, sans-serif" font-size="16px" font-style="normal" font-weight="normal" text-decoration="normal" x="336" y="45" text-anchor="start" dominant-baseline="alphabetic" stroke-opacity="1" stroke-linejoin="bevel" stroke-miterlimit="10" stroke-width="3">D</text><text fill="rgb(0,0,0)" stroke="none" font-family="geogebra-sans-serif, sans-serif" font-size="16px" font-style="normal" font-weight="normal" text-decoration="normal" x="336" y="45" text-anchor="start" dominant-baseline="alphabetic" fill-opacity="1">D</text><path fill="rgb(68,68,68)" stroke="none" paint-order="stroke fill markers" d=" M 377.70232844359396 189.20788784106097 C 377.70232844359396 191.41702684038415 375.9114674429171 193.20788784106097 373.70232844359396 193.20788784106097 C 371.4931894442708 193.20788784106097 369.70232844359396 191.41702684038415 369.70232844359396 189.20788784106097 C 369.70232844359396 186.99874884173778 371.4931894442708 185.20788784106097 373.70232844359396 185.20788784106097 C 375.9114674429171 185.20788784106097 377.70232844359396 186.99874884173778 377.70232844359396 189.20788784106097 Z" fill-opacity="1"/><path fill="none" stroke="rgb(0,0,0)" paint-order="fill stroke markers" d=" M 377.70232844359396 189.20788784106097 C 377.70232844359396 191.41702684038415 375.9114674429171 193.20788784106097 373.70232844359396 193.20788784106097 C 371.4931894442708 193.20788784106097 369.70232844359396 191.41702684038415 369.70232844359396 189.20788784106097 C 369.70232844359396 186.99874884173778 371.4931894442708 185.20788784106097 373.70232844359396 185.20788784106097 C 375.9114674429171 185.20788784106097 377.70232844359396 186.99874884173778 377.70232844359396 189.20788784106097 Z" stroke-opacity="1" stroke-linecap="round" stroke-linejoin="round" stroke-miterlimit="10"/><text fill="rgb(68,68,68)" stroke="none" font-family="geogebra-sans-serif, sans-serif" font-size="16px" font-style="normal" font-weight="normal" text-decoration="normal" x="378" y="181" text-anchor="start" dominant-baseline="alphabetic" fill-opacity="1">E</text><text fill="none" stroke="rgb(255,255,255)" font-family="geogebra-sans-serif, sans-serif" font-size="16px" font-style="normal" font-weight="normal" text-decoration="normal" x="378" y="181" text-anchor="start" dominant-baseline="alphabetic" stroke-opacity="1" stroke-linejoin="bevel" stroke-miterlimit="10" stroke-width="3">E</text><text fill="rgb(68,68,68)" stroke="none" font-family="geogebra-sans-serif, sans-serif" font-size="16px" font-style="normal" font-weight="normal" text-decoration="normal" x="378" y="181" text-anchor="start" dominant-baseline="alphabetic" fill-opacity="1">E</text><path fill="rgb(68,68,68)" stroke="none" paint-order="stroke fill markers" d=" M 377.70232844359396 236.5773129281163 C 377.70232844359396 238.7864519274395 375.9114674429171 240.5773129281163 373.70232844359396 240.5773129281163 C 371.4931894442708 240.5773129281163 369.70232844359396 238.7864519274395 369.70232844359396 236.5773129281163 C 369.70232844359396 234.3681739287931 371.4931894442708 232.5773129281163 373.70232844359396 232.5773129281163 C 375.9114674429171 232.5773129281163 377.70232844359396 234.3681739287931 377.70232844359396 236.5773129281163 Z" fill-opacity="1"/><path fill="none" stroke="rgb(0,0,0)" paint-order="fill stroke markers" d=" M 377.70232844359396 236.5773129281163 C 377.70232844359396 238.7864519274395 375.9114674429171 240.5773129281163 373.70232844359396 240.5773129281163 C 371.4931894442708 240.5773129281163 369.70232844359396 238.7864519274395 369.70232844359396 236.5773129281163 C 369.70232844359396 234.3681739287931 371.4931894442708 232.5773129281163 373.70232844359396 232.5773129281163 C 375.9114674429171 232.5773129281163 377.70232844359396 234.3681739287931 377.70232844359396 236.5773129281163 Z" stroke-opacity="1" stroke-linecap="round" stroke-linejoin="round" stroke-miterlimit="10"/><text fill="rgb(68,68,68)" stroke="none" font-family="geogebra-sans-serif, sans-serif" font-size="16px" font-style="normal" font-weight="normal" text-decoration="normal" x="378" y="229" text-anchor="start" dominant-baseline="alphabetic" fill-opacity="1">F</text><text fill="none" stroke="rgb(255,255,255)" font-family="geogebra-sans-serif, sans-serif" font-size="16px" font-style="normal" font-weight="normal" text-decoration="normal" x="378" y="229" text-anchor="start" dominant-baseline="alphabetic" stroke-opacity="1" stroke-linejoin="bevel" stroke-miterlimit="10" stroke-width="3">F</text><text fill="rgb(68,68,68)" stroke="none" font-family="geogebra-sans-serif, sans-serif" font-size="16px" font-style="normal" font-weight="normal" text-decoration="normal" x="378" y="229" text-anchor="start" dominant-baseline="alphabetic" fill-opacity="1">F</text><path fill="rgb(68,68,68)" stroke="none" paint-order="stroke fill markers" d=" M 335.5283163031834 236.5773129281163 C 335.5283163031834 238.7864519274395 333.73745530250653 240.5773129281163 331.5283163031834 240.5773129281163 C 329.3191773038602 240.5773129281163 327.5283163031834 238.7864519274395 327.5283163031834 236.5773129281163 C 327.5283163031834 234.3681739287931 329.3191773038602 232.5773129281163 331.5283163031834 232.5773129281163 C 333.73745530250653 232.5773129281163 335.5283163031834 234.3681739287931 335.5283163031834 236.5773129281163 Z" fill-opacity="1"/><path fill="none" stroke="rgb(0,0,0)" paint-order="fill stroke markers" d=" M 335.5283163031834 236.5773129281163 C 335.5283163031834 238.7864519274395 333.73745530250653 240.5773129281163 331.5283163031834 240.5773129281163 C 329.3191773038602 240.5773129281163 327.5283163031834 238.7864519274395 327.5283163031834 236.5773129281163 C 327.5283163031834 234.3681739287931 329.3191773038602 232.5773129281163 331.5283163031834 232.5773129281163 C 333.73745530250653 232.5773129281163 335.5283163031834 234.3681739287931 335.5283163031834 236.5773129281163 Z" stroke-opacity="1" stroke-linecap="round" stroke-linejoin="round" stroke-miterlimit="10"/><text fill="rgb(68,68,68)" stroke="none" font-family="geogebra-sans-serif, sans-serif" font-size="16px" font-style="normal" font-weight="normal" text-decoration="normal" x="336" y="229" text-anchor="start" dominant-baseline="alphabetic" fill-opacity="1">G</text><text fill="none" stroke="rgb(255,255,255)" font-family="geogebra-sans-serif, sans-serif" font-size="16px" font-style="normal" font-weight="normal" text-decoration="normal" x="336" y="229" text-anchor="start" dominant-baseline="alphabetic" stroke-opacity="1" stroke-linejoin="bevel" stroke-miterlimit="10" stroke-width="3">G</text><text fill="rgb(68,68,68)" stroke="none" font-family="geogebra-sans-serif, sans-serif" font-size="16px" font-style="normal" font-weight="normal" text-decoration="normal" x="336" y="229" text-anchor="start" dominant-baseline="alphabetic" fill-opacity="1">G</text><path fill="rgb(68,68,68)" stroke="none" paint-order="stroke fill markers" d=" M 335.5283163031834 189.20788784106097 C 335.5283163031834 191.41702684038415 333.73745530250653 193.20788784106097 331.5283163031834 193.20788784106097 C 329.3191773038602 193.20788784106097 327.5283163031834 191.41702684038415 327.5283163031834 189.20788784106097 C 327.5283163031834 186.99874884173778 329.3191773038602 185.20788784106097 331.5283163031834 185.20788784106097 C 333.73745530250653 185.20788784106097 335.5283163031834 186.99874884173778 335.5283163031834 189.20788784106097 Z" fill-opacity="1"/><path fill="none" stroke="rgb(0,0,0)" paint-order="fill stroke markers" d=" M 335.5283163031834 189.20788784106097 C 335.5283163031834 191.41702684038415 333.73745530250653 193.20788784106097 331.5283163031834 193.20788784106097 C 329.3191773038602 193.20788784106097 327.5283163031834 191.41702684038415 327.5283163031834 189.20788784106097 C 327.5283163031834 186.99874884173778 329.3191773038602 185.20788784106097 331.5283163031834 185.20788784106097 C 333.73745530250653 185.20788784106097 335.5283163031834 186.99874884173778 335.5283163031834 189.20788784106097 Z" stroke-opacity="1" stroke-linecap="round" stroke-linejoin="round" stroke-miterlimit="10"/><text fill="rgb(68,68,68)" stroke="none" font-family="geogebra-sans-serif, sans-serif" font-size="16px" font-style="normal" font-weight="normal" text-decoration="normal" x="336" y="181" text-anchor="start" dominant-baseline="alphabetic" fill-opacity="1">H</text><text fill="none" stroke="rgb(255,255,255)" font-family="geogebra-sans-serif, sans-serif" font-size="16px" font-style="normal" font-weight="normal" text-decoration="normal" x="336" y="181" text-anchor="start" dominant-baseline="alphabetic" stroke-opacity="1" stroke-linejoin="bevel" stroke-miterlimit="10" stroke-width="3">H</text><text fill="rgb(68,68,68)" stroke="none" font-family="geogebra-sans-serif, sans-serif" font-size="16px" font-style="normal" font-weight="normal" text-decoration="normal" x="336" y="181" text-anchor="start" dominant-baseline="alphabetic" fill-opacity="1">H</text></g></g></svg>