<svg version="1.1" xmlns="http://www.w3.org/2000/svg" xmlns:xlink="http://www.w3.org/1999/xlink" width="566" height="500"><defs><clipPath id="TfEcuvxNaiRl"><path fill="none" stroke="none" d=" M 0 0 L 566 0 L 566 500 L 0 500 L 0 0 Z"/></clipPath></defs><g transform="scale(1,1)" clip-path="url(#TfEcuvxNaiRl)"><g><rect fill="rgb(255,255,255)" stroke="none" x="0" y="0" width="566" height="500" fill-opacity="1"/><path fill="none" stroke="rgb(0,0,0)" paint-order="fill stroke markers" d=" M 105.7549878574655 422.2200157266074 C 133.45434610899193 422.69831696177926 157.1180685521546 353.07305903776944 158.6093912627981 266.70764955704743 C 160.1007139734416 180.34224007632537 138.85490337985777 109.94150262938172 111.15554512833134 109.46320139420988 C 83.4561868768049 108.98490015903803 59.792464433642245 178.61015808304785 58.301141722998736 264.97556756376986 C 56.80981901235523 351.3409770444919 78.05562960593906 421.7417144914356 105.7549878574655 422.2200157266074 Z" stroke-opacity="0.6980392156862745" stroke-linecap="round" stroke-linejoin="round" stroke-miterlimit="10" stroke-width="2.5"/><path fill="none" stroke="rgb(0,0,0)" paint-order="fill stroke markers" d=" M 366.6012191574846 448.6969045954737 C 433.68951295386273 460.8778381001307 502.8554249507607 389.3488245949189 521.087607483006 288.9323813227494 C 539.3197900152513 188.5159380505799 499.71408646537526 97.23772925072043 432.6257926689972 85.05679574606344 C 365.53749887261904 72.87586224140645 296.37158687572105 144.40487574661825 278.13940434347575 244.82131901878776 C 259.9072218112305 345.2377622909572 299.51292536110645 436.5159710908167 366.6012191574846 448.6969045954737 Z" stroke-opacity="0.6980392156862745" stroke-linecap="round" stroke-linejoin="round" stroke-miterlimit="10" stroke-width="2.5"/><path fill="rgb(0,0,0)" stroke="none" paint-order="stroke fill markers" d=" M 410.93080488472214 109.03126490372799 L 398.24921074343496 111.89084005323392 L 399.34904733939874 116.76837626142128 L 412.0306414806859 113.90880111191535 L 410.93080488472214 109.03126490372799 Z M 390.44515281033523 113.65057860677602 L 377.76355866904805 116.51015375628195 L 378.86339526501183 121.38768996446932 L 391.544989406299 118.52811481496339 L 390.44515281033523 113.65057860677602 Z M 369.9595007359483 118.26989230982404 L 357.27790659466115 121.12946745932997 L 358.3777431906249 126.00700366751734 L 371.0593373319121 123.14742851801141 L 369.9595007359483 118.26989230982404 Z M 349.4738486615614 122.88920601287208 L 336.79225452027424 125.74878116237802 L 337.892091116238 130.62631737056537 L 350.5736852575252 127.76674222105945 L 349.4738486615614 122.88920601287208 Z M 328.98819658717446 127.50851971592012 L 316.30660244588734 130.36809486542606 L 317.4064390418511 135.2456310736134 L 330.08803318313824 132.38605592410747 L 328.98819658717446 127.50851971592012 Z M 308.50254451278755 132.12783341896815 L 295.82095037150043 134.98740856847408 L 296.9207869674642 139.86494477666142 L 309.60238110875133 137.0053696271555 L 308.50254451278755 132.12783341896815 Z M 288.01689243840065 136.74714712201617 L 275.3352982971135 139.6067222715221 L 276.4351348930773 144.48425847970944 L 289.1167290343644 141.6246833302035 L 288.01689243840065 136.74714712201617 Z M 267.53124036401374 141.36646082506422 L 254.8496462227266 144.22603597457015 L 255.94948281869043 149.1035721827575 L 268.6310769599775 146.24399703325156 L 267.53124036401374 141.36646082506422 Z M 247.0455882896268 145.98577452811224 L 234.36399414833969 148.84534967761817 L 235.46383074430352 153.7228858858055 L 248.14542488559064 150.86331073629958 L 247.0455882896268 145.98577452811224 Z M 226.5599362152399 150.6050882311603 L 213.87834207395278 153.4646633806662 L 214.97817866991662 158.34219958885353 L 227.65977281120374 155.48262443934763 L 226.5599362152399 150.6050882311603 Z M 206.074284140853 155.22440193420832 L 193.39268999956585 158.08397708371425 L 194.49252659552968 162.96151329190158 L 207.17412073681683 160.10193814239565 L 206.074284140853 155.22440193420832 Z M 185.5886320664661 159.84371563725634 L 172.90703792517894 162.70329078676227 L 174.00687452114278 167.5808269949496 L 186.68846866242993 164.72125184544367 L 185.5886320664661 159.84371563725634 Z M 165.10297999207918 164.4630293403044 L 152.42138585079203 167.3226044898103 L 153.52122244675587 172.20014069799763 L 166.20281658804302 169.34056554849172 L 165.10297999207918 164.4630293403044 Z M 144.61732791769225 169.0823430433524 L 131.93573377640513 171.94191819285834 L 133.03557037236897 176.81945440104568 L 145.7171645136561 173.95987925153975 L 144.61732791769225 169.0823430433524 Z M 124.13167584330536 173.70165674640043 L 111.45008170201822 176.56123189590636 L 112.54991829798203 181.4387681040937 L 125.23151243926917 178.57919295458777 L 124.13167584330536 173.70165674640043 Z" fill-opacity="0.6980392156862745"/><path fill="rgb(0,0,0)" stroke="none" paint-order="stroke fill markers" d=" M 415.88667957825226 108.66438149345551 L 408.3312803538052 120.61912710175785 C 407.5936386210489 121.78628174219507 407.94182762857116 123.33042429729375 409.1089822690083 124.06806603005008 C 410.27613690944554 124.80570776280639 411.8202794645442 124.45751875528414 412.5579211973006 123.29036411484691 L 420.1133204217477 111.33561850654456 C 420.8509621545039 110.16846386610733 420.50277314698167 108.62432131100866 419.3356185065445 107.88667957825234 C 418.1684638661073 107.14903784549601 416.6243213110086 107.49722685301828 415.88667957825226 108.66438149345551 Z M 404.70963588515303 104.55792119730062 L 416.66438149345544 112.11332042174772 C 417.83153613389266 112.85096215450405 419.37567868899134 112.50277314698178 420.1133204217477 111.33561850654458 C 420.850962154504 110.16846386610736 420.5027731469817 108.62432131100869 419.3356185065445 107.88667957825236 L 407.38087289824216 100.33128035380527 C 406.21371825780494 99.59363862104894 404.66957570270625 99.94182762857119 403.9319339699499 101.10898226900841 C 403.1942922371936 102.27613690944561 403.5424812447159 103.82027946454427 404.70963588515303 104.55792119730062 Z" fill-opacity="0.6980392156862745"/><path fill="rgb(0,0,0)" stroke="none" paint-order="stroke fill markers" d=" M 474.5472023884325 189.98065093622864 L 473.3533186825636 190.2677875237161 L 474.5225107099786 195.12916490086235 L 475.7163944158472 194.84202831337495 L 477.5624870907129 191.82674361109432 L 474.5472023884323 189.98065093622864 Z M 465.5751148791296 192.13849476757997 L 452.93553369854936 195.17839403885876 L 454.10472572596433 200.039771416005 L 466.7443069065446 196.99987214472623 L 465.5751148791296 192.13849476757997 Z M 445.15732989511537 197.04910128272263 L 432.51774871453506 200.08900055400147 L 433.68694074195 204.95037793114773 L 446.32652192253033 201.9104786598689 L 445.15732989511537 197.04910128272263 Z M 424.73954491110106 201.95970779786532 L 412.0999637305208 204.99960706914413 L 413.2691557579358 209.8609844462904 L 425.90873693851603 206.82108517501158 L 424.73954491110106 201.95970779786532 Z M 404.3217599270868 206.870314313008 L 391.68217874650657 209.9102135842868 L 392.85137077392153 214.77159096143305 L 405.4909519545018 211.73169169015426 L 404.3217599270868 206.870314313008 Z M 383.90397494307257 211.78092082815067 L 371.26439376249226 214.82082009942945 L 372.4335857899072 219.6821974765757 L 385.07316697048753 216.64229820529692 L 383.90397494307257 211.78092082815067 Z M 363.48618995905827 216.69152734329333 L 350.846608778478 219.73142661457214 L 352.015800805893 224.5928039917184 L 364.65538198647323 221.55290472043959 L 363.48618995905827 216.69152734329333 Z M 343.068404975044 221.60213385843602 L 330.4288237944638 224.6420331297148 L 331.5980158218788 229.50341050686106 L 344.237597002459 226.46351123558227 L 343.068404975044 221.60213385843602 Z M 322.6506199910298 226.51274037357868 L 310.0110388104496 229.5526396448575 L 311.18023083786454 234.41401702200375 L 323.8198120184448 231.37411775072493 L 322.6506199910298 226.51274037357868 Z M 302.2328350070155 231.42334688872137 L 289.5932538264353 234.46324616000015 L 290.76244585385024 239.3246235371464 L 303.4020270344305 236.28472426586762 L 302.2328350070155 231.42334688872137 Z M 281.8150500230013 236.33395340386403 L 269.175468842421 239.3738526751428 L 270.344660869836 244.23523005228907 L 282.98424205041624 241.19533078101028 L 281.8150500230013 236.33395340386403 Z M 261.397265038987 241.2445599190067 L 248.75768385840675 244.2844591902855 L 249.92687588582166 249.14583656743176 L 262.56645706640194 246.10593729615294 L 261.397265038987 241.2445599190067 Z M 240.97948005497275 246.15516643414938 L 228.3398988743925 249.19506570542816 L 229.5090909018074 254.05644308257442 L 242.14867208238766 251.01654381129563 L 240.97948005497275 246.15516643414938 Z M 220.5616950709585 251.06577294929204 L 207.92211389037826 254.10567222057085 L 209.09130591779316 258.9670495977171 L 221.73088709837342 255.9271503264383 L 220.5616950709585 251.06577294929204 Z M 200.14391008694423 255.97637946443473 L 187.50432890636398 259.0162787357135 L 188.6735209337789 263.87765611285977 L 201.31310211435914 260.837756841581 L 200.14391008694423 255.97637946443473 Z M 179.72612510292998 260.8869859795774 L 167.0865439223497 263.9268852508562 L 168.2557359497646 268.7882626280024 L 180.8953171303449 265.74836335672364 L 179.72612510292998 260.8869859795774 Z M 159.3083401189157 265.79759249472005 L 146.66875893833546 268.83749176599883 L 147.83795096575037 273.6988691431451 L 160.47753214633062 270.6589698718663 L 159.3083401189157 265.79759249472005 Z M 138.89055513490146 270.7081990098627 L 126.2509739543212 273.74809828114155 L 127.4201659817361 278.6094756582878 L 140.05974716231637 275.56957638700896 L 138.89055513490146 270.7081990098627 Z M 118.47277015088719 275.6188055250054 L 105.83318897030694 278.6587047962842 L 107.00238099772184 283.52008217343047 L 119.6419621783021 280.4801829021517 L 118.47277015088719 275.6188055250054 Z M 98.05498516687294 280.5294120401481 L 85.41540398629267 283.5693113114269 L 86.58459601370758 288.4306886885731 L 99.22417719428785 285.39078941729434 L 98.05498516687294 280.5294120401481 Z" fill-opacity="0.6980392156862745"/><path fill="rgb(0,0,0)" stroke="none" paint-order="stroke fill markers" d=" M 478.86787173980923 189.6946153509037 L 471.4835010403466 201.75575416002604 C 470.76255700598756 202.9332960828126 471.13270272865446 204.4723230349539 472.310244651441 205.19326706931298 C 473.4877865742275 205.91421110367213 475.02681352636887 205.54406538100523 475.74775756072796 204.36652345821867 L 483.1321282601906 192.3053846490963 C 483.85307229454975 191.12784272630972 483.4829265718828 189.58881577416844 482.30538464909625 188.86787173980935 C 481.1278427263097 188.1469277054502 479.5888157741684 188.5170734281171 478.86787173980923 189.6946153509037 Z M 467.63347654178125 185.747757560728 L 479.6946153509036 193.13212826019065 C 480.87215727369016 193.85307229454978 482.41118422583145 193.48292657188287 483.1321282601906 192.30538464909637 C 483.85307229454963 191.12784272630978 483.4829265718828 189.58881577416847 482.30538464909625 188.86787173980935 L 470.2442458399739 181.48350104034668 C 469.0667039171874 180.7625570059875 467.52767696504606 181.1327027286544 466.80673293068696 182.310244651441 C 466.08578889632787 183.48778657422753 466.4559346189947 185.02681352636884 467.63347654178125 185.747757560728 Z" fill-opacity="0.6980392156862745"/><path fill="rgb(0,0,0)" stroke="none" paint-order="stroke fill markers" d=" M 388.8898216549044 360.6884225903499 L 377.79107753007486 361.03286637353426 L 377.9461752714925 366.0304602636585 L 389.0449193963202 365.68601648047417 L 389.04491939632334 365.68601648047417 L 390.8811090413141 363.7322061464804 L 390.88110904131406 363.7322061464804 L 390.84363198889935 362.52461223534044 L 390.8436319888993 362.52461223534044 L 388.8898216549058 360.6884225903499 Z M 369.79492730587606 361.2810227598025 L 356.80118319155304 361.6842768874884 L 356.9562809329707 366.68187077761263 L 369.9500250472937 366.27861664992673 L 369.79492730587606 361.2810227598025 Z M 348.80503296735424 361.9324332737566 L 335.8112888530312 362.3356874014425 L 335.96638659444886 367.3332812915667 L 348.9601307087719 366.9300271638808 L 348.80503296735424 361.9324332737566 Z M 327.81513862883247 362.58384378771075 L 314.82139451450945 362.98709791539665 L 314.9764922559271 367.98469180552087 L 327.9702363702501 367.58143767783497 L 327.81513862883247 362.58384378771075 Z M 306.82524429031065 363.2352543016649 L 293.8315001759876 363.63850842935074 L 293.9865979174053 368.63610231947496 L 306.9803420317283 368.2328481917891 L 306.82524429031065 363.2352543016649 Z M 285.8353499517888 363.886664815619 L 272.8416058374658 364.2899189433049 L 272.99670357888346 369.2875128334291 L 285.9904476932065 368.8842587057432 L 285.8353499517888 363.886664815619 Z M 264.845455613267 364.53807532957313 L 251.85171149894398 364.94132945725903 L 252.00680924036163 369.93892334738325 L 265.00055335468466 369.53566921969735 L 264.845455613267 364.53807532957313 Z M 243.85556127474518 365.1894858435272 L 230.86181716042216 365.5927399712131 L 231.0169149018398 370.59033386133734 L 244.01065901616283 370.18707973365144 L 243.85556127474518 365.1894858435272 Z M 222.8656669362234 365.84089635748137 L 209.87192282190037 366.24415048516727 L 210.02702056331802 371.2417443752915 L 223.02076467764104 370.8384902476056 L 222.8656669362234 365.84089635748137 Z M 201.8757725977016 366.4923068714355 L 188.88202848337855 366.8955609991214 L 189.0371262247962 371.89315488924564 L 202.03087033911925 371.48990076155974 L 201.8757725977016 366.4923068714355 Z M 180.88587825917978 367.1437173853896 L 167.89213414485675 367.5469715130755 L 168.0472318862744 372.5445654031997 L 181.04097600059742 372.14131127551383 L 180.88587825917978 367.1437173853896 Z M 159.89598392065795 367.79512789934375 L 146.90223980633493 368.19838202702965 L 147.05733754775258 373.1959759171539 L 160.0510816620756 372.792721789468 L 159.89598392065795 367.79512789934375 Z M 138.90608958213613 368.4465384132979 L 125.91234546781311 368.84979254098374 L 126.06744320923076 373.84738643110796 L 139.06118732355378 373.4441323034221 L 138.90608958213613 368.4465384132979 Z M 117.91619524361433 369.097948927252 L 104.9224511292913 369.5012030549379 L 105.07754887070895 374.4987969450621 L 118.07129298503197 374.0955428173762 L 117.91619524361433 369.097948927252 Z" fill-opacity="0.6980392156862745"/><path fill="rgb(0,0,0)" stroke="none" paint-order="stroke fill markers" d=" M 393.1782484029868 361.2879190676899 L 383.4932561055736 371.59330233077367 C 382.54769991618264 372.59942795578394 382.59680114526645 374.1815786707061 383.6029267702767 375.127134860097 C 384.60905239528705 376.0726910494879 386.19120311020913 376.02358982040414 387.13675929960004 375.0174641953938 L 396.82175159701325 364.7120809323101 C 397.7673077864042 363.7059553072998 397.7182065573204 362.12380459237767 396.71208093231013 361.17824840298675 C 395.70595530729986 360.23269221359584 394.1238045923777 360.2817934426796 393.1782484029868 361.2879190676899 Z M 382.98253580460613 355.13675929960004 L 393.2879190676899 364.82175159701325 C 394.2940446927002 365.76730778640416 395.87619540762233 365.7182065573204 396.82175159701325 364.7120809323101 C 397.7673077864042 363.7059553072998 397.7182065573204 362.12380459237767 396.71208093231013 361.17824840298675 L 386.40669766922633 351.49325610557355 C 385.40057204421606 350.54769991618264 383.818421329294 350.5968011452664 382.872865139903 351.6029267702767 C 381.92730895051204 352.609052395287 381.97641017959586 354.1912031102091 382.98253580460613 355.13675929960004 Z" fill-opacity="0.6980392156862745"/><path fill="rgb(0,0,0)" stroke="none" paint-order="stroke fill markers" d=" M 125.26690729459673 233.7658870896727 L 124.7330927054035 238.2341129103273 L 137.1448310961107 239.71693121364189 L 137.67864568530393 235.2487053929873 L 125.26690729459673 233.7658870896727 Z M 145.62215825535657 236.1977091071086 L 145.08834366616333 240.6659349277632 L 157.50008205687053 242.1487532310778 L 158.03389664606377 237.6805274104232 L 145.62215825535657 236.1977091071086 Z M 165.9774092161164 238.6295311245445 L 165.44359462692316 243.0977569451991 L 177.85533301763036 244.5805752485137 L 178.3891476068236 240.1123494278591 L 165.9774092161164 238.6295311245445 Z M 186.3326601768762 241.06135314198042 L 185.79884558768296 245.52957896263501 L 198.2105839783902 247.0123972659496 L 198.74439856758343 242.544171445295 L 186.3326601768762 241.06135314198042 Z M 206.68791113763606 243.49317515941635 L 206.15409654844282 247.96140098007095 L 218.56583493915002 249.4442192833855 L 219.09964952834326 244.9759934627309 L 206.68791113763606 243.49317515941635 Z M 227.04316209839587 245.92499717685226 L 226.50934750920263 250.39322299750685 L 238.92108589990985 251.8760413008214 L 239.4549004891031 247.40781548016682 L 227.04316209839587 245.92499717685226 Z M 247.3984130591557 248.35681919428816 L 246.86459846996246 252.82504501494276 L 259.27633686066963 254.30786331825735 L 259.81015144986293 249.83963749760275 L 247.3984130591557 248.35681919428816 Z M 267.75366401991556 250.78864121172407 L 267.21984943072226 255.25686703237866 L 279.63158782142943 256.73968533569325 L 280.16540241062273 252.27145951503866 L 267.75366401991556 250.78864121172407 Z M 288.1089149806754 253.22046322915998 L 287.5751003914821 257.68868904981457 L 299.9868387821893 259.1715073531292 L 300.5206533713826 254.70328153247456 L 288.1089149806754 253.22046322915998 Z M 308.4641659414352 255.65228524659588 L 307.9303513522419 260.1205110672505 L 320.34208974294916 261.6033293705651 L 320.87590433214245 257.13510354991047 L 308.4641659414352 255.65228524659588 Z M 328.81941690219503 258.0841072640318 L 328.28560231300173 262.55233308468644 L 340.69734070370896 264.035151388001 L 341.23115529290226 259.56692556734635 L 328.81941690219503 258.0841072640318 Z" fill-opacity="0.6980392156862745"/><path fill="rgb(0,0,0)" stroke="none" paint-order="stroke fill markers" d=" M 349.6089755691286 261.2315116532137 L 339.60489474943284 269.1003341161364 C 338.6281856052493 269.8685756959488 338.4591892537057 271.2831377496106 339.227430833518 272.2598468937941 C 339.99567241333034 273.2365560379776 341.41023446699216 273.4055523895213 342.38694361117564 272.6373108097089 L 352.39102443087137 264.7684883467862 C 353.3677335750549 264.00024676697393 353.5367299265985 262.5856847133121 352.7684883467862 261.6089755691286 C 352.00024676697393 260.6322664249451 350.5856847133121 260.4632700734014 349.6089755691286 261.2315116532137 Z M 341.362689190291 254.38694361117575 L 349.2315116532137 264.39102443087137 C 349.99975323302607 265.3677335750549 351.4143152866879 265.5367299265986 352.39102443087137 264.7684883467862 C 353.3677335750549 264.00024676697393 353.5367299265985 262.5856847133121 352.7684883467862 261.6089755691286 L 344.8996658838635 251.6048947494329 C 344.1314243040512 250.6281856052493 342.71686225038934 250.4591892537057 341.7401531062058 251.22743083351804 C 340.7634439620223 251.9956724133304 340.59444761047865 253.41023446699222 341.362689190291 254.38694361117575 Z" fill-opacity="0.6980392156862745"/><path fill="none" stroke="rgb(77,77,255)" paint-order="fill stroke markers" d=" M 107.00000000000013 174.00000000000003 L 117.00000000000013 184.00000000000003" stroke-opacity="1" stroke-linecap="square" stroke-miterlimit="10" stroke-width="2.5"/><path fill="none" stroke="rgb(77,77,255)" paint-order="fill stroke markers" d=" M 107.00000000000013 184.00000000000003 L 117.00000000000013 174.00000000000003" stroke-opacity="1" stroke-linecap="square" stroke-miterlimit="10" stroke-width="2.5"/><path fill="none" stroke="rgb(77,77,255)" paint-order="fill stroke markers" d=" M 120.00000000000011 231 L 130.0000000000001 241" stroke-opacity="1" stroke-linecap="square" stroke-miterlimit="10" stroke-width="2.5"/><path fill="none" stroke="rgb(77,77,255)" paint-order="fill stroke markers" d=" M 120.00000000000011 241 L 130.0000000000001 231" stroke-opacity="1" stroke-linecap="square" stroke-miterlimit="10" stroke-width="2.5"/><path fill="none" stroke="rgb(77,77,255)" paint-order="fill stroke markers" d=" M 100.00000000000013 367 L 110.00000000000013 377" stroke-opacity="1" stroke-linecap="square" stroke-miterlimit="10" stroke-width="2.5"/><path fill="none" stroke="rgb(77,77,255)" paint-order="fill stroke markers" d=" M 100.00000000000013 377 L 110.00000000000013 367" stroke-opacity="1" stroke-linecap="square" stroke-miterlimit="10" stroke-width="2.5"/><path fill="none" stroke="rgb(77,77,255)" paint-order="fill stroke markers" d=" M 81.00000000000013 281 L 91.00000000000013 291" stroke-opacity="1" stroke-linecap="square" stroke-miterlimit="10" stroke-width="2.5"/><path fill="none" stroke="rgb(77,77,255)" paint-order="fill stroke markers" d=" M 81.00000000000013 291 L 91.00000000000013 281" stroke-opacity="1" stroke-linecap="square" stroke-miterlimit="10" stroke-width="2.5"/><path fill="none" stroke="rgb(77,77,255)" paint-order="fill stroke markers" d=" M 413 105.00000000000003 L 423 115.00000000000003" stroke-opacity="1" stroke-linecap="square" stroke-miterlimit="10" stroke-width="2.5"/><path fill="none" stroke="rgb(77,77,255)" paint-order="fill stroke markers" d=" M 413 115.00000000000003 L 423 105.00000000000003" stroke-opacity="1" stroke-linecap="square" stroke-miterlimit="10" stroke-width="2.5"/><path fill="none" stroke="rgb(77,77,255)" paint-order="fill stroke markers" d=" M 409 413 L 419 423" stroke-opacity="1" stroke-linecap="square" stroke-miterlimit="10" stroke-width="2.5"/><path fill="none" stroke="rgb(77,77,255)" paint-order="fill stroke markers" d=" M 409 423 L 419 413" stroke-opacity="1" stroke-linecap="square" stroke-miterlimit="10" stroke-width="2.5"/><path fill="none" stroke="rgb(77,77,255)" paint-order="fill stroke markers" d=" M 390 358 L 400 368" stroke-opacity="1" stroke-linecap="square" stroke-miterlimit="10" stroke-width="2.5"/><path fill="none" stroke="rgb(77,77,255)" paint-order="fill stroke markers" d=" M 390 368 L 400 358" stroke-opacity="1" stroke-linecap="square" stroke-miterlimit="10" stroke-width="2.5"/><path fill="none" stroke="rgb(77,77,255)" paint-order="fill stroke markers" d=" M 476 186 L 486 196" stroke-opacity="1" stroke-linecap="square" stroke-miterlimit="10" stroke-width="2.5"/><path fill="none" stroke="rgb(77,77,255)" paint-order="fill stroke markers" d=" M 476 196 L 486 186" stroke-opacity="1" stroke-linecap="square" stroke-miterlimit="10" stroke-width="2.5"/><path fill="none" stroke="rgb(77,77,255)" paint-order="fill stroke markers" d=" M 346 258 L 356 268" stroke-opacity="1" stroke-linecap="square" stroke-miterlimit="10" stroke-width="2.5"/><path fill="none" stroke="rgb(77,77,255)" paint-order="fill stroke markers" d=" M 346 268 L 356 258" stroke-opacity="1" stroke-linecap="square" stroke-miterlimit="10" stroke-width="2.5"/><path fill="none" stroke="rgb(77,77,255)" paint-order="fill stroke markers" d=" M 437 273 L 447 283" stroke-opacity="1" stroke-linecap="square" stroke-miterlimit="10" stroke-width="2.5"/><path fill="none" stroke="rgb(77,77,255)" paint-order="fill stroke markers" d=" M 437 283 L 447 273" stroke-opacity="1" stroke-linecap="square" stroke-miterlimit="10" stroke-width="2.5"/><g transform="scale(51,51)"><g transform="translate(2.0784313725490198,1.1731960784313726)"><path fill="rgb(0,0,0)" stroke="none" paint-order="stroke fill markers" d=" M 0.708 -0.233 L 0.708 -0.233 L 0.616 -0.017 Q 0.61 -0.003 0.602 -0.001 L 0.602 -0.001 L 0.601 -0.001 Q 0.597 0 0.585 0 L 0.066 0 Q 0.041 0 0.039 -0.008 Q 0.038 -0.009000000000000001 0.038 -0.012 Q 0.038 -0.029 0.054 -0.031 L 0.066 -0.031 Q 0.131 -0.031 0.14400000000000002 -0.045 Q 0.15 -0.052000000000000005 0.156 -0.073 Q 0.156 -0.074 0.157 -0.078 L 0.289 -0.607 Q 0.294 -0.625 0.294 -0.631 Q 0.294 -0.648 0.248 -0.649 L 0.247 -0.649 L 0.229 -0.649 Q 0.203 -0.649 0.201 -0.66 Q 0.201 -0.678 0.217 -0.68 L 0.231 -0.68 L 0.736 -0.68 Q 0.76 -0.68 0.762 -0.673 L 0.763 -0.673 Q 0.765 -0.667 0.763 -0.653 L 0.743 -0.48 Q 0.736 -0.457 0.729 -0.455 Q 0.717 -0.455 0.717 -0.467 L 0.718 -0.484 L 0.718 -0.485 Q 0.722 -0.512 0.722 -0.538 Q 0.722 -0.608 0.683 -0.63 Q 0.65 -0.649 0.5700000000000001 -0.649 L 0.429 -0.649 Q 0.392 -0.649 0.385 -0.638 L 0.384 -0.638 L 0.384 -0.637 Q 0.381 -0.633 0.379 -0.625 L 0.379 -0.624 L 0.378 -0.623 Q 0.377 -0.619 0.375 -0.61 L 0.315 -0.369 L 0.40900000000000003 -0.369 Q 0.485 -0.369 0.51 -0.399 Q 0.526 -0.418 0.54 -0.468 Q 0.544 -0.485 0.554 -0.486 Q 0.5660000000000001 -0.486 0.5660000000000001 -0.47500000000000003 L 0.509 -0.241 Q 0.504 -0.222 0.494 -0.221 Q 0.481 -0.221 0.481 -0.232 Q 0.481 -0.23600000000000002 0.484 -0.243 Q 0.491 -0.273 0.491 -0.292 Q 0.491 -0.319 0.47600000000000003 -0.327 Q 0.457 -0.338 0.406 -0.338 L 0.307 -0.338 L 0.23900000000000002 -0.065 Q 0.234 -0.047 0.234 -0.042 Q 0.234 -0.034 0.243 -0.032 L 0.243 -0.032 L 0.243 -0.032 L 0.247 -0.032 Q 0.253 -0.031 0.269 -0.031 L 0.41500000000000004 -0.031 Q 0.537 -0.031 0.595 -0.08700000000000001 Q 0.633 -0.123 0.678 -0.222 Q 0.682 -0.233 0.6880000000000001 -0.246 Q 0.6920000000000001 -0.258 0.7010000000000001 -0.258 Q 0.713 -0.258 0.713 -0.247 Q 0.713 -0.246 0.708 -0.233 Z"/></g></g><g transform="scale(51,51)"><g transform="translate(8.254901960784315,1.2516274509803922)"><path fill="rgb(0,0,0)" stroke="none" paint-order="stroke fill markers" d=" M 0.303 -0.325 L 0.241 -0.076 Q 0.23700000000000002 -0.061 0.23700000000000002 -0.053 Q 0.23700000000000002 -0.039 0.25 -0.036000000000000004 Q 0.257 -0.034 0.269 -0.033 Q 0.294 -0.031 0.321 -0.031 Q 0.34600000000000003 -0.031 0.34900000000000003 -0.03 L 0.354 -0.023 Q 0.355 -0.021 0.355 -0.019 Q 0.355 0 0.334 0 L 0.186 -0.003 L 0.185 -0.003 L 0.054 0 L 0.053 0 Q 0.038 0 0.038 -0.012 Q 0.038 -0.029 0.054 -0.031 L 0.066 -0.031 Q 0.131 -0.031 0.14400000000000002 -0.045 Q 0.15 -0.052000000000000005 0.156 -0.073 Q 0.156 -0.074 0.157 -0.078 L 0.289 -0.607 Q 0.294 -0.625 0.294 -0.631 Q 0.294 -0.648 0.248 -0.649 L 0.247 -0.649 L 0.229 -0.649 Q 0.203 -0.649 0.201 -0.66 Q 0.201 -0.678 0.217 -0.68 L 0.231 -0.68 L 0.721 -0.68 Q 0.745 -0.68 0.747 -0.673 L 0.748 -0.673 Q 0.75 -0.667 0.748 -0.653 L 0.728 -0.48 Q 0.721 -0.457 0.714 -0.455 Q 0.7020000000000001 -0.455 0.7020000000000001 -0.467 Q 0.7020000000000001 -0.47200000000000003 0.704 -0.485 Q 0.707 -0.512 0.707 -0.539 Q 0.707 -0.606 0.673 -0.628 L 0.672 -0.629 Q 0.64 -0.649 0.561 -0.649 L 0.429 -0.649 Q 0.392 -0.649 0.385 -0.638 L 0.384 -0.638 L 0.384 -0.637 Q 0.381 -0.633 0.379 -0.625 L 0.379 -0.624 L 0.378 -0.623 Q 0.377 -0.619 0.375 -0.61 L 0.311 -0.356 L 0.402 -0.356 Q 0.47500000000000003 -0.356 0.5 -0.383 L 0.501 -0.384 Q 0.518 -0.403 0.531 -0.452 Q 0.536 -0.47100000000000003 0.546 -0.47300000000000003 Q 0.557 -0.47300000000000003 0.558 -0.462 Q 0.558 -0.457 0.555 -0.446 L 0.5 -0.229 Q 0.49 -0.209 0.485 -0.20800000000000002 Q 0.47300000000000003 -0.20800000000000002 0.47300000000000003 -0.22 Q 0.47300000000000003 -0.224 0.47600000000000003 -0.231 Q 0.483 -0.261 0.483 -0.28 Q 0.483 -0.309 0.461 -0.318 L 0.461 -0.318 Q 0.442 -0.325 0.4 -0.325 L 0.303 -0.325 Z"/></g></g></g></g></svg>