<svg version="1.1" xmlns="http://www.w3.org/2000/svg" xmlns:xlink="http://www.w3.org/1999/xlink" width="582" height="539"><defs><clipPath id="vVkomCwfKAdx"><path fill="none" stroke="none" d=" M 0 0 L 582 0 L 582 539 L 0 539 L 0 0 Z"/></clipPath></defs><g transform="scale(1,1)" clip-path="url(#vVkomCwfKAdx)"><g><rect fill="rgb(255,255,255)" stroke="none" x="0" y="0" width="582" height="539" fill-opacity="1"/><path fill="none" stroke="rgb(0,0,0)" paint-order="fill stroke markers" d=" M 88.75498785746547 442.22001572660724 C 116.4543461089919 442.6983169617791 140.11806855215457 373.07305903776927 141.60939126279806 286.7076495570473 C 143.10071397344157 200.3422400763253 121.85490337985775 129.94150262938166 94.15554512833131 129.46320139420982 C 66.45618687680488 128.98490015903798 42.792464433642216 198.6101580830478 41.30114172299871 284.97556756376974 C 39.8098190123552 371.34097704449175 61.055629605939025 441.7417144914354 88.75498785746547 442.22001572660724 Z" stroke-opacity="0.6980392156862745" stroke-linecap="round" stroke-linejoin="round" stroke-miterlimit="10" stroke-width="2.5"/><path fill="none" stroke="rgb(0,0,0)" paint-order="fill stroke markers" d=" M 369.601219157484 471.69690459547337 C 436.68951295386216 483.8778381001306 505.85542495076044 412.34882459491905 524.087607483006 311.93238132274956 C 542.3197900152517 211.51593805058013 502.7140864653759 120.23772925072055 435.62579266899786 108.05679574606333 C 368.5374988726197 95.87586224140611 299.37158687572145 167.4048757466177 281.13940434347586 267.82131901878716 C 262.9072218112302 368.2377622909566 302.512925361106 459.51597109081615 369.601219157484 471.69690459547337 Z" stroke-opacity="0.6980392156862745" stroke-linecap="round" stroke-linejoin="round" stroke-miterlimit="10" stroke-width="2.5"/><path fill="rgb(0,0,0)" stroke="none" paint-order="stroke fill markers" d=" M 427.5206701696422 150.76356826724748 L 427.764814977115 152.47766826971275 L 428.4997925746112 151.49854586474373 L 427.52067016964213 150.76356826724748 Z M 419.37015211231954 150.2736783798454 L 406.5000460008496 152.10680922064822 L 407.20509632423534 157.05685003275207 L 420.0752024357053 155.22371919194924 L 419.37015211231954 150.2736783798454 Z M 398.5799807014834 153.23488973806536 L 385.7098745900134 155.06802057886821 L 386.41492491339915 160.01806139097206 L 399.28503102486917 158.1849305501692 L 398.5799807014834 153.23488973806536 Z M 377.78980929064727 156.19610109628536 L 364.91970317917725 158.0292319370882 L 365.624753502563 162.97927274919206 L 378.49485961403303 161.1461419083892 L 377.78980929064727 156.19610109628536 Z M 356.9996378798111 159.15731245450533 L 344.12953176834105 160.99044329530818 L 344.8345820917268 165.94048410741203 L 357.70468820319684 164.10735326660918 L 356.9996378798111 159.15731245450533 Z M 336.20946646897494 162.11852381272533 L 323.3393603575049 163.95165465352818 L 324.0444106808907 168.90169546563203 L 336.9145167923607 167.06856462482918 L 336.20946646897494 162.11852381272533 Z M 315.4192950581388 165.07973517094533 L 302.5491889466688 166.91286601174815 L 303.25423927005454 171.862906823852 L 316.12434538152456 170.02977598304918 L 315.4192950581388 165.07973517094533 Z M 294.6291236473026 168.0409465291653 L 281.75901753583264 169.87407736996815 L 282.4640678592184 174.824118182072 L 295.33417397068837 172.99098734126915 L 294.6291236473026 168.0409465291653 Z M 273.83895223646647 171.0021578873853 L 260.96884612499645 172.83528872818815 L 261.6738964483822 177.785329540292 L 274.54400255985223 175.95219869948914 L 273.83895223646647 171.0021578873853 Z M 253.0487808256303 173.96336924560526 L 240.17867471416034 175.79650008640812 L 240.88372503754604 180.74654089851197 L 253.753831149016 178.91341005770911 L 253.0487808256303 173.96336924560526 Z M 232.25860941479417 176.92458060382526 L 219.38850330332417 178.75771144462811 L 220.09355362670988 183.70775225673196 L 232.96365973817987 181.8746214159291 L 232.25860941479417 176.92458060382526 Z M 211.46843800395803 179.88579196204523 L 198.598331892488 181.71892280284808 L 199.3033822158737 186.66896361495193 L 212.17348832734373 184.83583277414908 L 211.46843800395803 179.88579196204523 Z M 190.6782665931219 182.84700332026523 L 177.80816048165187 184.68013416106808 L 178.51321080503757 189.63017497317193 L 191.3833169165076 187.79704413236908 L 190.6782665931219 182.84700332026523 Z M 169.8880951822857 185.8082146784852 L 157.0179890708157 187.64134551928805 L 157.7230393942014 192.5913863313919 L 170.5931455056714 190.75825549058905 L 169.8880951822857 185.8082146784852 Z M 149.09792377144956 188.7694260367052 L 136.22781765997956 190.60255687750805 L 136.93286798336527 195.5525976896119 L 149.80297409483526 193.71946684880905 L 149.09792377144956 188.7694260367052 Z M 128.30775236061342 191.7306373949252 L 115.4376462491434 193.56376823572802 L 116.1426965725291 198.51380904783187 L 129.01280268399913 196.68067820702905 L 128.30775236061342 191.7306373949252 Z M 107.51758094977725 194.69184875314517 L 94.64747483830725 196.52497959394802 L 95.35252516169295 201.47502040605187 L 108.22263127316296 199.64188956524902 L 107.51758094977725 194.69184875314517 Z" fill-opacity="0.6980392156862745"/><path fill="rgb(0,0,0)" stroke="none" paint-order="stroke fill markers" d=" M 430.0006233549337 149.49916921967747 L 421.51064237749745 160.80935149065658 C 420.6817564254487 161.91357672089458 420.90496301200335 163.48067296399665 422.0091882422413 164.30955891604538 C 423.11341347247924 165.13844486809415 424.6805097155813 164.91523828153953 425.5093956676301 163.81101305130156 L 433.9993766450663 152.50083078032242 C 434.8282625971151 151.39660555008447 434.6050560105604 149.8295093069824 433.5008307803224 149.00062335493365 C 432.39660555008453 148.1717374028849 430.82950930698246 148.39494398943953 430.0006233549337 149.49916921967747 Z M 419.1889869486984 144.50939566762997 L 430.4991692196775 152.99937664506626 C 431.60339444991547 153.82826259711504 433.17049069301754 153.60505601056042 433.99937664506626 152.50083078032247 C 434.82826259711504 151.39660555008453 434.6050560105605 149.82950930698246 433.5008307803225 149.00062335493368 L 422.1906485093434 140.51064237749742 C 421.0864232791054 139.6817564254486 419.51932703600335 139.90496301200324 418.6904410839546 141.00918824224118 C 417.8615551319059 142.11341347247912 418.08476171846047 143.6805097155812 419.1889869486984 144.50939566762997 Z" fill-opacity="0.6980392156862745"/><path fill="rgb(0,0,0)" stroke="none" paint-order="stroke fill markers" d=" M 427.3094996154023 151.41245935660518 L 427.9591646946426 153.41714017254688 L 428.6366725629933 152.08996722495584 L 427.3094996154023 151.41245935660518 Z M 419.2532676971988 152.50288241783744 L 406.88646317929613 156.5106431412318 L 408.42790961137086 161.2671064173482 L 420.79471412927353 157.25934569395383 L 419.2532676971988 152.50288241783744 Z M 399.27612193750986 158.97695743255144 L 386.9093174196073 162.9847181559458 L 388.45076385168204 167.7411814320622 L 400.8175683695846 163.73342070866784 L 399.27612193750986 158.97695743255144 Z M 379.29897617782103 165.45103244726545 L 366.93217165991837 169.45879317065982 L 368.4736180919931 174.2152564467762 L 380.84042260989577 170.20749572338184 L 379.29897617782103 165.45103244726545 Z M 359.3218304181321 171.92510746197945 L 346.95502590022943 175.93286818537382 L 348.49647233230417 180.6893314614902 L 360.86327685020683 176.68157073809584 L 359.3218304181321 171.92510746197945 Z M 339.3446846584432 178.39918247669343 L 326.97788014054055 182.40694320008782 L 328.5193265726153 187.16340647620422 L 340.88613109051795 183.15564575280982 L 339.3446846584432 178.39918247669343 Z M 319.36753889875433 184.8732574914074 L 307.00073438085167 188.8810182148018 L 308.5421808129264 193.6374814909182 L 320.90898533082907 189.6297207675238 L 319.36753889875433 184.8732574914074 Z M 299.3903931390654 191.3473325061214 L 287.02358862116273 195.35509322951577 L 288.56503505323747 200.11155650563217 L 300.93183957114013 196.1037957822378 L 299.3903931390654 191.3473325061214 Z M 279.4132473793765 197.8214075208354 L 267.0464428614739 201.82916824422978 L 268.58788929354864 206.58563152034617 L 280.95469381145125 202.5778707969518 L 279.4132473793765 197.8214075208354 Z M 259.43610161968763 204.2954825355494 L 247.069297101785 208.30324325894378 L 248.61074353385973 213.05970653506017 L 260.97754805176237 209.0519458116658 L 259.43610161968763 204.2954825355494 Z M 239.45895585999872 210.7695575502634 L 227.0921513420961 214.77731827365776 L 228.63359777417082 219.53378154977415 L 241.00040229207346 215.52602082637978 L 239.45895585999872 210.7695575502634 Z M 219.48181010030981 217.2436325649774 L 207.1150055824072 221.25139328837176 L 208.65645201448194 226.00785656448815 L 221.02325653238455 222.00009584109378 L 219.48181010030981 217.2436325649774 Z M 199.50466434062093 223.71770757969136 L 187.1378598227183 227.72546830308576 L 188.67930625479303 232.48193157920215 L 201.04611077269567 228.47417085580776 L 199.50466434062093 223.71770757969136 Z M 179.52751858093205 230.19178259440537 L 167.1607140630294 234.19954331779974 L 168.70216049510412 238.95600659391613 L 181.0689650130068 234.94824587052176 L 179.52751858093205 230.19178259440537 Z M 159.55037282124317 236.66585760911937 L 147.1835683033405 240.67361833251374 L 148.72501473541524 245.43008160863013 L 161.0918192533179 241.42232088523576 L 159.55037282124317 236.66585760911937 Z M 139.57322706155426 243.13993262383335 L 127.2064225436516 247.14769334722772 L 128.74786897572636 251.9041566233441 L 141.114673493629 247.89639589994974 L 139.57322706155426 243.13993262383335 Z M 119.59608130186535 249.61400763854735 L 107.2292767839627 253.62176836194172 L 108.77072321603747 258.37823163805814 L 121.13752773394012 254.37047091466374 L 119.59608130186535 249.61400763854735 Z" fill-opacity="0.6980392156862745"/><path fill="rgb(0,0,0)" stroke="none" paint-order="stroke fill markers" d=" M 429.77335266901866 149.8633198939746 L 423.3433189809354 162.4591393103569 C 422.7155478929416 163.6888826745093 423.20354284173897 165.19469565936973 424.43328620589136 165.8224667473636 C 425.6630295700437 166.45023783535746 427.16884255490413 165.9622428865601 427.796613642898 164.7324995224077 L 434.2266473309813 152.13668010602535 C 434.8544184189751 150.90693674187295 434.3664234701777 149.40112375701258 433.1366801060253 148.7733526690187 C 431.906936741873 148.14558158102483 430.40112375701256 148.6335765298222 429.77335266901866 149.8633198939746 Z M 418.26750047759225 146.79661364289797 L 430.86331989397456 153.22664733098125 C 432.0930632581269 153.85441841897517 433.59887624298733 153.3664234701778 434.2266473309812 152.1366801060254 C 434.85441841897506 150.90693674187304 434.3664234701778 149.40112375701258 433.1366801060254 148.7733526690187 L 420.54086068964307 142.3433189809354 C 419.3111173254907 141.71554789294152 417.8053043406303 142.20354284173888 417.1775332526364 143.43328620589128 C 416.5497621646426 144.66302957004365 417.03775711343985 146.16884255490405 418.26750047759225 146.79661364289797 Z" fill-opacity="0.6980392156862745"/><path fill="rgb(0,0,0)" stroke="none" paint-order="stroke fill markers" d=" M 69.85005202165719 303.6489552193807 L 68.14994797834301 308.3510447806191 L 80.37538083756273 312.771315293236 L 82.07548488087691 308.0692257319976 L 69.85005202165719 303.6489552193807 Z M 89.5988281788583 310.7893922013003 L 87.89872413554411 315.4914817625387 L 100.12415699476384 319.9117522751556 L 101.82426103807802 315.2096627139172 L 89.5988281788583 310.7893922013003 Z M 109.34760433605939 317.9298291832199 L 107.6475002927452 322.6319187444583 L 119.87293315196493 327.0521892570752 L 121.57303719527911 322.35009969583683 L 109.34760433605939 317.9298291832199 Z M 129.09638049326048 325.07026616513957 L 127.3962764499463 329.77235572637795 L 139.62170930916605 334.1926262389948 L 141.32181335248023 329.49053667775644 L 129.09638049326048 325.07026616513957 Z M 148.84515665046158 332.2107031470592 L 147.1450526071474 336.91279270829756 L 159.37048546636711 341.3330632209145 L 161.0705895096813 336.6309736596761 L 148.84515665046158 332.2107031470592 Z M 168.5939328076627 339.3511401289788 L 166.8938287643485 344.05322969021717 L 179.11926162356824 348.4735002028341 L 180.81936566688242 343.7714106415957 L 168.5939328076627 339.3511401289788 Z M 188.3427089648638 346.4915771108984 L 186.6426049215496 351.19366667213677 L 198.86803778076936 355.6139371847537 L 200.56814182408354 350.9118476235153 L 188.3427089648638 346.4915771108984 Z M 208.09148512206488 353.63201409281805 L 206.3913810787507 358.33410365405643 L 218.61681393797042 362.7543741666733 L 220.3169179812846 358.0522846054349 L 208.09148512206488 353.63201409281805 Z M 227.840261279266 360.77245107473766 L 226.14015723595182 365.47454063597604 L 238.36559009517154 369.8948111485929 L 240.06569413848572 365.1927215873545 L 227.840261279266 360.77245107473766 Z M 247.58903743646707 367.91288805665727 L 245.88893339315288 372.61497761789565 L 258.1143662523726 377.0352481305125 L 259.8144702956868 372.33315856927413 L 247.58903743646707 367.91288805665727 Z M 267.3378135936682 375.0533250385769 L 265.637709550354 379.75541459981525 L 277.8631424095737 384.1756851124322 L 279.56324645288794 379.4735955511938 L 267.3378135936682 375.0533250385769 Z M 287.08658975086934 382.1937620204965 L 285.3864857075551 386.89585158173486 L 297.61191856677476 391.3161220943518 L 299.312022610089 386.6140325331134 L 287.08658975086934 382.1937620204965 Z M 306.8353659080704 389.33419900241614 L 305.13526186475616 394.0362885636545 L 317.3606947239759 398.4565590762714 L 319.0607987672901 393.754469515033 L 306.8353659080704 389.33419900241614 Z M 326.5841420652715 396.47463598433575 L 324.8840380219573 401.17672554557413 L 337.109470881177 405.59699605819105 L 338.80957492449124 400.8949064969527 L 326.5841420652715 396.47463598433575 Z M 346.33291822247264 403.61507296625535 L 344.6328141791584 408.31716252749374 L 356.8582470383781 412.73743304011066 L 358.55835108169236 408.0353434788723 L 346.33291822247264 403.61507296625535 Z M 366.08169437967376 410.75550994817496 L 364.3815903363595 415.45759950941334 L 369.4740237832256 417.29883766121185 L 369.4740237832255 417.29883766121185 L 372.67512058550165 415.79784490224984 L 372.67512058550193 415.79784490224984 L 371.1741278265398 412.59674809997347 L 371.17412782653986 412.59674809997347 L 366.08169437967376 410.75550994817496 Z" fill-opacity="0.6980392156862745"/><path fill="rgb(0,0,0)" stroke="none" paint-order="stroke fill markers" d=" M 374.938637841626 414.73648274387574 L 362.1342506325209 420.740453779724 C 360.88414457098474 421.32662791384155 360.3459214006533 422.815227132686 360.9320955347707 424.06533319422215 C 361.51826966888814 425.3154392557583 363.0068688877327 425.8536624260897 364.25697494926885 425.2674882919723 L 377.061362158374 419.26351725612403 C 378.3114682199102 418.6773431220065 378.84969139024156 417.18874390316205 378.26351725612415 415.9386378416259 C 377.67734312200673 414.68853178008965 376.18874390316216 414.1503086097582 374.938637841626 414.73648274387574 Z M 367.7325117080276 405.25697494926874 L 373.73648274387585 418.06136215837387 C 374.32265687799327 419.31146821991 375.81125609683784 419.84969139024145 377.061362158374 419.26351725612403 C 378.3114682199102 418.6773431220065 378.84969139024156 417.18874390316205 378.26351725612415 415.9386378416259 L 372.2595462202758 403.1342506325208 C 371.67337208615834 401.8841445709846 370.1847728673138 401.34592140065314 368.9346668057777 401.9320955347706 C 367.6845607442415 402.518269668888 367.14633757391005 404.0068688877326 367.7325117080276 405.25697494926874 Z" fill-opacity="0.6980392156862745"/><path fill="rgb(0,0,0)" stroke="none" paint-order="stroke fill markers" d=" M 379.5281267240024 313.109760802316 L 371.78553285721017 315.13634577416093 L 373.0516064792095 319.9733962787223 L 380.79420034600196 317.9468113068773 L 380.79420034600173 317.9468113068773 L 382.57968878728275 314.895249243597 L 382.57968878728263 314.895249243597 L 379.5281267240024 313.109760802316 Z M 364.04625204991197 317.1620635693598 L 351.46992073805234 320.45385498655793 L 352.7359943600517 325.2909054911193 L 365.3123256719113 321.9991140739212 L 364.04625204991197 317.1620635693598 Z M 343.7306399307541 322.4795727817568 L 331.15430861889445 325.771364198955 L 332.4203822408938 330.60841470351636 L 344.9967135527534 327.3166232863182 L 343.7306399307541 322.4795727817568 Z M 323.41502781159625 327.7970819941538 L 310.83869649973667 331.088873411352 L 312.104770121736 335.92592391591336 L 324.6811014335956 332.6341324987152 L 323.41502781159625 327.7970819941538 Z M 303.0994156924384 333.1145912065508 L 290.52308438057884 336.406382623749 L 291.7891580025782 341.24343312831036 L 304.36548931443775 337.9516417111122 L 303.0994156924384 333.1145912065508 Z M 282.7838035732806 338.43210041894787 L 270.20747226142095 341.72389183614604 L 271.4735458834203 346.5609423407074 L 284.0498771952799 343.26915092350924 L 282.7838035732806 338.43210041894787 Z M 262.46819145412275 343.74960963134487 L 249.89186014226314 347.04140104854304 L 251.15793376426242 351.8784515531044 L 263.7342650761221 348.58666013590624 L 262.46819145412275 343.74960963134487 Z M 242.15257933496494 349.0671188437419 L 229.5762480231053 352.35891026094004 L 230.8423216451046 357.1959607655014 L 243.41865295696422 353.9041693483033 L 242.15257933496494 349.0671188437419 Z M 221.8369672158071 354.3846280561389 L 209.26063590394747 357.6764194733371 L 210.52670952594676 362.51346997789847 L 223.1030408378064 359.2216785607003 L 221.8369672158071 354.3846280561389 Z M 201.52135509664927 359.7021372685359 L 188.94502378478964 362.9939286857341 L 190.21109740678892 367.83097919029547 L 202.78742871864856 364.5391877730973 L 201.52135509664927 359.7021372685359 Z M 181.20574297749144 365.019646480933 L 168.6294116656318 368.31143789813115 L 169.8954852876311 373.1484884026925 L 182.47181659949072 369.85669698549435 L 181.20574297749144 365.019646480933 Z M 160.89013085833358 370.33715569333 L 148.31379954647397 373.62894711052815 L 149.57987316847326 378.4659976150895 L 162.15620448033286 375.17420619789135 L 160.89013085833358 370.33715569333 Z M 140.57451873917574 375.65466490572703 L 127.99818742731614 378.94645632292514 L 129.26426104931542 383.7835068274865 L 141.84059236117503 380.4917154102884 L 140.57451873917574 375.65466490572703 Z M 120.25890662001791 380.97217411812403 L 107.68257530815829 384.2639655353222 L 108.94864893015757 389.1010160398836 L 121.5249802420172 385.8092246226854 L 120.25890662001791 380.97217411812403 Z M 99.94329450086008 386.28968333052103 L 87.36696318900046 389.5814747477192 L 88.63303681099974 394.4185252522806 L 101.20936812285936 391.1267338350824 L 99.94329450086008 386.28968333052103 Z" fill-opacity="0.6980392156862745"/><path fill="rgb(0,0,0)" stroke="none" paint-order="stroke fill markers" d=" M 383.8422197718428 312.73746901543984 L 376.7002660067186 324.9437172685612 C 376.00298939775723 326.13542638205877 376.40380613681816 327.6667518723171 377.59551525031577 328.3640284812784 C 378.78722436381327 329.0613050902398 380.31854985407153 328.6604883511789 381.0158264630329 327.4687792376813 L 388.1577802281571 315.26253098456 C 388.85505683711847 314.0708218710624 388.4542400980576 312.5394963808041 387.26253098456 311.84221977184274 C 386.07082187106244 311.1449431628814 384.53949638080417 311.5457599019423 383.8422197718428 312.73746901543984 Z M 372.5312207623186 309.01582646303285 L 384.7374690154399 316.1577802281571 C 385.9291781289375 316.8550568371184 387.4605036191958 316.45424009805754 388.1577802281571 315.26253098456 C 388.85505683711847 314.0708218710624 388.4542400980576 312.5394963808041 387.26253098456 311.84221977184274 L 375.05628273143867 304.70026600671855 C 373.86457361794106 304.00298939775723 372.3332481276828 304.4038061368181 371.6359715187215 305.59551525031566 C 370.9386949097601 306.7872243638132 371.339511648821 308.31854985407153 372.5312207623186 309.01582646303285 Z" fill-opacity="0.6980392156862745"/><path fill="none" stroke="rgb(77,77,255)" paint-order="fill stroke markers" d=" M 90.0000000000001 193.99999999999994 L 100.0000000000001 203.99999999999994" stroke-opacity="1" stroke-linecap="square" stroke-miterlimit="10" stroke-width="2.5"/><path fill="none" stroke="rgb(77,77,255)" paint-order="fill stroke markers" d=" M 90.0000000000001 203.99999999999994 L 100.0000000000001 193.99999999999994" stroke-opacity="1" stroke-linecap="square" stroke-miterlimit="10" stroke-width="2.5"/><path fill="none" stroke="rgb(77,77,255)" paint-order="fill stroke markers" d=" M 103.00000000000009 250.99999999999991 L 113.00000000000009 260.9999999999999" stroke-opacity="1" stroke-linecap="square" stroke-miterlimit="10" stroke-width="2.5"/><path fill="none" stroke="rgb(77,77,255)" paint-order="fill stroke markers" d=" M 103.00000000000009 260.9999999999999 L 113.00000000000009 250.99999999999991" stroke-opacity="1" stroke-linecap="square" stroke-miterlimit="10" stroke-width="2.5"/><path fill="none" stroke="rgb(77,77,255)" paint-order="fill stroke markers" d=" M 83.0000000000001 386.9999999999999 L 93.0000000000001 396.9999999999999" stroke-opacity="1" stroke-linecap="square" stroke-miterlimit="10" stroke-width="2.5"/><path fill="none" stroke="rgb(77,77,255)" paint-order="fill stroke markers" d=" M 83.0000000000001 396.9999999999999 L 93.0000000000001 386.9999999999999" stroke-opacity="1" stroke-linecap="square" stroke-miterlimit="10" stroke-width="2.5"/><path fill="none" stroke="rgb(77,77,255)" paint-order="fill stroke markers" d=" M 64.0000000000001 300.9999999999999 L 74.0000000000001 310.9999999999999" stroke-opacity="1" stroke-linecap="square" stroke-miterlimit="10" stroke-width="2.5"/><path fill="none" stroke="rgb(77,77,255)" paint-order="fill stroke markers" d=" M 64.0000000000001 310.9999999999999 L 74.0000000000001 300.9999999999999" stroke-opacity="1" stroke-linecap="square" stroke-miterlimit="10" stroke-width="2.5"/><path fill="none" stroke="rgb(77,77,255)" paint-order="fill stroke markers" d=" M 427 145.99999999999997 L 437 155.99999999999997" stroke-opacity="1" stroke-linecap="square" stroke-miterlimit="10" stroke-width="2.5"/><path fill="none" stroke="rgb(77,77,255)" paint-order="fill stroke markers" d=" M 427 155.99999999999997 L 437 145.99999999999997" stroke-opacity="1" stroke-linecap="square" stroke-miterlimit="10" stroke-width="2.5"/><path fill="none" stroke="rgb(77,77,255)" paint-order="fill stroke markers" d=" M 360 213.99999999999994 L 370 223.99999999999994" stroke-opacity="1" stroke-linecap="square" stroke-miterlimit="10" stroke-width="2.5"/><path fill="none" stroke="rgb(77,77,255)" paint-order="fill stroke markers" d=" M 360 223.99999999999994 L 370 213.99999999999994" stroke-opacity="1" stroke-linecap="square" stroke-miterlimit="10" stroke-width="2.5"/><path fill="none" stroke="rgb(77,77,255)" paint-order="fill stroke markers" d=" M 381 308.9999999999999 L 391 318.9999999999999" stroke-opacity="1" stroke-linecap="square" stroke-miterlimit="10" stroke-width="2.5"/><path fill="none" stroke="rgb(77,77,255)" paint-order="fill stroke markers" d=" M 381 318.9999999999999 L 391 308.9999999999999" stroke-opacity="1" stroke-linecap="square" stroke-miterlimit="10" stroke-width="2.5"/><path fill="none" stroke="rgb(77,77,255)" paint-order="fill stroke markers" d=" M 371 411.9999999999999 L 381 421.9999999999999" stroke-opacity="1" stroke-linecap="square" stroke-miterlimit="10" stroke-width="2.5"/><path fill="none" stroke="rgb(77,77,255)" paint-order="fill stroke markers" d=" M 371 421.9999999999999 L 381 411.9999999999999" stroke-opacity="1" stroke-linecap="square" stroke-miterlimit="10" stroke-width="2.5"/><path fill="none" stroke="rgb(77,77,255)" paint-order="fill stroke markers" d=" M 453 242.99999999999991 L 463 252.99999999999991" stroke-opacity="1" stroke-linecap="square" stroke-miterlimit="10" stroke-width="2.5"/><path fill="none" stroke="rgb(77,77,255)" paint-order="fill stroke markers" d=" M 453 252.99999999999991 L 463 242.99999999999991" stroke-opacity="1" stroke-linecap="square" stroke-miterlimit="10" stroke-width="2.5"/><path fill="none" stroke="rgb(77,77,255)" paint-order="fill stroke markers" d=" M 453 357.9999999999999 L 463 367.9999999999999" stroke-opacity="1" stroke-linecap="square" stroke-miterlimit="10" stroke-width="2.5"/><path fill="none" stroke="rgb(77,77,255)" paint-order="fill stroke markers" d=" M 453 367.9999999999999 L 463 357.9999999999999" stroke-opacity="1" stroke-linecap="square" stroke-miterlimit="10" stroke-width="2.5"/><g transform="scale(51,51)"><g transform="translate(1.7450980392156863,1.5653529411764706)"><path fill="rgb(0,0,0)" stroke="none" paint-order="stroke fill markers" d=" M 0.708 -0.233 L 0.708 -0.233 L 0.616 -0.017 Q 0.61 -0.003 0.602 -0.001 L 0.602 -0.001 L 0.601 -0.001 Q 0.597 0 0.585 0 L 0.066 0 Q 0.041 0 0.039 -0.008 Q 0.038 -0.009000000000000001 0.038 -0.012 Q 0.038 -0.029 0.054 -0.031 L 0.066 -0.031 Q 0.131 -0.031 0.14400000000000002 -0.045 Q 0.15 -0.052000000000000005 0.156 -0.073 Q 0.156 -0.074 0.157 -0.078 L 0.289 -0.607 Q 0.294 -0.625 0.294 -0.631 Q 0.294 -0.648 0.248 -0.649 L 0.247 -0.649 L 0.229 -0.649 Q 0.203 -0.649 0.201 -0.66 Q 0.201 -0.678 0.217 -0.68 L 0.231 -0.68 L 0.736 -0.68 Q 0.76 -0.68 0.762 -0.673 L 0.763 -0.673 Q 0.765 -0.667 0.763 -0.653 L 0.743 -0.48 Q 0.736 -0.457 0.729 -0.455 Q 0.717 -0.455 0.717 -0.467 L 0.718 -0.484 L 0.718 -0.485 Q 0.722 -0.512 0.722 -0.538 Q 0.722 -0.608 0.683 -0.63 Q 0.65 -0.649 0.5700000000000001 -0.649 L 0.429 -0.649 Q 0.392 -0.649 0.385 -0.638 L 0.384 -0.638 L 0.384 -0.637 Q 0.381 -0.633 0.379 -0.625 L 0.379 -0.624 L 0.378 -0.623 Q 0.377 -0.619 0.375 -0.61 L 0.315 -0.369 L 0.40900000000000003 -0.369 Q 0.485 -0.369 0.51 -0.399 Q 0.526 -0.418 0.54 -0.468 Q 0.544 -0.485 0.554 -0.486 Q 0.5660000000000001 -0.486 0.5660000000000001 -0.47500000000000003 L 0.509 -0.241 Q 0.504 -0.222 0.494 -0.221 Q 0.481 -0.221 0.481 -0.232 Q 0.481 -0.23600000000000002 0.484 -0.243 Q 0.491 -0.273 0.491 -0.292 Q 0.491 -0.319 0.47600000000000003 -0.327 Q 0.457 -0.338 0.406 -0.338 L 0.307 -0.338 L 0.23900000000000002 -0.065 Q 0.234 -0.047 0.234 -0.042 Q 0.234 -0.034 0.243 -0.032 L 0.243 -0.032 L 0.243 -0.032 L 0.247 -0.032 Q 0.253 -0.031 0.269 -0.031 L 0.41500000000000004 -0.031 Q 0.537 -0.031 0.595 -0.08700000000000001 Q 0.633 -0.123 0.678 -0.222 Q 0.682 -0.233 0.6880000000000001 -0.246 Q 0.6920000000000001 -0.258 0.7010000000000001 -0.258 Q 0.713 -0.258 0.713 -0.247 Q 0.713 -0.246 0.708 -0.233 Z"/></g></g><g transform="scale(51,51)"><g transform="translate(7.921568627450981,1.6437843137254902)"><path fill="rgb(0,0,0)" stroke="none" paint-order="stroke fill markers" d=" M 0.303 -0.325 L 0.241 -0.076 Q 0.23700000000000002 -0.061 0.23700000000000002 -0.053 Q 0.23700000000000002 -0.039 0.25 -0.036000000000000004 Q 0.257 -0.034 0.269 -0.033 Q 0.294 -0.031 0.321 -0.031 Q 0.34600000000000003 -0.031 0.34900000000000003 -0.03 L 0.354 -0.023 Q 0.355 -0.021 0.355 -0.019 Q 0.355 0 0.334 0 L 0.186 -0.003 L 0.185 -0.003 L 0.054 0 L 0.053 0 Q 0.038 0 0.038 -0.012 Q 0.038 -0.029 0.054 -0.031 L 0.066 -0.031 Q 0.131 -0.031 0.14400000000000002 -0.045 Q 0.15 -0.052000000000000005 0.156 -0.073 Q 0.156 -0.074 0.157 -0.078 L 0.289 -0.607 Q 0.294 -0.625 0.294 -0.631 Q 0.294 -0.648 0.248 -0.649 L 0.247 -0.649 L 0.229 -0.649 Q 0.203 -0.649 0.201 -0.66 Q 0.201 -0.678 0.217 -0.68 L 0.231 -0.68 L 0.721 -0.68 Q 0.745 -0.68 0.747 -0.673 L 0.748 -0.673 Q 0.75 -0.667 0.748 -0.653 L 0.728 -0.48 Q 0.721 -0.457 0.714 -0.455 Q 0.7020000000000001 -0.455 0.7020000000000001 -0.467 Q 0.7020000000000001 -0.47200000000000003 0.704 -0.485 Q 0.707 -0.512 0.707 -0.539 Q 0.707 -0.606 0.673 -0.628 L 0.672 -0.629 Q 0.64 -0.649 0.561 -0.649 L 0.429 -0.649 Q 0.392 -0.649 0.385 -0.638 L 0.384 -0.638 L 0.384 -0.637 Q 0.381 -0.633 0.379 -0.625 L 0.379 -0.624 L 0.378 -0.623 Q 0.377 -0.619 0.375 -0.61 L 0.311 -0.356 L 0.402 -0.356 Q 0.47500000000000003 -0.356 0.5 -0.383 L 0.501 -0.384 Q 0.518 -0.403 0.531 -0.452 Q 0.536 -0.47100000000000003 0.546 -0.47300000000000003 Q 0.557 -0.47300000000000003 0.558 -0.462 Q 0.558 -0.457 0.555 -0.446 L 0.5 -0.229 Q 0.49 -0.209 0.485 -0.20800000000000002 Q 0.47300000000000003 -0.20800000000000002 0.47300000000000003 -0.22 Q 0.47300000000000003 -0.224 0.47600000000000003 -0.231 Q 0.483 -0.261 0.483 -0.28 Q 0.483 -0.309 0.461 -0.318 L 0.461 -0.318 Q 0.442 -0.325 0.4 -0.325 L 0.303 -0.325 Z"/></g></g></g></g></svg>