<svg version="1.1" xmlns="http://www.w3.org/2000/svg" xmlns:xlink="http://www.w3.org/1999/xlink" width="550" height="461"><defs><clipPath id="OoCegootbonR"><path fill="none" stroke="none" d=" M 0 0 L 550 0 L 550 461 L 0 461 L 0 0 Z"/></clipPath></defs><g transform="scale(1,1)" clip-path="url(#OoCegootbonR)"><g><rect fill="rgb(255,255,255)" stroke="none" x="0" y="0" width="550" height="461" fill-opacity="1"/><path fill="none" stroke="rgb(0,0,0)" paint-order="fill stroke markers" d=" M 61.51888971067011 452.8435190721868 C 103.07117451053495 459.1307610537316 149.79169239888762 378.07460349984524 165.87208712955498 271.7995239809934 C 181.95248186022235 165.5244444621415 161.30343508117 74.27465357869445 119.75115028130516 67.98741159714967 C 78.19886548144032 61.70016961560489 31.478347593087676 142.75632716949116 15.397952862420297 249.03140668834305 C -0.6824418682470679 355.3064862071949 19.96660491080526 446.55627709064197 61.51888971067011 452.8435190721868 Z" stroke-opacity="0.6980392156862745" stroke-linecap="round" stroke-linejoin="round" stroke-miterlimit="10" stroke-width="2.5"/><path fill="none" stroke="rgb(0,0,0)" paint-order="fill stroke markers" d=" M 376.60121915748437 431.6969045954737 C 443.6895129538624 443.8778381001307 512.8554249507604 372.3488245949189 531.0876074830056 271.9323813227494 C 549.3197900152509 171.5159380505799 509.71408646537486 80.23772925072043 442.62579266899684 68.05679574606344 C 375.5374988726188 55.87586224140645 306.3715868757209 127.40487574661825 288.13940434347563 227.82131901878776 C 269.9072218112304 328.2377622909572 309.51292536110634 419.5159710908167 376.60121915748437 431.6969045954737 Z" stroke-opacity="0.6980392156862745" stroke-linecap="round" stroke-linejoin="round" stroke-miterlimit="10" stroke-width="2.5"/><path fill="rgb(0,0,0)" stroke="none" paint-order="stroke fill markers" d=" M 410.7400281890937 106.13173276635105 L 400.085073803612 107.22951594546129 L 400.5975126670079 112.20318726665667 L 411.2524670524898 111.10540408754642 L 411.2524670524897 111.10540408754642 L 413.29450023639686 108.59425517220112 L 413.2511771044391 108.17376595025823 L 410.7400281890938 106.13173276635105 Z M 392.1271996896994 108.04941812689471 L 379.1956542545914 109.38175917172403 L 379.7080931179873 114.35543049291941 L 392.6396385530953 113.02308944809009 L 392.1271996896994 108.04941812689471 Z M 371.23778014067875 110.20166135315745 L 358.3062347055707 111.53400239798675 L 358.81867356896663 116.50767371918214 L 371.75021900407467 115.17533267435283 L 371.23778014067875 110.20166135315745 Z M 350.34836059165804 112.35390457942019 L 337.41681515655006 113.68624562424951 L 337.929254019946 118.65991694544489 L 350.86079945505395 117.32757590061557 L 350.34836059165804 112.35390457942019 Z M 329.45894104263743 114.50614780568291 L 316.5273956075294 115.83848885051223 L 317.0398344709253 120.81216017170762 L 329.97137990603335 119.4798191268783 L 329.45894104263743 114.50614780568291 Z M 308.5695214936167 116.65839103194565 L 295.63797605850874 117.99073207677498 L 296.15041492190466 122.96440339797036 L 309.08196035701263 121.63206235314104 L 308.5695214936167 116.65839103194565 Z M 287.6801019445961 118.8106342582084 L 274.7485565094881 120.1429753030377 L 275.260995372884 125.11664662423308 L 288.19254080799203 123.78430557940378 L 287.6801019445961 118.8106342582084 Z M 266.79068239557546 120.96287748447114 L 253.85913696046745 122.29521852930044 L 254.37157582386337 127.26888985049582 L 267.3031212589714 125.93654880566652 L 266.79068239557546 120.96287748447114 Z M 245.9012628465548 123.11512071073388 L 232.9697174114468 124.44746175556318 L 233.4821562748427 129.42113307675857 L 246.41370170995071 128.08879203192927 L 245.9012628465548 123.11512071073388 Z M 225.01184329753414 125.2673639369966 L 212.0802978624261 126.59970498182592 L 212.59273672582202 131.57337630302132 L 225.52428216093006 130.241035258192 L 225.01184329753414 125.2673639369966 Z M 204.12242374851348 127.41960716325933 L 191.19087831340548 128.75194820808863 L 191.7033171768014 133.72561952928405 L 204.6348626119094 132.39327848445473 L 204.12242374851348 127.41960716325933 Z M 183.23300419949285 129.57185038952207 L 170.30145876438485 130.9041914343514 L 170.81389762778076 135.8778627555468 L 183.74544306288877 134.54552171071748 L 183.23300419949285 129.57185038952207 Z M 162.3435846504722 131.7240936157848 L 149.41203921536416 133.05643466061412 L 149.92447807876007 138.03010598180953 L 162.8560235138681 136.6977649369802 L 162.3435846504722 131.7240936157848 Z M 141.45416510145154 133.87633684204755 L 128.52261966634353 135.20867788687684 L 129.03505852973944 140.18234920807225 L 141.96660396484745 138.85000816324296 L 141.45416510145154 133.87633684204755 Z M 120.56474555243089 136.02858006831028 L 107.63320011732289 137.3609211131396 L 108.14563898071877 142.334592434335 L 121.07718441582678 141.0022513895057 L 120.56474555243089 136.02858006831028 Z M 99.67532600341025 138.180823294573 L 86.74378056830223 139.51316433940232 L 87.25621943169811 144.48683566059773 L 100.18776486680613 143.1544946157684 L 99.67532600341025 138.180823294573 Z" fill-opacity="0.6980392156862745"/><path fill="rgb(0,0,0)" stroke="none" paint-order="stroke fill markers" d=" M 415.0603671430692 106.42271613832025 L 406.13790222747025 117.39493650750282 C 405.2667924045103 118.4661661546563 405.4290215755675 120.04074340315319 406.500251222721 120.91185322611315 C 407.5714808698744 121.78296304907312 409.14605811837134 121.62073387801586 410.0171679413313 120.54950423086238 L 418.9396328569303 109.57728386167982 C 419.81074267989027 108.50605421452633 419.648513508833 106.93147696602944 418.5772838616795 106.06036714306948 C 417.5060542145261 105.1892573201095 415.93147696602915 105.35148649116678 415.0603671430692 106.42271613832025 Z M 404.45049576913743 101.01716794133156 L 415.42271613831997 109.93963285693057 C 416.49394578547344 110.81074267989054 418.0685230339704 110.64851350883329 418.9396328569303 109.57728386167983 C 419.81074267989027 108.50605421452636 419.648513508833 106.93147696602946 418.5772838616795 106.0603671430695 L 407.605063492497 97.13790222747048 C 406.5338338453435 96.26679240451051 404.95925659684656 96.42902157556777 404.08814677388665 97.50025122272123 C 403.2170369509267 98.5714808698747 403.37926612198396 100.1460581183716 404.45049576913743 101.01716794133156 Z" fill-opacity="0.6980392156862745"/><path fill="rgb(0,0,0)" stroke="none" paint-order="stroke fill markers" d=" M 96.0846971141646 266.5014351321504 L 95.9153028858358 271.4985648678496 L 108.90784019865364 271.93898986150447 L 109.07723442698244 266.94186012580525 L 96.0846971141646 266.5014351321504 Z M 117.07264200410113 267.2128908911313 L 116.90324777577233 272.2100206268305 L 129.8957850885902 272.65044562048536 L 130.06517931691897 267.65331588478614 L 117.07264200410113 267.2128908911313 Z M 138.06058689403764 267.92434665011217 L 137.89119266570887 272.9214763858114 L 150.88372997852673 273.36190137946625 L 151.0531242068555 268.364771643767 L 138.06058689403764 267.92434665011217 Z M 159.04853178397417 268.6358024090931 L 158.8791375556454 273.63293214479233 L 171.87167486846323 274.07335713844714 L 172.041069096792 269.0762274027479 L 159.04853178397417 268.6358024090931 Z M 180.0364766739107 269.347258168074 L 179.86708244558193 274.3443879037732 L 192.8596197583998 274.784812897428 L 193.02901398672856 269.7876831617288 L 180.0364766739107 269.347258168074 Z M 201.02442156384723 270.0587139270549 L 200.85502733551846 275.0558436627541 L 213.8475646483363 275.496268656409 L 214.01695887666506 270.49913892070975 L 201.02442156384723 270.0587139270549 Z M 222.01236645378376 270.7701696860358 L 221.842972225455 275.767299421735 L 234.83550953827285 276.20772441538986 L 235.00490376660161 271.21059467969064 L 222.01236645378376 270.7701696860358 Z M 243.00031134372028 271.4816254450167 L 242.83091711539151 276.4787551807159 L 255.82345442820937 276.91918017437075 L 255.99284865653814 271.92205043867153 L 243.00031134372028 271.4816254450167 Z M 263.98825623365684 272.1930812039976 L 263.81886200532807 277.19021093969684 L 276.8113993181459 277.63063593335164 L 276.9807935464747 272.6335061976524 L 263.98825623365684 272.1930812039976 Z M 284.97620112359334 272.9045369629785 L 284.8068068952646 277.90166669867773 L 297.7993442080824 278.34209169233253 L 297.9687384364112 273.3449619566333 L 284.97620112359334 272.9045369629785 Z M 305.96414601352984 273.6159927219594 L 305.7947517852011 278.6131224576586 L 318.78728909801896 279.0535474513135 L 318.95668332634773 274.05641771561426 L 305.96414601352984 273.6159927219594 Z M 326.9520909034664 274.3274484809403 L 326.78269667513763 279.3245782166395 L 339.77523398795546 279.76500321029437 L 339.94462821628423 274.76787347459515 L 326.9520909034664 274.3274484809403 Z M 347.94003579340296 275.0389042399212 L 347.7706415650742 280.0360339756204 L 360.763178877892 280.47645896927526 L 360.9325731062208 275.47932923357604 L 347.94003579340296 275.0389042399212 Z M 368.9279806833394 275.75035999890207 L 368.75858645501063 280.7474897346013 L 381.7511237678286 281.18791472825615 L 381.92051799615734 276.1907849925569 L 368.9279806833394 275.75035999890207 Z" fill-opacity="0.6980392156862745"/><path fill="rgb(0,0,0)" stroke="none" paint-order="stroke fill markers" d=" M 389.29313774248135 277.1733579349365 L 378.9600898144255 286.82882894967724 C 377.95126325849145 287.77150294456635 377.89763601199115 289.3535067163251 378.8403100068803 290.3623332722591 C 379.7829840017695 291.3711598281931 381.36498777352824 291.42478707469337 382.37381432946216 290.48211307980426 L 392.7068622575181 280.8266420650635 C 393.71568881345206 279.8839680701744 393.76931605995236 278.3019642984156 392.8266420650632 277.29313774248163 C 391.8839680701741 276.28431118654765 390.3019642984153 276.23068394004736 389.29313774248135 277.1733579349365 Z M 379.51788692019545 270.3738143294624 L 389.17335793493623 280.70686225751837 C 390.11603192982534 281.7156888134523 391.6980357015841 281.7693160599526 392.7068622575181 280.8266420650635 C 393.71568881345206 279.8839680701744 393.76931605995236 278.3019642984156 392.8266420650632 277.29313774248163 L 383.17117105032247 266.9600898144257 C 382.22849705543337 265.95126325849174 380.6464932836746 265.89763601199144 379.6376667277406 266.84031000688054 C 378.6288401718066 267.78298400176965 378.5752129253063 269.3649877735284 379.51788692019545 270.3738143294624 Z" fill-opacity="0.6980392156862745"/><path fill="rgb(0,0,0)" stroke="none" paint-order="stroke fill markers" d=" M 450.78643120949 325.9827661476 L 449.7610217340155 326.0637195272427 L 450.1545341611156 331.04821027051 L 451.1799436365908 330.96725689086725 L 451.1799436365901 330.96725689086725 L 453.4754327946737 328.2782553056836 L 450.78643120949 325.9827661476 Z M 441.7858365447878 326.6933394106028 L 428.8261606122927 327.71647172106293 L 429.2196730393928 332.70096246433025 L 442.17934897188786 331.6778301538701 L 441.7858365447878 326.6933394106028 Z M 420.85097542306494 328.346091604423 L 407.89129949056985 329.36922391488315 L 408.2848119176699 334.35371465815047 L 421.244487850165 333.3305823476903 L 420.85097542306494 328.346091604423 Z M 399.91611430134213 329.99884379824323 L 386.956438368847 331.02197610870337 L 387.34995079594705 336.0064668519707 L 400.3096267284422 334.98333454151054 L 399.91611430134213 329.99884379824323 Z M 378.9812531796193 331.6515959920635 L 366.0215772471242 332.67472830252365 L 366.41508967422425 337.65921904579096 L 379.37476560671934 336.6360867353308 L 378.9812531796193 331.6515959920635 Z M 358.04639205789647 333.3043481858837 L 345.0867161254013 334.32748049634387 L 345.4802285525014 339.3119712396112 L 358.43990448499653 338.28883892915104 L 358.04639205789647 333.3043481858837 Z M 337.1115309361736 334.95710037970395 L 324.1518550036785 335.9802326901641 L 324.5453674307786 340.9647234334314 L 337.50504336327367 339.94159112297126 L 337.1115309361736 334.95710037970395 Z M 316.17666981445075 336.60985257352417 L 303.2169938819557 337.6329848839843 L 303.6105063090558 342.6174756272516 L 316.5701822415508 341.5943433167915 L 316.17666981445075 336.60985257352417 Z M 295.24180869272794 338.2626047673444 L 282.28213276023286 339.2857370778045 L 282.6756451873329 344.27022782107184 L 295.635321119828 343.2470955106117 L 295.24180869272794 338.2626047673444 Z M 274.3069475710051 339.9153569611646 L 261.34727163851 340.93848927162475 L 261.74078406561006 345.92298001489206 L 274.70045999810515 344.8998477044319 L 274.3069475710051 339.9153569611646 Z M 253.37208644928228 341.5681091549848 L 240.4124105167872 342.59124146544497 L 240.80592294388725 347.5757322087123 L 253.76559887638234 346.55259989825214 L 253.37208644928228 341.5681091549848 Z M 232.43722532755942 343.22086134880504 L 219.47754939506433 344.2439936592652 L 219.8710618221644 349.2284844025325 L 232.83073775465948 348.20535209207236 L 232.43722532755942 343.22086134880504 Z M 211.50236420583659 344.8736135426253 L 198.5426882733415 345.89674585308546 L 198.93620070044156 350.8812365963528 L 211.89587663293665 349.85810428589264 L 211.50236420583659 344.8736135426253 Z M 190.56750308411375 346.52636573644554 L 177.60782715161866 347.5494980469057 L 178.00133957871873 352.533988790173 L 190.96101551121382 351.51085647971286 L 190.56750308411375 346.52636573644554 Z M 169.63264196239092 348.17911793026576 L 156.67296602989583 349.2022502407259 L 157.0664784569959 354.1867409839932 L 170.02615438949098 353.1636086735331 L 169.63264196239092 348.17911793026576 Z M 148.6977808406681 349.831870124086 L 135.738104908173 350.8550024345461 L 136.13161733527306 355.83949317781344 L 149.09129326776815 354.8163608673533 L 148.6977808406681 349.831870124086 Z M 127.76291971894524 351.4846223179062 L 114.80324378645015 352.50775462836634 L 115.19675621355022 357.49224537163366 L 128.1564321460453 356.4691130611735 L 127.76291971894524 351.4846223179062 Z" fill-opacity="0.6980392156862745"/><path fill="rgb(0,0,0)" stroke="none" paint-order="stroke fill markers" d=" M 455.09858874449486 326.3768440501788 L 445.91663211216024 337.13285039091363 C 445.0201878344769 338.1829708304855 445.144766978272 339.76097331855624 446.1948874178439 340.6574175962396 C 447.24500785741577 341.55386187392287 448.8230103454865 341.4292827301278 449.71945462316984 340.37916229055594 L 458.9014112555044 329.6231559498212 C 459.7978555331877 328.57303551024927 459.67327638939264 326.9950330221785 458.6231559498208 326.0985887444952 C 457.5730355102489 325.2021444668119 455.9950330221782 325.32672361060696 455.09858874449486 326.3768440501788 Z M 444.62083770944366 320.71945462317024 L 455.3768440501785 329.9014112555048 C 456.4269644897504 330.79785553318806 458.00496697782114 330.673276389393 458.9014112555044 329.6231559498212 C 459.7978555331877 328.57303551024927 459.67327638939264 326.9950330221785 458.6231559498208 326.0985887444952 L 447.86714960908597 316.9166321121606 C 446.8170291695141 316.0201878344773 445.23902668144336 316.1447669782724 444.34258240376005 317.19488741784426 C 443.44613812607673 318.2450078574161 443.57071726987175 319.82301034548686 444.62083770944366 320.71945462317024 Z" fill-opacity="0.6980392156862745"/><path fill="rgb(0,0,0)" stroke="none" paint-order="stroke fill markers" d=" M 446.44592949129697 158.0709553910334 L 437.3092235841988 158.6052656779982 L 437.571932648798 163.09759068264526 L 446.7086385558962 162.56328039568047 L 446.70863855589596 162.56328039568047 L 448.82344652591985 160.18576336105735 L 446.4459294912966 158.0709553910334 Z M 429.32286802038175 159.07230401506354 L 416.84418745191766 159.8020514167281 L 417.1068965165169 164.29437642137515 L 429.58557708498097 163.5646290197106 L 429.32286802038175 159.07230401506354 Z M 408.85783188810063 160.26908975379342 L 396.3791513196365 160.998837155458 L 396.6418603842357 165.49116216010506 L 409.12054095269986 164.76141475844048 L 408.85783188810063 160.26908975379342 Z M 388.39279575581946 161.4658754925233 L 375.9141151873554 162.1956228941879 L 376.1768242519546 166.68794789883495 L 388.6555048204187 165.95820049717037 L 388.39279575581946 161.4658754925233 Z M 367.92775962353835 162.6626612312532 L 355.4490790550742 163.39240863291778 L 355.71178811967343 167.88473363756484 L 368.19046868813757 167.15498623590025 L 367.92775962353835 162.6626612312532 Z M 347.4627234912572 163.8594469699831 L 334.9840429227931 164.58919437164766 L 335.2467519873923 169.08151937629472 L 347.7254325558564 168.35177197463017 L 347.4627234912572 163.8594469699831 Z M 326.997687358976 165.056232708713 L 314.5190067905119 165.78598011037755 L 314.78171585511114 170.2783051150246 L 327.26039642357523 169.54855771336005 L 326.997687358976 165.056232708713 Z M 306.5326512266949 166.25301844744288 L 294.05397065823075 166.98276584910744 L 294.31667972283 171.4750908537545 L 306.7953602912941 170.74534345208994 L 306.5326512266949 166.25301844744288 Z M 286.0676150944137 167.44980418617277 L 273.58893452594964 168.17955158783735 L 273.85164359054886 172.6718765924844 L 286.33032415901295 171.94212919081983 L 286.0676150944137 167.44980418617277 Z M 265.6025789621326 168.64658992490266 L 253.12389839366847 169.37633732656724 L 253.3866074582677 173.8686623312143 L 265.86528802673183 173.1389149295497 L 265.6025789621326 168.64658992490266 Z M 245.13754282985144 169.84337566363254 L 232.65886226138736 170.57312306529712 L 232.92157132598658 175.06544806994418 L 245.40025189445066 174.3357006682796 L 245.13754282985144 169.84337566363254 Z M 224.67250669757033 171.04016140236246 L 212.1938261291062 171.769908804027 L 212.45653519370543 176.26223380867407 L 224.93521576216955 175.53248640700951 L 224.67250669757033 171.04016140236246 Z M 204.20747056528916 172.23694714109234 L 191.72878999682507 172.9666945427569 L 191.9914990614243 177.45901954740395 L 204.47017962988838 176.7292721457394 L 204.20747056528916 172.23694714109234 Z M 183.74243443300804 173.43373287982223 L 171.26375386454393 174.16348028148678 L 171.52646292914315 178.65580528613384 L 184.00514349760726 177.9260578844693 L 183.74243443300804 173.43373287982223 Z M 163.27739830072687 174.63051861855212 L 150.7987177322628 175.3602660202167 L 151.061426796862 179.85259102486376 L 163.5401073653261 179.12284362319917 L 163.27739830072687 174.63051861855212 Z M 142.81236216844576 175.827304357282 L 130.33368159998162 176.55705175894659 L 130.59639066458084 181.04937676359364 L 143.07507123304498 180.31962936192906 L 142.81236216844576 175.827304357282 Z M 122.34732603616459 177.02409009601192 L 109.86864546770047 177.75383749767647 L 110.13135453229972 182.24616250232353 L 122.61003510076384 181.51641510065897 L 122.34732603616459 177.02409009601192 Z" fill-opacity="0.6980392156862745"/><path fill="rgb(0,0,0)" stroke="none" paint-order="stroke fill markers" d=" M 450.3188415824311 158.50460494348877 L 441.85960970233543 168.0146730819814 C 441.0337258176519 168.94315123805418 441.1168949073199 170.3653426713777 442.0453730633927 171.19122655606125 C 442.9738512194654 172.0171104407448 444.396042652789 171.93394135107675 445.22192653747254 171.00546319500395 L 453.6811584175682 161.4953950565113 C 454.50704230225165 160.56691690043857 454.42387321258366 159.14472546711502 453.495395056511 158.3188415824315 C 452.5669169004382 157.49295769774795 451.1447254671146 157.576126787416 450.3188415824311 158.50460494348877 Z M 440.99453680499573 153.22192653747294 L 450.5046049434884 161.6811584175686 C 451.43308309956114 162.50704230225213 452.8552745328847 162.42387321258408 453.68115841756827 161.49539505651128 C 454.5070423022517 160.5669169004385 454.4238732125836 159.14472546711497 453.4953950565109 158.31884158243147 L 443.98532691801825 149.85960970233577 C 443.05684876194545 149.03372581765228 441.63465732862187 149.11689490732033 440.8087734439384 150.04537306339313 C 439.9828895592549 150.97385121946593 440.06605864892293 152.39604265278945 440.99453680499573 153.22192653747294 Z" fill-opacity="0.6980392156862745"/><path fill="rgb(0,0,0)" stroke="none" paint-order="stroke fill markers" d=" M 411.121398814232 107.89530798637092 L 406.24315578232444 109.81490542491939 L 407.89092977297133 114.00236776812294 L 412.76917280487896 112.08277032957446 L 414.03901698115726 109.16515216264928 L 414.0390169811573 109.16515216264928 L 411.12139881423207 107.89530798637092 Z M 398.7987782832959 112.74428140829161 L 387.1669384410639 117.32143138231073 L 388.8147124317108 121.50889372551428 L 400.4465522739428 116.93174375149516 L 398.7987782832959 112.74428140829161 Z M 379.7225609420354 120.25080736568296 L 368.0907210998033 124.82795733970208 L 369.7384950904502 129.01541968290562 L 381.3703349326823 124.43826970888651 L 379.7225609420354 120.25080736568296 Z M 360.6463436007748 127.75733332307433 L 349.01450375854273 132.33448329709344 L 350.6622777491896 136.521945640297 L 362.2941175914217 131.94479566627788 L 360.6463436007748 127.75733332307433 Z M 341.57012625951427 135.26385928046565 L 329.9382864172822 139.84100925448476 L 331.5860604079291 144.0284715976883 L 343.21790025016116 139.4513216236692 L 341.57012625951427 135.26385928046565 Z M 322.4939089182537 142.770385237857 L 310.86206907602167 147.34753521187614 L 312.50984306666857 151.53499755507968 L 324.1416829089006 146.95784758106055 L 322.4939089182537 142.770385237857 Z M 303.41769157699315 150.27691119524835 L 291.7858517347611 154.85406116926745 L 293.433625725408 159.041523512471 L 305.06546556764005 154.4643735384519 L 303.41769157699315 150.27691119524835 Z M 284.3414742357326 157.7834371526397 L 272.7096343935005 162.3605871266588 L 274.3574083841474 166.54804946986235 L 285.9892482263795 161.97089949584324 L 284.3414742357326 157.7834371526397 Z M 265.26525689447203 165.28996311003104 L 253.63341705223996 169.86711308405015 L 255.28119104288686 174.0545754272537 L 266.9130308851189 169.4774254532346 L 265.26525689447203 165.28996311003104 Z M 246.18903955321147 172.79648906742239 L 234.55719971097943 177.3736390414415 L 236.20497370162633 181.56110138464504 L 247.83681354385837 176.98395141062593 L 246.18903955321147 172.79648906742239 Z M 227.1128222119509 180.30301502481373 L 215.48098236971884 184.88016499883284 L 217.12875636036574 189.0676273420364 L 228.7605962025978 184.49047736801728 L 227.1128222119509 180.30301502481373 Z M 208.03660487069035 187.80954098220508 L 196.4047650284583 192.3866909562242 L 198.0525390191052 196.57415329942773 L 209.68437886133725 191.99700332540863 L 208.03660487069035 187.80954098220508 Z M 188.9603875294298 195.31606693959642 L 177.32854768719776 199.89321691361553 L 178.97632167784465 204.08067925681908 L 190.6081615200767 199.50352928279997 L 188.9603875294298 195.31606693959642 Z M 169.88417018816924 202.82259289698777 L 158.2523303459372 207.39974287100688 L 159.9001043365841 211.58720521421043 L 171.53194417881613 207.01005524019132 L 169.88417018816924 202.82259289698777 Z M 150.80795284690868 210.32911885437912 L 139.17611300467664 214.90626882839823 L 140.82388699532353 219.09373117160177 L 152.45572683755557 214.51658119758267 L 150.80795284690868 210.32911885437912 Z" fill-opacity="0.6980392156862745"/><path fill="rgb(0,0,0)" stroke="none" paint-order="stroke fill markers" d=" M 414.9369324092539 107.10208457190339 L 409.8575557041406 118.77255723960423 C 409.36165070656506 119.91195800784331 409.88330709855074 121.23763526087116 411.02270786678986 121.73354025844674 C 412.1621086350289 122.2294452560223 413.4877858880568 121.70778886403663 413.9836908856323 120.56838809579752 L 419.0630675907457 108.89791542809668 C 419.55897258832124 107.7585146598576 419.03731619633555 106.43283740682976 417.89791542809644 105.93693240925417 C 416.7585146598573 105.4410274116786 415.4328374068295 105.96268380366428 414.9369324092539 107.10208457190339 Z M 404.4316119042023 104.98369088563261 L 416.10208457190316 110.06306759074592 C 417.2414853401423 110.55897258832148 418.5671625931701 110.03731619633578 419.0630675907457 108.89791542809667 C 419.55897258832124 107.7585146598576 419.03731619633555 106.43283740682975 417.89791542809644 105.93693240925415 L 406.22744276039555 100.85755570414085 C 405.08804199215655 100.36165070656529 403.76236473912866 100.88330709855099 403.26645974155315 102.0227078667901 C 402.7705547439775 103.16210863502917 403.29221113596327 104.48778588805702 404.4316119042023 104.98369088563261 Z" fill-opacity="0.6980392156862745"/><path fill="none" stroke="rgb(77,77,255)" paint-order="fill stroke markers" d=" M 82.00000000000017 137.00000000000003 L 92.00000000000017 147.00000000000003" stroke-opacity="1" stroke-linecap="square" stroke-miterlimit="10" stroke-width="2.5"/><path fill="none" stroke="rgb(77,77,255)" paint-order="fill stroke markers" d=" M 82.00000000000017 147.00000000000003 L 92.00000000000017 137.00000000000003" stroke-opacity="1" stroke-linecap="square" stroke-miterlimit="10" stroke-width="2.5"/><path fill="none" stroke="rgb(77,77,255)" paint-order="fill stroke markers" d=" M 105.0000000000001 175 L 115.0000000000001 185" stroke-opacity="1" stroke-linecap="square" stroke-miterlimit="10" stroke-width="2.5"/><path fill="none" stroke="rgb(77,77,255)" paint-order="fill stroke markers" d=" M 105.0000000000001 185 L 115.0000000000001 175" stroke-opacity="1" stroke-linecap="square" stroke-miterlimit="10" stroke-width="2.5"/><path fill="none" stroke="rgb(77,77,255)" paint-order="fill stroke markers" d=" M 110.00000000000018 350 L 120.00000000000018 360" stroke-opacity="1" stroke-linecap="square" stroke-miterlimit="10" stroke-width="2.5"/><path fill="none" stroke="rgb(77,77,255)" paint-order="fill stroke markers" d=" M 110.00000000000018 360 L 120.00000000000018 350" stroke-opacity="1" stroke-linecap="square" stroke-miterlimit="10" stroke-width="2.5"/><path fill="none" stroke="rgb(77,77,255)" paint-order="fill stroke markers" d=" M 91.0000000000002 264 L 101.0000000000002 274" stroke-opacity="1" stroke-linecap="square" stroke-miterlimit="10" stroke-width="2.5"/><path fill="none" stroke="rgb(77,77,255)" paint-order="fill stroke markers" d=" M 91.0000000000002 274 L 101.0000000000002 264" stroke-opacity="1" stroke-linecap="square" stroke-miterlimit="10" stroke-width="2.5"/><path fill="none" stroke="rgb(77,77,255)" paint-order="fill stroke markers" d=" M 411.9999999999998 103.00000000000003 L 421.9999999999998 113.00000000000003" stroke-opacity="1" stroke-linecap="square" stroke-miterlimit="10" stroke-width="2.5"/><path fill="none" stroke="rgb(77,77,255)" paint-order="fill stroke markers" d=" M 411.9999999999998 113.00000000000003 L 421.9999999999998 103.00000000000003" stroke-opacity="1" stroke-linecap="square" stroke-miterlimit="10" stroke-width="2.5"/><path fill="none" stroke="rgb(77,77,255)" paint-order="fill stroke markers" d=" M 451.99999999999966 323 L 461.99999999999966 333" stroke-opacity="1" stroke-linecap="square" stroke-miterlimit="10" stroke-width="2.5"/><path fill="none" stroke="rgb(77,77,255)" paint-order="fill stroke markers" d=" M 451.99999999999966 333 L 461.99999999999966 323" stroke-opacity="1" stroke-linecap="square" stroke-miterlimit="10" stroke-width="2.5"/><path fill="none" stroke="rgb(77,77,255)" paint-order="fill stroke markers" d=" M 385.9999999999997 274 L 395.9999999999997 284" stroke-opacity="1" stroke-linecap="square" stroke-miterlimit="10" stroke-width="2.5"/><path fill="none" stroke="rgb(77,77,255)" paint-order="fill stroke markers" d=" M 385.9999999999997 284 L 395.9999999999997 274" stroke-opacity="1" stroke-linecap="square" stroke-miterlimit="10" stroke-width="2.5"/><path fill="none" stroke="rgb(77,77,255)" paint-order="fill stroke markers" d=" M 446.99999999999966 155.00000000000003 L 456.99999999999966 165.00000000000003" stroke-opacity="1" stroke-linecap="square" stroke-miterlimit="10" stroke-width="2.5"/><path fill="none" stroke="rgb(77,77,255)" paint-order="fill stroke markers" d=" M 446.99999999999966 165.00000000000003 L 456.99999999999966 155.00000000000003" stroke-opacity="1" stroke-linecap="square" stroke-miterlimit="10" stroke-width="2.5"/><path fill="none" stroke="rgb(77,77,255)" paint-order="fill stroke markers" d=" M 135.00000000000009 212 L 145.00000000000009 222" stroke-opacity="1" stroke-linecap="square" stroke-miterlimit="10" stroke-width="2.5"/><path fill="none" stroke="rgb(77,77,255)" paint-order="fill stroke markers" d=" M 135.00000000000009 222 L 145.00000000000009 212" stroke-opacity="1" stroke-linecap="square" stroke-miterlimit="10" stroke-width="2.5"/><g transform="scale(51,51)"><g transform="translate(2.2745098039215685,0.8398627450980393)"><path fill="rgb(0,0,0)" stroke="none" paint-order="stroke fill markers" d=" M 0.708 -0.233 L 0.708 -0.233 L 0.616 -0.017 Q 0.61 -0.003 0.602 -0.001 L 0.602 -0.001 L 0.601 -0.001 Q 0.597 0 0.585 0 L 0.066 0 Q 0.041 0 0.039 -0.008 Q 0.038 -0.009000000000000001 0.038 -0.012 Q 0.038 -0.029 0.054 -0.031 L 0.066 -0.031 Q 0.131 -0.031 0.14400000000000002 -0.045 Q 0.15 -0.052000000000000005 0.156 -0.073 Q 0.156 -0.074 0.157 -0.078 L 0.289 -0.607 Q 0.294 -0.625 0.294 -0.631 Q 0.294 -0.648 0.248 -0.649 L 0.247 -0.649 L 0.229 -0.649 Q 0.203 -0.649 0.201 -0.66 Q 0.201 -0.678 0.217 -0.68 L 0.231 -0.68 L 0.736 -0.68 Q 0.76 -0.68 0.762 -0.673 L 0.763 -0.673 Q 0.765 -0.667 0.763 -0.653 L 0.743 -0.48 Q 0.736 -0.457 0.729 -0.455 Q 0.717 -0.455 0.717 -0.467 L 0.718 -0.484 L 0.718 -0.485 Q 0.722 -0.512 0.722 -0.538 Q 0.722 -0.608 0.683 -0.63 Q 0.65 -0.649 0.5700000000000001 -0.649 L 0.429 -0.649 Q 0.392 -0.649 0.385 -0.638 L 0.384 -0.638 L 0.384 -0.637 Q 0.381 -0.633 0.379 -0.625 L 0.379 -0.624 L 0.378 -0.623 Q 0.377 -0.619 0.375 -0.61 L 0.315 -0.369 L 0.40900000000000003 -0.369 Q 0.485 -0.369 0.51 -0.399 Q 0.526 -0.418 0.54 -0.468 Q 0.544 -0.485 0.554 -0.486 Q 0.5660000000000001 -0.486 0.5660000000000001 -0.47500000000000003 L 0.509 -0.241 Q 0.504 -0.222 0.494 -0.221 Q 0.481 -0.221 0.481 -0.232 Q 0.481 -0.23600000000000002 0.484 -0.243 Q 0.491 -0.273 0.491 -0.292 Q 0.491 -0.319 0.47600000000000003 -0.327 Q 0.457 -0.338 0.406 -0.338 L 0.307 -0.338 L 0.23900000000000002 -0.065 Q 0.234 -0.047 0.234 -0.042 Q 0.234 -0.034 0.243 -0.032 L 0.243 -0.032 L 0.243 -0.032 L 0.247 -0.032 Q 0.253 -0.031 0.269 -0.031 L 0.41500000000000004 -0.031 Q 0.537 -0.031 0.595 -0.08700000000000001 Q 0.633 -0.123 0.678 -0.222 Q 0.682 -0.233 0.6880000000000001 -0.246 Q 0.6920000000000001 -0.258 0.7010000000000001 -0.258 Q 0.713 -0.258 0.713 -0.247 Q 0.713 -0.246 0.708 -0.233 Z"/></g></g><g transform="scale(51,51)"><g transform="translate(8.450980392156863,0.9182941176470589)"><path fill="rgb(0,0,0)" stroke="none" paint-order="stroke fill markers" d=" M 0.303 -0.325 L 0.241 -0.076 Q 0.23700000000000002 -0.061 0.23700000000000002 -0.053 Q 0.23700000000000002 -0.039 0.25 -0.036000000000000004 Q 0.257 -0.034 0.269 -0.033 Q 0.294 -0.031 0.321 -0.031 Q 0.34600000000000003 -0.031 0.34900000000000003 -0.03 L 0.354 -0.023 Q 0.355 -0.021 0.355 -0.019 Q 0.355 0 0.334 0 L 0.186 -0.003 L 0.185 -0.003 L 0.054 0 L 0.053 0 Q 0.038 0 0.038 -0.012 Q 0.038 -0.029 0.054 -0.031 L 0.066 -0.031 Q 0.131 -0.031 0.14400000000000002 -0.045 Q 0.15 -0.052000000000000005 0.156 -0.073 Q 0.156 -0.074 0.157 -0.078 L 0.289 -0.607 Q 0.294 -0.625 0.294 -0.631 Q 0.294 -0.648 0.248 -0.649 L 0.247 -0.649 L 0.229 -0.649 Q 0.203 -0.649 0.201 -0.66 Q 0.201 -0.678 0.217 -0.68 L 0.231 -0.68 L 0.721 -0.68 Q 0.745 -0.68 0.747 -0.673 L 0.748 -0.673 Q 0.75 -0.667 0.748 -0.653 L 0.728 -0.48 Q 0.721 -0.457 0.714 -0.455 Q 0.7020000000000001 -0.455 0.7020000000000001 -0.467 Q 0.7020000000000001 -0.47200000000000003 0.704 -0.485 Q 0.707 -0.512 0.707 -0.539 Q 0.707 -0.606 0.673 -0.628 L 0.672 -0.629 Q 0.64 -0.649 0.561 -0.649 L 0.429 -0.649 Q 0.392 -0.649 0.385 -0.638 L 0.384 -0.638 L 0.384 -0.637 Q 0.381 -0.633 0.379 -0.625 L 0.379 -0.624 L 0.378 -0.623 Q 0.377 -0.619 0.375 -0.61 L 0.311 -0.356 L 0.402 -0.356 Q 0.47500000000000003 -0.356 0.5 -0.383 L 0.501 -0.384 Q 0.518 -0.403 0.531 -0.452 Q 0.536 -0.47100000000000003 0.546 -0.47300000000000003 Q 0.557 -0.47300000000000003 0.558 -0.462 Q 0.558 -0.457 0.555 -0.446 L 0.5 -0.229 Q 0.49 -0.209 0.485 -0.20800000000000002 Q 0.47300000000000003 -0.20800000000000002 0.47300000000000003 -0.22 Q 0.47300000000000003 -0.224 0.47600000000000003 -0.231 Q 0.483 -0.261 0.483 -0.28 Q 0.483 -0.309 0.461 -0.318 L 0.461 -0.318 Q 0.442 -0.325 0.4 -0.325 L 0.303 -0.325 Z"/></g></g></g></g></svg>