<svg version="1.1" xmlns="http://www.w3.org/2000/svg" xmlns:xlink="http://www.w3.org/1999/xlink" width="474" height="383"><defs><clipPath id="dsIKPbIwqcKw"><path fill="none" stroke="none" d=" M 0 0 L 474 0 L 474 383 L 0 383 L 0 0 Z"/></clipPath></defs><g transform="scale(1,1)" clip-path="url(#dsIKPbIwqcKw)"><g><rect fill="rgb(255,255,255)" stroke="none" x="0" y="0" width="474" height="383" fill-opacity="1"/><path fill="none" stroke="rgb(192,192,192)" paint-order="fill stroke markers" d=" M 60.5 0.5 L 60.5 383.5 M 100.5 0.5 L 100.5 383.5 M 140.5 0.5 L 140.5 383.5 M 180.5 0.5 L 180.5 383.5 M 220.5 0.5 L 220.5 383.5 M 260.5 0.5 L 260.5 383.5 M 300.5 0.5 L 300.5 383.5 M 341.5 0.5 L 341.5 383.5 M 381.5 0.5 L 381.5 383.5 M 421.5 0.5 L 421.5 383.5 M 461.5 0.5 L 461.5 383.5" stroke-opacity="1" stroke-linecap="round" stroke-linejoin="round" stroke-miterlimit="10"/><path fill="none" stroke="rgb(192,192,192)" paint-order="fill stroke markers" d=" M 4.5 0.5 L 4.5 383.5 M 12.5 0.5 L 12.5 383.5 M 28.5 0.5 L 28.5 383.5 M 36.5 0.5 L 36.5 383.5 M 44.5 0.5 L 44.5 383.5 M 52.5 0.5 L 52.5 383.5 M 68.5 0.5 L 68.5 383.5 M 76.5 0.5 L 76.5 383.5 M 84.5 0.5 L 84.5 383.5 M 92.5 0.5 L 92.5 383.5 M 108.5 0.5 L 108.5 383.5 M 116.5 0.5 L 116.5 383.5 M 124.5 0.5 L 124.5 383.5 M 132.5 0.5 L 132.5 383.5 M 148.5 0.5 L 148.5 383.5 M 156.5 0.5 L 156.5 383.5 M 164.5 0.5 L 164.5 383.5 M 172.5 0.5 L 172.5 383.5 M 188.5 0.5 L 188.5 383.5 M 196.5 0.5 L 196.5 383.5 M 204.5 0.5 L 204.5 383.5 M 212.5 0.5 L 212.5 383.5 M 228.5 0.5 L 228.5 383.5 M 236.5 0.5 L 236.5 383.5 M 244.5 0.5 L 244.5 383.5 M 252.5 0.5 L 252.5 383.5 M 268.5 0.5 L 268.5 383.5 M 276.5 0.5 L 276.5 383.5 M 284.5 0.5 L 284.5 383.5 M 292.5 0.5 L 292.5 383.5 M 308.5 0.5 L 308.5 383.5 M 316.5 0.5 L 316.5 383.5 M 325.5 0.5 L 325.5 383.5 M 333.5 0.5 L 333.5 383.5 M 349.5 0.5 L 349.5 383.5 M 357.5 0.5 L 357.5 383.5 M 365.5 0.5 L 365.5 383.5 M 373.5 0.5 L 373.5 383.5 M 389.5 0.5 L 389.5 383.5 M 397.5 0.5 L 397.5 383.5 M 405.5 0.5 L 405.5 383.5 M 413.5 0.5 L 413.5 383.5 M 429.5 0.5 L 429.5 383.5 M 437.5 0.5 L 437.5 383.5 M 445.5 0.5 L 445.5 383.5 M 453.5 0.5 L 453.5 383.5 M 469.5 0.5 L 469.5 383.5" stroke-opacity="0.23529411764705882" stroke-linecap="round" stroke-linejoin="round" stroke-miterlimit="10"/><path fill="none" stroke="rgb(192,192,192)" paint-order="fill stroke markers" d=" M 0.5 -0.5 L 474.5 -0.5 M 0.5 -0.5 L 474.5 -0.5 M 0.5 69.5 L 474.5 69.5 M 0.5 139.5 L 474.5 139.5 M 0.5 208.5 L 474.5 208.5 M 0.5 278.5 L 474.5 278.5" stroke-opacity="1" stroke-linecap="round" stroke-linejoin="round" stroke-miterlimit="10"/><path fill="none" stroke="rgb(192,192,192)" paint-order="fill stroke markers" d=" M 0.5 13.5 L 474.5 13.5 M 0.5 27.5 L 474.5 27.5 M 0.5 41.5 L 474.5 41.5 M 0.5 55.5 L 474.5 55.5 M 0.5 83.5 L 474.5 83.5 M 0.5 97.5 L 474.5 97.5 M 0.5 111.5 L 474.5 111.5 M 0.5 125.5 L 474.5 125.5 M 0.5 153.5 L 474.5 153.5 M 0.5 167.5 L 474.5 167.5 M 0.5 181.5 L 474.5 181.5 M 0.5 194.5 L 474.5 194.5 M 0.5 222.5 L 474.5 222.5 M 0.5 236.5 L 474.5 236.5 M 0.5 250.5 L 474.5 250.5 M 0.5 264.5 L 474.5 264.5 M 0.5 292.5 L 474.5 292.5 M 0.5 306.5 L 474.5 306.5 M 0.5 320.5 L 474.5 320.5 M 0.5 334.5 L 474.5 334.5 M 0.5 362.5 L 474.5 362.5 M 0.5 376.5 L 474.5 376.5" stroke-opacity="0.23529411764705882" stroke-linecap="round" stroke-linejoin="round" stroke-miterlimit="10"/><path fill="none" stroke="rgb(37,37,37)" paint-order="fill stroke markers" d=" M 20.5 2.5 L 20.5 383.5" stroke-opacity="1" stroke-miterlimit="10"/><path fill="none" stroke="rgb(37,37,37)" paint-order="fill stroke markers" d=" M 20.5 1.5 L 16.5 5.5" stroke-opacity="1" stroke-miterlimit="10"/><path fill="none" stroke="rgb(37,37,37)" paint-order="fill stroke markers" d=" M 20.5 1.5 L 24.5 5.5" stroke-opacity="1" stroke-miterlimit="10"/><path fill="none" stroke="rgb(37,37,37)" paint-order="fill stroke markers" d=" M 0.5 348.5 L 472.5 348.5" stroke-opacity="1" stroke-miterlimit="10"/><path fill="none" stroke="rgb(37,37,37)" paint-order="fill stroke markers" d=" M 473.5 348.5 L 469.5 344.5" stroke-opacity="1" stroke-miterlimit="10"/><path fill="none" stroke="rgb(37,37,37)" paint-order="fill stroke markers" d=" M 473.5 348.5 L 469.5 352.5" stroke-opacity="1" stroke-miterlimit="10"/><text fill="rgb(37,37,37)" stroke="none" font-family="geogebra-sans-serif, sans-serif" font-size="12px" font-style="normal" font-weight="normal" text-decoration="normal" x="58" y="364" text-anchor="start" dominant-baseline="alphabetic" fill-opacity="1">2</text><text fill="none" stroke="rgb(255,255,255)" font-family="geogebra-sans-serif, sans-serif" font-size="12px" font-style="normal" font-weight="normal" text-decoration="normal" x="58" y="364" text-anchor="start" dominant-baseline="alphabetic" stroke-opacity="1" stroke-linejoin="bevel" stroke-miterlimit="10" stroke-width="3">2</text><text fill="rgb(37,37,37)" stroke="none" font-family="geogebra-sans-serif, sans-serif" font-size="12px" font-style="normal" font-weight="normal" text-decoration="normal" x="58" y="364" text-anchor="start" dominant-baseline="alphabetic" fill-opacity="1">2</text><text fill="rgb(37,37,37)" stroke="none" font-family="geogebra-sans-serif, sans-serif" font-size="12px" font-style="normal" font-weight="normal" text-decoration="normal" x="98" y="364" text-anchor="start" dominant-baseline="alphabetic" fill-opacity="1">4</text><text fill="none" stroke="rgb(255,255,255)" font-family="geogebra-sans-serif, sans-serif" font-size="12px" font-style="normal" font-weight="normal" text-decoration="normal" x="98" y="364" text-anchor="start" dominant-baseline="alphabetic" stroke-opacity="1" stroke-linejoin="bevel" stroke-miterlimit="10" stroke-width="3">4</text><text fill="rgb(37,37,37)" stroke="none" font-family="geogebra-sans-serif, sans-serif" font-size="12px" font-style="normal" font-weight="normal" text-decoration="normal" x="98" y="364" text-anchor="start" dominant-baseline="alphabetic" fill-opacity="1">4</text><text fill="rgb(37,37,37)" stroke="none" font-family="geogebra-sans-serif, sans-serif" font-size="12px" font-style="normal" font-weight="normal" text-decoration="normal" x="138" y="364" text-anchor="start" dominant-baseline="alphabetic" fill-opacity="1">6</text><text fill="none" stroke="rgb(255,255,255)" font-family="geogebra-sans-serif, sans-serif" font-size="12px" font-style="normal" font-weight="normal" text-decoration="normal" x="138" y="364" text-anchor="start" dominant-baseline="alphabetic" stroke-opacity="1" stroke-linejoin="bevel" stroke-miterlimit="10" stroke-width="3">6</text><text fill="rgb(37,37,37)" stroke="none" font-family="geogebra-sans-serif, sans-serif" font-size="12px" font-style="normal" font-weight="normal" text-decoration="normal" x="138" y="364" text-anchor="start" dominant-baseline="alphabetic" fill-opacity="1">6</text><text fill="rgb(37,37,37)" stroke="none" font-family="geogebra-sans-serif, sans-serif" font-size="12px" font-style="normal" font-weight="normal" text-decoration="normal" x="178" y="364" text-anchor="start" dominant-baseline="alphabetic" fill-opacity="1">8</text><text fill="none" stroke="rgb(255,255,255)" font-family="geogebra-sans-serif, sans-serif" font-size="12px" font-style="normal" font-weight="normal" text-decoration="normal" x="178" y="364" text-anchor="start" dominant-baseline="alphabetic" stroke-opacity="1" stroke-linejoin="bevel" stroke-miterlimit="10" stroke-width="3">8</text><text fill="rgb(37,37,37)" stroke="none" font-family="geogebra-sans-serif, sans-serif" font-size="12px" font-style="normal" font-weight="normal" text-decoration="normal" x="178" y="364" text-anchor="start" dominant-baseline="alphabetic" fill-opacity="1">8</text><text fill="rgb(37,37,37)" stroke="none" font-family="geogebra-sans-serif, sans-serif" font-size="12px" font-style="normal" font-weight="normal" text-decoration="normal" x="215" y="364" text-anchor="start" dominant-baseline="alphabetic" fill-opacity="1">10</text><text fill="none" stroke="rgb(255,255,255)" font-family="geogebra-sans-serif, sans-serif" font-size="12px" font-style="normal" font-weight="normal" text-decoration="normal" x="215" y="364" text-anchor="start" dominant-baseline="alphabetic" stroke-opacity="1" stroke-linejoin="bevel" stroke-miterlimit="10" stroke-width="3">10</text><text fill="rgb(37,37,37)" stroke="none" font-family="geogebra-sans-serif, sans-serif" font-size="12px" font-style="normal" font-weight="normal" text-decoration="normal" x="215" y="364" text-anchor="start" dominant-baseline="alphabetic" fill-opacity="1">10</text><text fill="rgb(37,37,37)" stroke="none" font-family="geogebra-sans-serif, sans-serif" font-size="12px" font-style="normal" font-weight="normal" text-decoration="normal" x="255" y="364" text-anchor="start" dominant-baseline="alphabetic" fill-opacity="1">12</text><text fill="none" stroke="rgb(255,255,255)" font-family="geogebra-sans-serif, sans-serif" font-size="12px" font-style="normal" font-weight="normal" text-decoration="normal" x="255" y="364" text-anchor="start" dominant-baseline="alphabetic" stroke-opacity="1" stroke-linejoin="bevel" stroke-miterlimit="10" stroke-width="3">12</text><text fill="rgb(37,37,37)" stroke="none" font-family="geogebra-sans-serif, sans-serif" font-size="12px" font-style="normal" font-weight="normal" text-decoration="normal" x="255" y="364" text-anchor="start" dominant-baseline="alphabetic" fill-opacity="1">12</text><text fill="rgb(37,37,37)" stroke="none" font-family="geogebra-sans-serif, sans-serif" font-size="12px" font-style="normal" font-weight="normal" text-decoration="normal" x="295" y="364" text-anchor="start" dominant-baseline="alphabetic" fill-opacity="1">14</text><text fill="none" stroke="rgb(255,255,255)" font-family="geogebra-sans-serif, sans-serif" font-size="12px" font-style="normal" font-weight="normal" text-decoration="normal" x="295" y="364" text-anchor="start" dominant-baseline="alphabetic" stroke-opacity="1" stroke-linejoin="bevel" stroke-miterlimit="10" stroke-width="3">14</text><text fill="rgb(37,37,37)" stroke="none" font-family="geogebra-sans-serif, sans-serif" font-size="12px" font-style="normal" font-weight="normal" text-decoration="normal" x="295" y="364" text-anchor="start" dominant-baseline="alphabetic" fill-opacity="1">14</text><text fill="rgb(37,37,37)" stroke="none" font-family="geogebra-sans-serif, sans-serif" font-size="12px" font-style="normal" font-weight="normal" text-decoration="normal" x="336" y="364" text-anchor="start" dominant-baseline="alphabetic" fill-opacity="1">16</text><text fill="none" stroke="rgb(255,255,255)" font-family="geogebra-sans-serif, sans-serif" font-size="12px" font-style="normal" font-weight="normal" text-decoration="normal" x="336" y="364" text-anchor="start" dominant-baseline="alphabetic" stroke-opacity="1" stroke-linejoin="bevel" stroke-miterlimit="10" stroke-width="3">16</text><text fill="rgb(37,37,37)" stroke="none" font-family="geogebra-sans-serif, sans-serif" font-size="12px" font-style="normal" font-weight="normal" text-decoration="normal" x="336" y="364" text-anchor="start" dominant-baseline="alphabetic" fill-opacity="1">16</text><text fill="rgb(37,37,37)" stroke="none" font-family="geogebra-sans-serif, sans-serif" font-size="12px" font-style="normal" font-weight="normal" text-decoration="normal" x="376" y="364" text-anchor="start" dominant-baseline="alphabetic" fill-opacity="1">18</text><text fill="none" stroke="rgb(255,255,255)" font-family="geogebra-sans-serif, sans-serif" font-size="12px" font-style="normal" font-weight="normal" text-decoration="normal" x="376" y="364" text-anchor="start" dominant-baseline="alphabetic" stroke-opacity="1" stroke-linejoin="bevel" stroke-miterlimit="10" stroke-width="3">18</text><text fill="rgb(37,37,37)" stroke="none" font-family="geogebra-sans-serif, sans-serif" font-size="12px" font-style="normal" font-weight="normal" text-decoration="normal" x="376" y="364" text-anchor="start" dominant-baseline="alphabetic" fill-opacity="1">18</text><text fill="rgb(37,37,37)" stroke="none" font-family="geogebra-sans-serif, sans-serif" font-size="12px" font-style="normal" font-weight="normal" text-decoration="normal" x="416" y="364" text-anchor="start" dominant-baseline="alphabetic" fill-opacity="1">20</text><text fill="none" stroke="rgb(255,255,255)" font-family="geogebra-sans-serif, sans-serif" font-size="12px" font-style="normal" font-weight="normal" text-decoration="normal" x="416" y="364" text-anchor="start" dominant-baseline="alphabetic" stroke-opacity="1" stroke-linejoin="bevel" stroke-miterlimit="10" stroke-width="3">20</text><text fill="rgb(37,37,37)" stroke="none" font-family="geogebra-sans-serif, sans-serif" font-size="12px" font-style="normal" font-weight="normal" text-decoration="normal" x="416" y="364" text-anchor="start" dominant-baseline="alphabetic" fill-opacity="1">20</text><text fill="rgb(37,37,37)" stroke="none" font-family="geogebra-sans-serif, sans-serif" font-size="12px" font-style="normal" font-weight="normal" text-decoration="normal" x="456" y="364" text-anchor="start" dominant-baseline="alphabetic" fill-opacity="1">22</text><text fill="none" stroke="rgb(255,255,255)" font-family="geogebra-sans-serif, sans-serif" font-size="12px" font-style="normal" font-weight="normal" text-decoration="normal" x="456" y="364" text-anchor="start" dominant-baseline="alphabetic" stroke-opacity="1" stroke-linejoin="bevel" stroke-miterlimit="10" stroke-width="3">22</text><text fill="rgb(37,37,37)" stroke="none" font-family="geogebra-sans-serif, sans-serif" font-size="12px" font-style="normal" font-weight="normal" text-decoration="normal" x="456" y="364" text-anchor="start" dominant-baseline="alphabetic" fill-opacity="1">22</text><text fill="rgb(37,37,37)" stroke="none" font-family="geogebra-sans-serif, sans-serif" font-size="12px" font-style="normal" font-weight="normal" text-decoration="normal" x="3" y="283" text-anchor="start" dominant-baseline="alphabetic" fill-opacity="1">0.2</text><text fill="none" stroke="rgb(255,255,255)" font-family="geogebra-sans-serif, sans-serif" font-size="12px" font-style="normal" font-weight="normal" text-decoration="normal" x="3" y="283" text-anchor="start" dominant-baseline="alphabetic" stroke-opacity="1" stroke-linejoin="bevel" stroke-miterlimit="10" stroke-width="3">0.2</text><text fill="rgb(37,37,37)" stroke="none" font-family="geogebra-sans-serif, sans-serif" font-size="12px" font-style="normal" font-weight="normal" text-decoration="normal" x="3" y="283" text-anchor="start" dominant-baseline="alphabetic" fill-opacity="1">0.2</text><text fill="rgb(37,37,37)" stroke="none" font-family="geogebra-sans-serif, sans-serif" font-size="12px" font-style="normal" font-weight="normal" text-decoration="normal" x="3" y="213" text-anchor="start" dominant-baseline="alphabetic" fill-opacity="1">0.4</text><text fill="none" stroke="rgb(255,255,255)" font-family="geogebra-sans-serif, sans-serif" font-size="12px" font-style="normal" font-weight="normal" text-decoration="normal" x="3" y="213" text-anchor="start" dominant-baseline="alphabetic" stroke-opacity="1" stroke-linejoin="bevel" stroke-miterlimit="10" stroke-width="3">0.4</text><text fill="rgb(37,37,37)" stroke="none" font-family="geogebra-sans-serif, sans-serif" font-size="12px" font-style="normal" font-weight="normal" text-decoration="normal" x="3" y="213" text-anchor="start" dominant-baseline="alphabetic" fill-opacity="1">0.4</text><text fill="rgb(37,37,37)" stroke="none" font-family="geogebra-sans-serif, sans-serif" font-size="12px" font-style="normal" font-weight="normal" text-decoration="normal" x="3" y="144" text-anchor="start" dominant-baseline="alphabetic" fill-opacity="1">0.6</text><text fill="none" stroke="rgb(255,255,255)" font-family="geogebra-sans-serif, sans-serif" font-size="12px" font-style="normal" font-weight="normal" text-decoration="normal" x="3" y="144" text-anchor="start" dominant-baseline="alphabetic" stroke-opacity="1" stroke-linejoin="bevel" stroke-miterlimit="10" stroke-width="3">0.6</text><text fill="rgb(37,37,37)" stroke="none" font-family="geogebra-sans-serif, sans-serif" font-size="12px" font-style="normal" font-weight="normal" text-decoration="normal" x="3" y="144" text-anchor="start" dominant-baseline="alphabetic" fill-opacity="1">0.6</text><text fill="rgb(37,37,37)" stroke="none" font-family="geogebra-sans-serif, sans-serif" font-size="12px" font-style="normal" font-weight="normal" text-decoration="normal" x="3" y="74" text-anchor="start" dominant-baseline="alphabetic" fill-opacity="1">0.8</text><text fill="none" stroke="rgb(255,255,255)" font-family="geogebra-sans-serif, sans-serif" font-size="12px" font-style="normal" font-weight="normal" text-decoration="normal" x="3" y="74" text-anchor="start" dominant-baseline="alphabetic" stroke-opacity="1" stroke-linejoin="bevel" stroke-miterlimit="10" stroke-width="3">0.8</text><text fill="rgb(37,37,37)" stroke="none" font-family="geogebra-sans-serif, sans-serif" font-size="12px" font-style="normal" font-weight="normal" text-decoration="normal" x="3" y="74" text-anchor="start" dominant-baseline="alphabetic" fill-opacity="1">0.8</text><text fill="rgb(37,37,37)" stroke="none" font-family="geogebra-sans-serif, sans-serif" font-size="12px" font-style="normal" font-weight="normal" text-decoration="normal" x="6" y="364" text-anchor="start" dominant-baseline="alphabetic" fill-opacity="1">0</text><text fill="none" stroke="rgb(255,255,255)" font-family="geogebra-sans-serif, sans-serif" font-size="12px" font-style="normal" font-weight="normal" text-decoration="normal" x="6" y="364" text-anchor="start" dominant-baseline="alphabetic" stroke-opacity="1" stroke-linejoin="bevel" stroke-miterlimit="10" stroke-width="3">0</text><text fill="rgb(37,37,37)" stroke="none" font-family="geogebra-sans-serif, sans-serif" font-size="12px" font-style="normal" font-weight="normal" text-decoration="normal" x="6" y="364" text-anchor="start" dominant-baseline="alphabetic" fill-opacity="1">0</text><path fill="rgb(255,0,0)" stroke="none" paint-order="stroke fill markers" d=" M 24.062500000000004 34.81818181818181 C 24.062500000000004 37.027320817504986 22.271638999323176 38.81818181818181 20.062500000000004 38.81818181818181 C 17.85336100067683 38.81818181818181 16.062500000000004 37.027320817504986 16.062500000000004 34.81818181818181 C 16.062500000000004 32.60904281885864 17.85336100067683 30.818181818181813 20.062500000000004 30.818181818181813 C 22.271638999323176 30.818181818181813 24.062500000000004 32.60904281885864 24.062500000000004 34.81818181818181 Z" fill-opacity="1"/><path fill="none" stroke="rgb(0,0,0)" paint-order="fill stroke markers" d=" M 24.062500000000004 34.81818181818181 C 24.062500000000004 37.027320817504986 22.271638999323176 38.81818181818181 20.062500000000004 38.81818181818181 C 17.85336100067683 38.81818181818181 16.062500000000004 37.027320817504986 16.062500000000004 34.81818181818181 C 16.062500000000004 32.60904281885864 17.85336100067683 30.818181818181813 20.062500000000004 30.818181818181813 C 22.271638999323176 30.818181818181813 24.062500000000004 32.60904281885864 24.062500000000004 34.81818181818181 Z" stroke-opacity="1" stroke-linecap="round" stroke-linejoin="round" stroke-miterlimit="10"/><path fill="rgb(255,0,0)" stroke="none" paint-order="stroke fill markers" d=" M 24.062500000000004 34.81818181818181 C 24.062500000000004 37.027320817504986 22.271638999323176 38.81818181818181 20.062500000000004 38.81818181818181 C 17.85336100067683 38.81818181818181 16.062500000000004 37.027320817504986 16.062500000000004 34.81818181818181 C 16.062500000000004 32.60904281885864 17.85336100067683 30.818181818181813 20.062500000000004 30.818181818181813 C 22.271638999323176 30.818181818181813 24.062500000000004 32.60904281885864 24.062500000000004 34.81818181818181 Z" fill-opacity="1"/><path fill="none" stroke="rgb(0,0,0)" paint-order="fill stroke markers" d=" M 24.062500000000004 34.81818181818181 C 24.062500000000004 37.027320817504986 22.271638999323176 38.81818181818181 20.062500000000004 38.81818181818181 C 17.85336100067683 38.81818181818181 16.062500000000004 37.027320817504986 16.062500000000004 34.81818181818181 C 16.062500000000004 32.60904281885864 17.85336100067683 30.818181818181813 20.062500000000004 30.818181818181813 C 22.271638999323176 30.818181818181813 24.062500000000004 32.60904281885864 24.062500000000004 34.81818181818181 Z" stroke-opacity="1" stroke-linecap="round" stroke-linejoin="round" stroke-miterlimit="10"/><path fill="rgb(68,68,68)" stroke="none" paint-order="stroke fill markers" d=" M 44.12500000000001 289.0023493356433 C 44.12500000000001 291.2114883349665 42.33413899932318 293.0023493356433 40.12500000000001 293.0023493356433 C 37.915861000676834 293.0023493356433 36.12500000000001 291.2114883349665 36.12500000000001 289.0023493356433 C 36.12500000000001 286.79321033632016 37.915861000676834 285.0023493356433 40.12500000000001 285.0023493356433 C 42.33413899932318 285.0023493356433 44.12500000000001 286.79321033632016 44.12500000000001 289.0023493356433 Z" fill-opacity="1"/><path fill="none" stroke="rgb(0,0,0)" paint-order="fill stroke markers" d=" M 44.12500000000001 289.0023493356433 C 44.12500000000001 291.2114883349665 42.33413899932318 293.0023493356433 40.12500000000001 293.0023493356433 C 37.915861000676834 293.0023493356433 36.12500000000001 291.2114883349665 36.12500000000001 289.0023493356433 C 36.12500000000001 286.79321033632016 37.915861000676834 285.0023493356433 40.12500000000001 285.0023493356433 C 42.33413899932318 285.0023493356433 44.12500000000001 286.79321033632016 44.12500000000001 289.0023493356433 Z" stroke-opacity="1" stroke-linecap="round" stroke-linejoin="round" stroke-miterlimit="10"/><path fill="rgb(255,0,0)" stroke="none" paint-order="stroke fill markers" d=" M 64.18750000000001 75.26226134077211 C 64.18750000000001 77.47140034009529 62.39663899932319 79.26226134077211 60.187500000000014 79.26226134077211 C 57.97836100067684 79.26226134077211 56.187500000000014 77.47140034009529 56.187500000000014 75.26226134077211 C 56.187500000000014 73.05312234144894 57.97836100067684 71.26226134077211 60.187500000000014 71.26226134077211 C 62.39663899932319 71.26226134077211 64.18750000000001 73.05312234144894 64.18750000000001 75.26226134077211 Z" fill-opacity="1"/><path fill="none" stroke="rgb(0,0,0)" paint-order="fill stroke markers" d=" M 64.18750000000001 75.26226134077211 C 64.18750000000001 77.47140034009529 62.39663899932319 79.26226134077211 60.187500000000014 79.26226134077211 C 57.97836100067684 79.26226134077211 56.187500000000014 77.47140034009529 56.187500000000014 75.26226134077211 C 56.187500000000014 73.05312234144894 57.97836100067684 71.26226134077211 60.187500000000014 71.26226134077211 C 62.39663899932319 71.26226134077211 64.18750000000001 73.05312234144894 64.18750000000001 75.26226134077211 Z" stroke-opacity="1" stroke-linecap="round" stroke-linejoin="round" stroke-miterlimit="10"/><path fill="rgb(68,68,68)" stroke="none" paint-order="stroke fill markers" d=" M 84.25000000000001 249.63510370321757 C 84.25000000000001 251.84424270254073 82.45913899932319 253.63510370321757 80.25000000000001 253.63510370321757 C 78.04086100067684 253.63510370321757 76.25000000000001 251.84424270254073 76.25000000000001 249.63510370321757 C 76.25000000000001 247.42596470389438 78.04086100067684 245.63510370321757 80.25000000000001 245.63510370321757 C 82.45913899932319 245.63510370321757 84.25000000000001 247.42596470389438 84.25000000000001 249.63510370321757 Z" fill-opacity="1"/><path fill="none" stroke="rgb(0,0,0)" paint-order="fill stroke markers" d=" M 84.25000000000001 249.63510370321757 C 84.25000000000001 251.84424270254073 82.45913899932319 253.63510370321757 80.25000000000001 253.63510370321757 C 78.04086100067684 253.63510370321757 76.25000000000001 251.84424270254073 76.25000000000001 249.63510370321757 C 76.25000000000001 247.42596470389438 78.04086100067684 245.63510370321757 80.25000000000001 245.63510370321757 C 82.45913899932319 245.63510370321757 84.25000000000001 247.42596470389438 84.25000000000001 249.63510370321757 Z" stroke-opacity="1" stroke-linecap="round" stroke-linejoin="round" stroke-miterlimit="10"/><path fill="rgb(255,0,0)" stroke="none" paint-order="stroke fill markers" d=" M 104.31250000000001 101.3983130238847 C 104.31250000000001 103.60745202320787 102.52163899932319 105.3983130238847 100.31250000000001 105.3983130238847 C 98.10336100067684 105.3983130238847 96.31250000000001 103.60745202320787 96.31250000000001 101.3983130238847 C 96.31250000000001 99.18917402456152 98.10336100067684 97.3983130238847 100.31250000000001 97.3983130238847 C 102.52163899932319 97.3983130238847 104.31250000000001 99.18917402456152 104.31250000000001 101.3983130238847 Z" fill-opacity="1"/><path fill="none" stroke="rgb(0,0,0)" paint-order="fill stroke markers" d=" M 104.31250000000001 101.3983130238847 C 104.31250000000001 103.60745202320787 102.52163899932319 105.3983130238847 100.31250000000001 105.3983130238847 C 98.10336100067684 105.3983130238847 96.31250000000001 103.60745202320787 96.31250000000001 101.3983130238847 C 96.31250000000001 99.18917402456152 98.10336100067684 97.3983130238847 100.31250000000001 97.3983130238847 C 102.52163899932319 97.3983130238847 104.31250000000001 99.18917402456152 104.31250000000001 101.3983130238847 Z" stroke-opacity="1" stroke-linecap="round" stroke-linejoin="round" stroke-miterlimit="10"/><path fill="rgb(68,68,68)" stroke="none" paint-order="stroke fill markers" d=" M 124.37500000000001 224.86878829200265 C 124.37500000000001 227.0779272913258 122.58413899932319 228.86878829200265 120.37500000000001 228.86878829200265 C 118.16586100067684 228.86878829200265 116.37500000000001 227.0779272913258 116.37500000000001 224.86878829200265 C 116.37500000000001 222.65964929267946 118.16586100067684 220.86878829200265 120.37500000000001 220.86878829200265 C 122.58413899932319 220.86878829200265 124.37500000000001 222.65964929267946 124.37500000000001 224.86878829200265 Z" fill-opacity="1"/><path fill="none" stroke="rgb(0,0,0)" paint-order="fill stroke markers" d=" M 124.37500000000001 224.86878829200265 C 124.37500000000001 227.0779272913258 122.58413899932319 228.86878829200265 120.37500000000001 228.86878829200265 C 118.16586100067684 228.86878829200265 116.37500000000001 227.0779272913258 116.37500000000001 224.86878829200265 C 116.37500000000001 222.65964929267946 118.16586100067684 220.86878829200265 120.37500000000001 220.86878829200265 C 122.58413899932319 220.86878829200265 124.37500000000001 222.65964929267946 124.37500000000001 224.86878829200265 Z" stroke-opacity="1" stroke-linecap="round" stroke-linejoin="round" stroke-miterlimit="10"/><path fill="rgb(255,0,0)" stroke="none" paint-order="stroke fill markers" d=" M 144.43750000000003 119.47857527752862 C 144.43750000000003 121.68771427685179 142.64663899932322 123.47857527752862 140.43750000000003 123.47857527752862 C 138.22836100067684 123.47857527752862 136.43750000000003 121.68771427685179 136.43750000000003 119.47857527752862 C 136.43750000000003 117.26943627820545 138.22836100067684 115.47857527752862 140.43750000000003 115.47857527752862 C 142.64663899932322 115.47857527752862 144.43750000000003 117.26943627820545 144.43750000000003 119.47857527752862 Z" fill-opacity="1"/><path fill="none" stroke="rgb(0,0,0)" paint-order="fill stroke markers" d=" M 144.43750000000003 119.47857527752862 C 144.43750000000003 121.68771427685179 142.64663899932322 123.47857527752862 140.43750000000003 123.47857527752862 C 138.22836100067684 123.47857527752862 136.43750000000003 121.68771427685179 136.43750000000003 119.47857527752862 C 136.43750000000003 117.26943627820545 138.22836100067684 115.47857527752862 140.43750000000003 115.47857527752862 C 142.64663899932322 115.47857527752862 144.43750000000003 117.26943627820545 144.43750000000003 119.47857527752862 Z" stroke-opacity="1" stroke-linecap="round" stroke-linejoin="round" stroke-miterlimit="10"/><path fill="rgb(68,68,68)" stroke="none" paint-order="stroke fill markers" d=" M 164.50000000000003 208.1342359148465 C 164.50000000000003 210.34337491416966 162.70913899932322 212.1342359148465 160.50000000000003 212.1342359148465 C 158.29086100067684 212.1342359148465 156.50000000000003 210.34337491416966 156.50000000000003 208.1342359148465 C 156.50000000000003 205.9250969155233 158.29086100067684 204.1342359148465 160.50000000000003 204.1342359148465 C 162.70913899932322 204.1342359148465 164.50000000000003 205.9250969155233 164.50000000000003 208.1342359148465 Z" fill-opacity="1"/><path fill="none" stroke="rgb(0,0,0)" paint-order="fill stroke markers" d=" M 164.50000000000003 208.1342359148465 C 164.50000000000003 210.34337491416966 162.70913899932322 212.1342359148465 160.50000000000003 212.1342359148465 C 158.29086100067684 212.1342359148465 156.50000000000003 210.34337491416966 156.50000000000003 208.1342359148465 C 156.50000000000003 205.9250969155233 158.29086100067684 204.1342359148465 160.50000000000003 204.1342359148465 C 162.70913899932322 204.1342359148465 164.50000000000003 205.9250969155233 164.50000000000003 208.1342359148465 Z" stroke-opacity="1" stroke-linecap="round" stroke-linejoin="round" stroke-miterlimit="10"/><path fill="rgb(255,0,0)" stroke="none" paint-order="stroke fill markers" d=" M 184.56250000000003 132.3560294443508 C 184.56250000000003 134.565168443674 182.77163899932322 136.3560294443508 180.56250000000003 136.3560294443508 C 178.35336100067684 136.3560294443508 176.56250000000003 134.565168443674 176.56250000000003 132.3560294443508 C 176.56250000000003 130.14689044502762 178.35336100067684 128.3560294443508 180.56250000000003 128.3560294443508 C 182.77163899932322 128.3560294443508 184.56250000000003 130.14689044502762 184.56250000000003 132.3560294443508 Z" fill-opacity="1"/><path fill="none" stroke="rgb(0,0,0)" paint-order="fill stroke markers" d=" M 184.56250000000003 132.3560294443508 C 184.56250000000003 134.565168443674 182.77163899932322 136.3560294443508 180.56250000000003 136.3560294443508 C 178.35336100067684 136.3560294443508 176.56250000000003 134.565168443674 176.56250000000003 132.3560294443508 C 176.56250000000003 130.14689044502762 178.35336100067684 128.3560294443508 180.56250000000003 128.3560294443508 C 182.77163899932322 128.3560294443508 184.56250000000003 130.14689044502762 184.56250000000003 132.3560294443508 Z" stroke-opacity="1" stroke-linecap="round" stroke-linejoin="round" stroke-miterlimit="10"/><path fill="rgb(68,68,68)" stroke="none" paint-order="stroke fill markers" d=" M 204.62500000000003 196.44286386953198 C 204.62500000000003 198.65200286885516 202.83413899932322 200.44286386953198 200.62500000000003 200.44286386953198 C 198.41586100067684 200.44286386953198 196.62500000000003 198.65200286885516 196.62500000000003 196.44286386953198 C 196.62500000000003 194.2337248702088 198.41586100067684 192.44286386953198 200.62500000000003 192.44286386953198 C 202.83413899932322 192.44286386953198 204.62500000000003 194.2337248702088 204.62500000000003 196.44286386953198 Z" fill-opacity="1"/><path fill="none" stroke="rgb(0,0,0)" paint-order="fill stroke markers" d=" M 204.62500000000003 196.44286386953198 C 204.62500000000003 198.65200286885516 202.83413899932322 200.44286386953198 200.62500000000003 200.44286386953198 C 198.41586100067684 200.44286386953198 196.62500000000003 198.65200286885516 196.62500000000003 196.44286386953198 C 196.62500000000003 194.2337248702088 198.41586100067684 192.44286386953198 200.62500000000003 192.44286386953198 C 202.83413899932322 192.44286386953198 204.62500000000003 194.2337248702088 204.62500000000003 196.44286386953198 Z" stroke-opacity="1" stroke-linecap="round" stroke-linejoin="round" stroke-miterlimit="10"/><path fill="rgb(255,0,0)" stroke="none" paint-order="stroke fill markers" d=" M 224.68750000000003 141.65028341873662 C 224.68750000000003 143.8594224180598 222.89663899932322 145.65028341873662 220.68750000000003 145.65028341873662 C 218.47836100067684 145.65028341873662 216.68750000000003 143.8594224180598 216.68750000000003 141.65028341873662 C 216.68750000000003 139.44114441941343 218.47836100067684 137.65028341873662 220.68750000000003 137.65028341873662 C 222.89663899932322 137.65028341873662 224.68750000000003 139.44114441941343 224.68750000000003 141.65028341873662 Z" fill-opacity="1"/><path fill="none" stroke="rgb(0,0,0)" paint-order="fill stroke markers" d=" M 224.68750000000003 141.65028341873662 C 224.68750000000003 143.8594224180598 222.89663899932322 145.65028341873662 220.68750000000003 145.65028341873662 C 218.47836100067684 145.65028341873662 216.68750000000003 143.8594224180598 216.68750000000003 141.65028341873662 C 216.68750000000003 139.44114441941343 218.47836100067684 137.65028341873662 220.68750000000003 137.65028341873662 C 222.89663899932322 137.65028341873662 224.68750000000003 139.44114441941343 224.68750000000003 141.65028341873662 Z" stroke-opacity="1" stroke-linecap="round" stroke-linejoin="round" stroke-miterlimit="10"/><path fill="rgb(68,68,68)" stroke="none" paint-order="stroke fill markers" d=" M 244.75000000000003 188.13269891324194 C 244.75000000000003 190.3418379125651 242.95913899932322 192.13269891324194 240.75000000000003 192.13269891324194 C 238.54086100067684 192.13269891324194 236.75000000000003 190.3418379125651 236.75000000000003 188.13269891324194 C 236.75000000000003 185.92355991391875 238.54086100067684 184.13269891324194 240.75000000000003 184.13269891324194 C 242.95913899932322 184.13269891324194 244.75000000000003 185.92355991391875 244.75000000000003 188.13269891324194 Z" fill-opacity="1"/><path fill="none" stroke="rgb(0,0,0)" paint-order="fill stroke markers" d=" M 244.75000000000003 188.13269891324194 C 244.75000000000003 190.3418379125651 242.95913899932322 192.13269891324194 240.75000000000003 192.13269891324194 C 238.54086100067684 192.13269891324194 236.75000000000003 190.3418379125651 236.75000000000003 188.13269891324194 C 236.75000000000003 185.92355991391875 238.54086100067684 184.13269891324194 240.75000000000003 184.13269891324194 C 242.95913899932322 184.13269891324194 244.75000000000003 185.92355991391875 244.75000000000003 188.13269891324194 Z" stroke-opacity="1" stroke-linecap="round" stroke-linejoin="round" stroke-miterlimit="10"/><path fill="rgb(255,0,0)" stroke="none" paint-order="stroke fill markers" d=" M 264.81250000000006 148.39878603122102 C 264.81250000000006 150.6079250305442 263.0216389993232 152.39878603122102 260.81250000000006 152.39878603122102 C 258.6033610006769 152.39878603122102 256.81250000000006 150.6079250305442 256.81250000000006 148.39878603122102 C 256.81250000000006 146.18964703189783 258.6033610006769 144.39878603122102 260.81250000000006 144.39878603122102 C 263.0216389993232 144.39878603122102 264.81250000000006 146.18964703189783 264.81250000000006 148.39878603122102 Z" fill-opacity="1"/><path fill="none" stroke="rgb(0,0,0)" paint-order="fill stroke markers" d=" M 264.81250000000006 148.39878603122102 C 264.81250000000006 150.6079250305442 263.0216389993232 152.39878603122102 260.81250000000006 152.39878603122102 C 258.6033610006769 152.39878603122102 256.81250000000006 150.6079250305442 256.81250000000006 148.39878603122102 C 256.81250000000006 146.18964703189783 258.6033610006769 144.39878603122102 260.81250000000006 144.39878603122102 C 263.0216389993232 144.39878603122102 264.81250000000006 146.18964703189783 264.81250000000006 148.39878603122102 Z" stroke-opacity="1" stroke-linecap="round" stroke-linejoin="round" stroke-miterlimit="10"/><path fill="rgb(68,68,68)" stroke="none" paint-order="stroke fill markers" d=" M 284.87500000000006 182.1698632828385 C 284.87500000000006 184.37900228216165 283.0841389993232 186.1698632828385 280.87500000000006 186.1698632828385 C 278.6658610006769 186.1698632828385 276.87500000000006 184.37900228216165 276.87500000000006 182.1698632828385 C 276.87500000000006 179.9607242835153 278.6658610006769 178.1698632828385 280.87500000000006 178.1698632828385 C 283.0841389993232 178.1698632828385 284.87500000000006 179.9607242835153 284.87500000000006 182.1698632828385 Z" fill-opacity="1"/><path fill="none" stroke="rgb(0,0,0)" paint-order="fill stroke markers" d=" M 284.87500000000006 182.1698632828385 C 284.87500000000006 184.37900228216165 283.0841389993232 186.1698632828385 280.87500000000006 186.1698632828385 C 278.6658610006769 186.1698632828385 276.87500000000006 184.37900228216165 276.87500000000006 182.1698632828385 C 276.87500000000006 179.9607242835153 278.6658610006769 178.1698632828385 280.87500000000006 178.1698632828385 C 283.0841389993232 178.1698632828385 284.87500000000006 179.9607242835153 284.87500000000006 182.1698632828385 Z" stroke-opacity="1" stroke-linecap="round" stroke-linejoin="round" stroke-miterlimit="10"/><path fill="rgb(255,0,0)" stroke="none" paint-order="stroke fill markers" d=" M 304.93750000000006 153.31142316500376 C 304.93750000000006 155.52056216432692 303.1466389993232 157.31142316500376 300.93750000000006 157.31142316500376 C 298.7283610006769 157.31142316500376 296.93750000000006 155.52056216432692 296.93750000000006 153.31142316500376 C 296.93750000000006 151.10228416568057 298.7283610006769 149.31142316500376 300.93750000000006 149.31142316500376 C 303.1466389993232 149.31142316500376 304.93750000000006 151.10228416568057 304.93750000000006 153.31142316500376 Z" fill-opacity="1"/><path fill="none" stroke="rgb(0,0,0)" paint-order="fill stroke markers" d=" M 304.93750000000006 153.31142316500376 C 304.93750000000006 155.52056216432692 303.1466389993232 157.31142316500376 300.93750000000006 157.31142316500376 C 298.7283610006769 157.31142316500376 296.93750000000006 155.52056216432692 296.93750000000006 153.31142316500376 C 296.93750000000006 151.10228416568057 298.7283610006769 149.31142316500376 300.93750000000006 149.31142316500376 C 303.1466389993232 149.31142316500376 304.93750000000006 151.10228416568057 304.93750000000006 153.31142316500376 Z" stroke-opacity="1" stroke-linecap="round" stroke-linejoin="round" stroke-miterlimit="10"/><path fill="rgb(68,68,68)" stroke="none" paint-order="stroke fill markers" d=" M 325.00000000000006 177.86825596995448 C 325.00000000000006 180.07739496927763 323.2091389993232 181.86825596995448 321.00000000000006 181.86825596995448 C 318.7908610006769 181.86825596995448 317.00000000000006 180.07739496927763 317.00000000000006 177.86825596995448 C 317.00000000000006 175.6591169706313 318.7908610006769 173.86825596995448 321.00000000000006 173.86825596995448 C 323.2091389993232 173.86825596995448 325.00000000000006 175.6591169706313 325.00000000000006 177.86825596995448 Z" fill-opacity="1"/><path fill="none" stroke="rgb(0,0,0)" paint-order="fill stroke markers" d=" M 325.00000000000006 177.86825596995448 C 325.00000000000006 180.07739496927763 323.2091389993232 181.86825596995448 321.00000000000006 181.86825596995448 C 318.7908610006769 181.86825596995448 317.00000000000006 180.07739496927763 317.00000000000006 177.86825596995448 C 317.00000000000006 175.6591169706313 318.7908610006769 173.86825596995448 321.00000000000006 173.86825596995448 C 323.2091389993232 173.86825596995448 325.00000000000006 175.6591169706313 325.00000000000006 177.86825596995448 Z" stroke-opacity="1" stroke-linecap="round" stroke-linejoin="round" stroke-miterlimit="10"/><path fill="rgb(255,0,0)" stroke="none" paint-order="stroke fill markers" d=" M 345.06250000000006 156.89098408406824 C 345.06250000000006 159.1001230833914 343.2716389993232 160.89098408406824 341.06250000000006 160.89098408406824 C 338.8533610006769 160.89098408406824 337.06250000000006 159.1001230833914 337.06250000000006 156.89098408406824 C 337.06250000000006 154.68184508474505 338.8533610006769 152.89098408406824 341.06250000000006 152.89098408406824 C 343.2716389993232 152.89098408406824 345.06250000000006 154.68184508474505 345.06250000000006 156.89098408406824 Z" fill-opacity="1"/><path fill="none" stroke="rgb(0,0,0)" paint-order="fill stroke markers" d=" M 345.06250000000006 156.89098408406824 C 345.06250000000006 159.1001230833914 343.2716389993232 160.89098408406824 341.06250000000006 160.89098408406824 C 338.8533610006769 160.89098408406824 337.06250000000006 159.1001230833914 337.06250000000006 156.89098408406824 C 337.06250000000006 154.68184508474505 338.8533610006769 152.89098408406824 341.06250000000006 152.89098408406824 C 343.2716389993232 152.89098408406824 345.06250000000006 154.68184508474505 345.06250000000006 156.89098408406824 Z" stroke-opacity="1" stroke-linecap="round" stroke-linejoin="round" stroke-miterlimit="10"/><path fill="rgb(68,68,68)" stroke="none" paint-order="stroke fill markers" d=" M 365.12500000000006 174.7552219623929 C 365.12500000000006 176.96436096171607 363.3341389993232 178.7552219623929 361.12500000000006 178.7552219623929 C 358.9158610006769 178.7552219623929 357.12500000000006 176.96436096171607 357.12500000000006 174.7552219623929 C 357.12500000000006 172.54608296306972 358.9158610006769 170.7552219623929 361.12500000000006 170.7552219623929 C 363.3341389993232 170.7552219623929 365.12500000000006 172.54608296306972 365.12500000000006 174.7552219623929 Z" fill-opacity="1"/><path fill="none" stroke="rgb(0,0,0)" paint-order="fill stroke markers" d=" M 365.12500000000006 174.7552219623929 C 365.12500000000006 176.96436096171607 363.3341389993232 178.7552219623929 361.12500000000006 178.7552219623929 C 358.9158610006769 178.7552219623929 357.12500000000006 176.96436096171607 357.12500000000006 174.7552219623929 C 357.12500000000006 172.54608296306972 358.9158610006769 170.7552219623929 361.12500000000006 170.7552219623929 C 363.3341389993232 170.7552219623929 365.12500000000006 172.54608296306972 365.12500000000006 174.7552219623929 Z" stroke-opacity="1" stroke-linecap="round" stroke-linejoin="round" stroke-miterlimit="10"/><path fill="rgb(255,0,0)" stroke="none" paint-order="stroke fill markers" d=" M 385.18750000000006 159.49972169938928 C 385.18750000000006 161.70886069871244 383.3966389993232 163.49972169938928 381.18750000000006 163.49972169938928 C 378.9783610006769 163.49972169938928 377.18750000000006 161.70886069871244 377.18750000000006 159.49972169938928 C 377.18750000000006 157.2905827000661 378.9783610006769 155.49972169938928 381.18750000000006 155.49972169938928 C 383.3966389993232 155.49972169938928 385.18750000000006 157.2905827000661 385.18750000000006 159.49972169938928 Z" fill-opacity="1"/><path fill="none" stroke="rgb(0,0,0)" paint-order="fill stroke markers" d=" M 385.18750000000006 159.49972169938928 C 385.18750000000006 161.70886069871244 383.3966389993232 163.49972169938928 381.18750000000006 163.49972169938928 C 378.9783610006769 163.49972169938928 377.18750000000006 161.70886069871244 377.18750000000006 159.49972169938928 C 377.18750000000006 157.2905827000661 378.9783610006769 155.49972169938928 381.18750000000006 155.49972169938928 C 383.3966389993232 155.49972169938928 385.18750000000006 157.2905827000661 385.18750000000006 159.49972169938928 Z" stroke-opacity="1" stroke-linecap="round" stroke-linejoin="round" stroke-miterlimit="10"/><path fill="rgb(68,68,68)" stroke="none" paint-order="stroke fill markers" d=" M 405.25000000000006 172.49801151011113 C 405.25000000000006 174.7071505094343 403.4591389993232 176.49801151011113 401.25000000000006 176.49801151011113 C 399.0408610006769 176.49801151011113 397.25000000000006 174.7071505094343 397.25000000000006 172.49801151011113 C 397.25000000000006 170.28887251078794 399.0408610006769 168.49801151011113 401.25000000000006 168.49801151011113 C 403.4591389993232 168.49801151011113 405.25000000000006 170.28887251078794 405.25000000000006 172.49801151011113 Z" fill-opacity="1"/><path fill="none" stroke="rgb(0,0,0)" paint-order="fill stroke markers" d=" M 405.25000000000006 172.49801151011113 C 405.25000000000006 174.7071505094343 403.4591389993232 176.49801151011113 401.25000000000006 176.49801151011113 C 399.0408610006769 176.49801151011113 397.25000000000006 174.7071505094343 397.25000000000006 172.49801151011113 C 397.25000000000006 170.28887251078794 399.0408610006769 168.49801151011113 401.25000000000006 168.49801151011113 C 403.4591389993232 168.49801151011113 405.25000000000006 170.28887251078794 405.25000000000006 172.49801151011113 Z" stroke-opacity="1" stroke-linecap="round" stroke-linejoin="round" stroke-miterlimit="10"/><path fill="rgb(255,0,0)" stroke="none" paint-order="stroke fill markers" d=" M 425.31250000000006 161.40072005973323 C 425.31250000000006 163.60985905905642 423.5216389993232 165.40072005973323 421.31250000000006 165.40072005973323 C 419.1033610006769 165.40072005973323 417.31250000000006 163.60985905905642 417.31250000000006 161.40072005973323 C 417.31250000000006 159.19158106041004 419.1033610006769 157.40072005973323 421.31250000000006 157.40072005973323 C 423.5216389993232 157.40072005973323 425.31250000000006 159.19158106041004 425.31250000000006 161.40072005973323 Z" fill-opacity="1"/><path fill="none" stroke="rgb(0,0,0)" paint-order="fill stroke markers" d=" M 425.31250000000006 161.40072005973323 C 425.31250000000006 163.60985905905642 423.5216389993232 165.40072005973323 421.31250000000006 165.40072005973323 C 419.1033610006769 165.40072005973323 417.31250000000006 163.60985905905642 417.31250000000006 161.40072005973323 C 417.31250000000006 159.19158106041004 419.1033610006769 157.40072005973323 421.31250000000006 157.40072005973323 C 423.5216389993232 157.40072005973323 425.31250000000006 159.19158106041004 425.31250000000006 161.40072005973323 Z" stroke-opacity="1" stroke-linecap="round" stroke-linejoin="round" stroke-miterlimit="10"/><path fill="rgb(68,68,68)" stroke="none" paint-order="stroke fill markers" d=" M 445.37500000000006 170.85937715658568 C 445.37500000000006 173.06851615590887 443.5841389993232 174.85937715658568 441.37500000000006 174.85937715658568 C 439.1658610006769 174.85937715658568 437.37500000000006 173.06851615590887 437.37500000000006 170.85937715658568 C 437.37500000000006 168.6502381572625 439.1658610006769 166.85937715658568 441.37500000000006 166.85937715658568 C 443.5841389993232 166.85937715658568 445.37500000000006 168.6502381572625 445.37500000000006 170.85937715658568 Z" fill-opacity="1"/><path fill="none" stroke="rgb(0,0,0)" paint-order="fill stroke markers" d=" M 445.37500000000006 170.85937715658568 C 445.37500000000006 173.06851615590887 443.5841389993232 174.85937715658568 441.37500000000006 174.85937715658568 C 439.1658610006769 174.85937715658568 437.37500000000006 173.06851615590887 437.37500000000006 170.85937715658568 C 437.37500000000006 168.6502381572625 439.1658610006769 166.85937715658568 441.37500000000006 166.85937715658568 C 443.5841389993232 166.85937715658568 445.37500000000006 168.6502381572625 445.37500000000006 170.85937715658568 Z" stroke-opacity="1" stroke-linecap="round" stroke-linejoin="round" stroke-miterlimit="10"/></g></g></svg>